<svg width="390" height="844" viewBox="0 0 390 844" fill="none" xmlns="http://www.w3.org/2000/svg">
<g clip-path="url(#clip0_142_2658)">
<rect width="390" height="844" fill="white"/>
<rect width="390" height="245" fill="#4BB5CF"/>
<rect y="245" width="390" height="245" fill="#79DDED"/>
<rect y="490" width="390" height="280" fill="#B4FAFC"/>
<rect x="5" y="245" width="8" height="8" fill="#4BB5CF"/>
<rect x="13" y="245" width="8" height="8" fill="#4BB5CF"/>
<rect x="13" y="253" width="8" height="8" fill="#4BB5CF"/>
<rect x="21" y="245" width="8" height="8" fill="#4BB5CF"/>
<rect x="165" y="245" width="8" height="8" fill="#4BB5CF"/>
<rect x="173" y="245" width="8" height="8" fill="#4BB5CF"/>
<rect x="173" y="253" width="8" height="8" fill="#4BB5CF"/>
<rect x="181" y="245" width="8" height="8" fill="#4BB5CF"/>
<rect x="293" y="245" width="8" height="8" fill="#4BB5CF"/>
<rect x="301" y="245" width="8" height="8" fill="#4BB5CF"/>
<rect x="301" y="253" width="8" height="8" fill="#4BB5CF"/>
<rect x="309" y="245" width="8" height="8" fill="#4BB5CF"/>
<rect x="37" y="245" width="8" height="8" fill="#4BB5CF"/>
<rect x="45" y="245" width="8" height="8" fill="#4BB5CF"/>
<rect x="45" y="253" width="8" height="8" fill="#4BB5CF"/>
<rect x="53" y="245" width="8" height="8" fill="#4BB5CF"/>
<rect x="197" y="245" width="8" height="8" fill="#4BB5CF"/>
<rect x="205" y="245" width="8" height="8" fill="#4BB5CF"/>
<rect x="205" y="253" width="8" height="8" fill="#4BB5CF"/>
<rect x="213" y="245" width="8" height="8" fill="#4BB5CF"/>
<rect x="325" y="245" width="8" height="8" fill="#4BB5CF"/>
<rect x="333" y="245" width="8" height="8" fill="#4BB5CF"/>
<rect x="333" y="253" width="8" height="8" fill="#4BB5CF"/>
<rect x="341" y="245" width="8" height="8" fill="#4BB5CF"/>
<rect x="69" y="245" width="8" height="8" fill="#4BB5CF"/>
<rect x="77" y="245" width="8" height="8" fill="#4BB5CF"/>
<rect x="77" y="253" width="8" height="8" fill="#4BB5CF"/>
<rect x="85" y="245" width="8" height="8" fill="#4BB5CF"/>
<rect x="101" y="245" width="8" height="8" fill="#4BB5CF"/>
<rect x="109" y="245" width="8" height="8" fill="#4BB5CF"/>
<rect x="109" y="253" width="8" height="8" fill="#4BB5CF"/>
<rect x="117" y="245" width="8" height="8" fill="#4BB5CF"/>
<rect x="133" y="245" width="8" height="8" fill="#4BB5CF"/>
<rect x="141" y="245" width="8" height="8" fill="#4BB5CF"/>
<rect x="141" y="253" width="8" height="8" fill="#4BB5CF"/>
<rect x="149" y="245" width="8" height="8" fill="#4BB5CF"/>
<rect x="261" y="245" width="8" height="8" fill="#4BB5CF"/>
<rect x="269" y="245" width="8" height="8" fill="#4BB5CF"/>
<rect x="269" y="253" width="8" height="8" fill="#4BB5CF"/>
<rect x="277" y="245" width="8" height="8" fill="#4BB5CF"/>
<rect x="229" y="245" width="8" height="8" fill="#4BB5CF"/>
<rect x="237" y="245" width="8" height="8" fill="#4BB5CF"/>
<rect x="237" y="253" width="8" height="8" fill="#4BB5CF"/>
<rect x="245" y="245" width="8" height="8" fill="#4BB5CF"/>
<rect x="357" y="245" width="8" height="8" fill="#4BB5CF"/>
<rect x="365" y="245" width="8" height="8" fill="#4BB5CF"/>
<rect x="365" y="253" width="8" height="8" fill="#4BB5CF"/>
<rect x="373" y="245" width="8" height="8" fill="#4BB5CF"/>
<rect x="8" y="490" width="8" height="8" fill="#79DDED"/>
<rect x="16" y="490" width="8" height="8" fill="#79DDED"/>
<rect x="32" y="490" width="8" height="8" fill="#79DDED"/>
<rect x="16" y="498" width="8" height="8" fill="#79DDED"/>
<rect x="24" y="498" width="8" height="8" fill="#79DDED"/>
<rect x="24" y="506" width="8" height="8" fill="#79DDED"/>
<rect x="32" y="498" width="8" height="8" fill="#79DDED"/>
<rect x="24" y="490" width="8" height="8" fill="#79DDED"/>
<rect x="40" y="490" width="8" height="8" fill="#79DDED"/>
<rect x="72" y="490" width="8" height="8" fill="#79DDED"/>
<rect x="80" y="490" width="8" height="8" fill="#79DDED"/>
<rect x="96" y="490" width="8" height="8" fill="#79DDED"/>
<rect x="80" y="498" width="8" height="8" fill="#79DDED"/>
<rect x="88" y="498" width="8" height="8" fill="#79DDED"/>
<rect x="88" y="506" width="8" height="8" fill="#79DDED"/>
<rect x="96" y="498" width="8" height="8" fill="#79DDED"/>
<rect x="88" y="490" width="8" height="8" fill="#79DDED"/>
<rect x="104" y="490" width="8" height="8" fill="#79DDED"/>
<rect x="136" y="490" width="8" height="8" fill="#79DDED"/>
<rect x="144" y="490" width="8" height="8" fill="#79DDED"/>
<rect x="160" y="490" width="8" height="8" fill="#79DDED"/>
<rect x="144" y="498" width="8" height="8" fill="#79DDED"/>
<rect x="152" y="498" width="8" height="8" fill="#79DDED"/>
<rect x="152" y="506" width="8" height="8" fill="#79DDED"/>
<rect x="160" y="498" width="8" height="8" fill="#79DDED"/>
<rect x="152" y="490" width="8" height="8" fill="#79DDED"/>
<rect x="168" y="490" width="8" height="8" fill="#79DDED"/>
<rect x="264" y="490" width="8" height="8" fill="#79DDED"/>
<rect x="272" y="490" width="8" height="8" fill="#79DDED"/>
<rect x="288" y="490" width="8" height="8" fill="#79DDED"/>
<rect x="272" y="498" width="8" height="8" fill="#79DDED"/>
<rect x="280" y="498" width="8" height="8" fill="#79DDED"/>
<rect x="280" y="506" width="8" height="8" fill="#79DDED"/>
<rect x="288" y="498" width="8" height="8" fill="#79DDED"/>
<rect x="280" y="490" width="8" height="8" fill="#79DDED"/>
<rect x="296" y="490" width="8" height="8" fill="#79DDED"/>
<rect x="200" y="490" width="8" height="8" fill="#79DDED"/>
<rect x="208" y="490" width="8" height="8" fill="#79DDED"/>
<rect x="224" y="490" width="8" height="8" fill="#79DDED"/>
<rect x="208" y="498" width="8" height="8" fill="#79DDED"/>
<rect x="216" y="498" width="8" height="8" fill="#79DDED"/>
<rect x="216" y="506" width="8" height="8" fill="#79DDED"/>
<rect x="224" y="498" width="8" height="8" fill="#79DDED"/>
<rect x="216" y="490" width="8" height="8" fill="#79DDED"/>
<rect x="232" y="490" width="8" height="8" fill="#79DDED"/>
<rect x="328" y="490" width="8" height="8" fill="#79DDED"/>
<rect x="336" y="490" width="8" height="8" fill="#79DDED"/>
<rect x="352" y="490" width="8" height="8" fill="#79DDED"/>
<rect x="336" y="498" width="8" height="8" fill="#79DDED"/>
<rect x="344" y="498" width="8" height="8" fill="#79DDED"/>
<rect x="344" y="506" width="8" height="8" fill="#79DDED"/>
<rect x="352" y="498" width="8" height="8" fill="#79DDED"/>
<rect x="344" y="490" width="8" height="8" fill="#79DDED"/>
<rect x="360" y="490" width="8" height="8" fill="#79DDED"/>
<rect x="56" y="490" width="8" height="8" fill="#79DDED"/>
<rect x="120" y="490" width="8" height="8" fill="#79DDED"/>
<rect x="184" y="490" width="8" height="8" fill="#79DDED"/>
<rect x="312" y="490" width="8" height="8" fill="#79DDED"/>
<rect x="248" y="490" width="8" height="8" fill="#79DDED"/>
<rect x="376" y="490" width="8" height="8" fill="#79DDED"/>
<rect y="682" width="390" height="162" fill="#8DC53F"/>
<rect x="31" y="836" width="8" height="8" fill="#579C1D"/>
<rect x="39" y="836" width="8" height="8" fill="#579C1D"/>
<rect y="836" width="8" height="8" fill="#579C1D"/>
<rect x="8" y="836" width="8" height="8" fill="#579C1D"/>
<rect y="828" width="8" height="8" fill="#579C1D"/>
<rect x="39" y="828" width="8" height="8" fill="#579C1D"/>
<rect x="47" y="836" width="8" height="8" fill="#579C1D"/>
<rect x="47" y="828" width="8" height="8" fill="#579C1D"/>
<rect x="55" y="820" width="8" height="8" fill="#579C1D"/>
<rect x="55" y="812" width="8" height="8" fill="#579C1D"/>
<rect x="55" y="836" width="8" height="8" fill="#315110"/>
<rect x="63" y="820" width="8" height="8" fill="#579C1D"/>
<rect x="47" y="820" width="8" height="8" fill="#579C1D"/>
<rect x="71" y="836" width="8" height="8" fill="#579C1D"/>
<rect x="55" y="828" width="8" height="8" fill="#579C1D"/>
<rect x="63" y="828" width="8" height="8" fill="#579C1D"/>
<rect x="71" y="828" width="8" height="8" fill="#579C1D"/>
<rect x="63" y="836" width="8" height="8" fill="#579C1D"/>
<rect x="79" y="836" width="8" height="8" fill="#579C1D"/>
<rect x="55" y="836" width="8" height="8" fill="#375B11"/>
<rect x="150" y="836" width="8" height="8" fill="#579C1D"/>
<rect x="142" y="841" width="8" height="3" fill="#579C1D"/>
<rect x="158" y="836" width="8" height="8" fill="#579C1D"/>
<rect x="158" y="828" width="8" height="8" fill="#579C1D"/>
<rect x="166" y="836" width="8" height="8" fill="#579C1D"/>
<rect x="166" y="828" width="8" height="8" fill="#579C1D"/>
<rect x="174" y="820" width="8" height="8" fill="#579C1D"/>
<rect x="230" y="828" width="8" height="8" fill="#579C1D"/>
<rect x="238" y="828" width="8" height="8" fill="#579C1D"/>
<rect x="246" y="828" width="8" height="8" fill="#579C1D"/>
<rect x="174" y="836" width="8" height="8" fill="#315110"/>
<rect x="182" y="820" width="8" height="8" fill="#579C1D"/>
<rect x="166" y="820" width="8" height="8" fill="#579C1D"/>
<rect x="190" y="836" width="8" height="8" fill="#579C1D"/>
<rect x="174" y="828" width="8" height="8" fill="#579C1D"/>
<rect x="182" y="828" width="8" height="8" fill="#579C1D"/>
<rect x="190" y="828" width="8" height="8" fill="#579C1D"/>
<rect x="182" y="836" width="8" height="8" fill="#579C1D"/>
<rect x="198" y="836" width="8" height="8" fill="#579C1D"/>
<rect x="230" y="812" width="8" height="8" fill="#579C1D"/>
<rect x="238" y="812" width="8" height="8" fill="#579C1D"/>
<rect x="238" y="804" width="8" height="8" fill="#579C1D"/>
<rect x="246" y="804" width="8" height="8" fill="#579C1D"/>
<rect x="246" y="796" width="8" height="8" fill="#579C1D"/>
<rect x="254" y="804" width="8" height="8" fill="#579C1D"/>
<rect x="246" y="812" width="8" height="8" fill="#579C1D"/>
<rect x="254" y="812" width="8" height="8" fill="#579C1D"/>
<rect x="262" y="812" width="8" height="8" fill="#579C1D"/>
<rect x="206" y="836" width="8" height="8" fill="#579C1D"/>
<rect x="214" y="836" width="8" height="8" fill="#579C1D"/>
<rect x="222" y="836" width="8" height="8" fill="#579C1D"/>
<rect x="222" y="820" width="8" height="8" fill="#579C1D"/>
<rect x="214" y="828" width="8" height="8" fill="#579C1D"/>
<rect x="222" y="828" width="8" height="8" fill="#579C1D"/>
<rect x="230" y="820" width="8" height="8" fill="#579C1D"/>
<rect x="238" y="820" width="8" height="8" fill="#579C1D"/>
<rect x="246" y="820" width="8" height="8" fill="#579C1D"/>
<rect x="254" y="820" width="8" height="8" fill="#579C1D"/>
<rect x="262" y="820" width="8" height="8" fill="#579C1D"/>
<rect x="270" y="820" width="8" height="8" fill="#579C1D"/>
<rect x="254" y="828" width="8" height="8" fill="#579C1D"/>
<rect x="262" y="828" width="8" height="8" fill="#579C1D"/>
<rect x="270" y="828" width="8" height="8" fill="#579C1D"/>
<rect x="278" y="828" width="8" height="8" fill="#579C1D"/>
<rect x="230" y="836" width="8" height="8" fill="#579C1D"/>
<rect x="238" y="836" width="8" height="8" fill="#579C1D"/>
<rect x="246" y="836" width="8" height="8" fill="#579C1D"/>
<rect x="254" y="836" width="8" height="8" fill="#579C1D"/>
<rect x="262" y="836" width="8" height="8" fill="#579C1D"/>
<rect x="270" y="836" width="8" height="8" fill="#579C1D"/>
<rect x="278" y="836" width="8" height="8" fill="#579C1D"/>
<rect x="174" y="836" width="8" height="8" fill="#375B11"/>
<rect x="246" y="836" width="8" height="8" fill="#375B11"/>
<rect x="246" y="828" width="8" height="8" fill="#375B11"/>
<rect x="238" y="836" width="8" height="8" fill="#375B11"/>
<rect x="254" y="836" width="8" height="8" fill="#375B11"/>
<rect x="87" y="836" width="8" height="8" fill="#579C1D"/>
<rect x="95" y="836" width="8" height="8" fill="#579C1D"/>
<rect x="95" y="828" width="8" height="8" fill="#579C1D"/>
<rect x="95" y="828" width="8" height="8" fill="#579C1D"/>
<rect x="103" y="836" width="8" height="8" fill="#579C1D"/>
<rect x="103" y="828" width="8" height="8" fill="#579C1D"/>
<rect x="111" y="820" width="8" height="8" fill="#579C1D"/>
<rect x="111" y="812" width="8" height="8" fill="#579C1D"/>
<rect x="111" y="836" width="8" height="8" fill="#579C1D"/>
<rect x="119" y="820" width="8" height="8" fill="#579C1D"/>
<rect x="119" y="812" width="8" height="8" fill="#579C1D"/>
<rect x="119" y="804" width="8" height="8" fill="#579C1D"/>
<rect x="103" y="820" width="8" height="8" fill="#579C1D"/>
<rect x="127" y="836" width="8" height="8" fill="#579C1D"/>
<rect x="111" y="828" width="8" height="8" fill="#579C1D"/>
<rect x="119" y="828" width="8" height="8" fill="#579C1D"/>
<rect x="127" y="828" width="8" height="8" fill="#579C1D"/>
<rect x="119" y="836" width="8" height="8" fill="#579C1D"/>
<rect x="127" y="820" width="8" height="8" fill="#579C1D"/>
<rect x="127" y="812" width="8" height="8" fill="#579C1D"/>
<rect x="133" y="836" width="8" height="8" fill="#579C1D"/>
<rect x="133" y="828" width="8" height="8" fill="#579C1D"/>
<rect x="133" y="820" width="8" height="8" fill="#579C1D"/>
<rect x="140" y="836" width="8" height="8" fill="#579C1D"/>
<rect x="140" y="828" width="8" height="8" fill="#579C1D"/>
<rect x="140" y="820" width="8" height="8" fill="#579C1D"/>
<path d="M146.5 836H154.5V844H146.5V836Z" fill="#579C1D"/>
<rect x="148" y="829" width="8" height="8" fill="#579C1D"/>
<rect x="133" y="812" width="8" height="8" fill="#579C1D"/>
<rect x="127" y="804" width="8" height="8" fill="#579C1D"/>
<rect x="119" y="836" width="8" height="8" fill="#315110"/>
<rect x="119" y="828" width="8" height="8" fill="#315110"/>
<rect width="8" height="8" transform="matrix(-1 0 0 1 390 836)" fill="#579C1D"/>
<rect width="8" height="8" transform="matrix(-1 0 0 1 382 836)" fill="#579C1D"/>
<rect width="8" height="8" transform="matrix(-1 0 0 1 382 828)" fill="#579C1D"/>
<rect width="8" height="8" transform="matrix(-1 0 0 1 382 828)" fill="#579C1D"/>
<rect width="8" height="8" transform="matrix(-1 0 0 1 374 836)" fill="#579C1D"/>
<rect width="8" height="8" transform="matrix(-1 0 0 1 374 828)" fill="#579C1D"/>
<rect width="8" height="8" transform="matrix(-1 0 0 1 366 820)" fill="#579C1D"/>
<rect width="8" height="8" transform="matrix(-1 0 0 1 366 812)" fill="#579C1D"/>
<rect width="8" height="8" transform="matrix(-1 0 0 1 366 836)" fill="#579C1D"/>
<rect width="8" height="8" transform="matrix(-1 0 0 1 358 820)" fill="#579C1D"/>
<rect width="8" height="8" transform="matrix(-1 0 0 1 358 812)" fill="#579C1D"/>
<rect width="8" height="8" transform="matrix(-1 0 0 1 326 836)" fill="#579C1D"/>
<rect width="8" height="8" transform="matrix(-1 0 0 1 342 836)" fill="#579C1D"/>
<rect width="8" height="8" transform="matrix(-1 0 0 1 342 828)" fill="#579C1D"/>
<rect width="8" height="8" transform="matrix(-1 0 0 1 374 820)" fill="#579C1D"/>
<rect width="8" height="8" transform="matrix(-1 0 0 1 350 836)" fill="#579C1D"/>
<rect width="8" height="8" transform="matrix(-1 0 0 1 366 828)" fill="#579C1D"/>
<rect width="8" height="8" transform="matrix(-1 0 0 1 358 828)" fill="#579C1D"/>
<rect width="8" height="8" transform="matrix(-1 0 0 1 350 828)" fill="#579C1D"/>
<rect width="8" height="8" transform="matrix(-1 0 0 1 358 836)" fill="#579C1D"/>
<rect width="8" height="8" transform="matrix(-1 0 0 1 350 820)" fill="#579C1D"/>
<rect width="8" height="8" transform="matrix(-1 0 0 1 350 812)" fill="#579C1D"/>
<rect width="8" height="8" transform="matrix(-1 0 0 1 342 820)" fill="#579C1D"/>
<rect width="8" height="8" transform="matrix(-1 0 0 1 334 836)" fill="#579C1D"/>
<rect width="8" height="8" transform="matrix(-1 0 0 1 334 828)" fill="#579C1D"/>
<rect width="8" height="8" transform="matrix(-1 0 0 1 358 836)" fill="#315110"/>
<rect width="8" height="8" transform="matrix(-1 0 0 1 358 828)" fill="#315110"/>
<rect x="25" y="125" width="96" height="8" fill="white"/>
<rect x="25" y="117" width="8" height="8" fill="white"/>
<rect x="33" y="117" width="8" height="8" fill="white"/>
<rect x="33" y="109" width="8" height="8" fill="white"/>
<rect x="41" y="117" width="8" height="8" fill="white"/>
<rect x="41" y="109" width="8" height="8" fill="white"/>
<rect x="41" y="101" width="8" height="8" fill="white"/>
<rect x="49" y="101" width="8" height="8" fill="white"/>
<rect x="49" y="109" width="8" height="8" fill="white"/>
<rect x="49" y="117" width="8" height="8" fill="white"/>
<rect x="57" y="101" width="8" height="8" fill="white"/>
<rect x="57" y="109" width="8" height="8" fill="white"/>
<rect x="57" y="117" width="8" height="8" fill="white"/>
<rect x="73" y="117" width="8" height="8" fill="white"/>
<rect x="81" y="117" width="8" height="8" fill="white"/>
<rect x="81" y="109" width="8" height="8" fill="white"/>
<rect x="89" y="109" width="8" height="8" fill="white"/>
<rect x="89" y="101" width="8" height="8" fill="white"/>
<rect x="97" y="101" width="8" height="8" fill="white"/>
<rect x="105" y="101" width="8" height="8" fill="white"/>
<rect x="113" y="101" width="8" height="8" fill="white"/>
<rect x="113" y="93" width="8" height="8" fill="white"/>
<rect x="121" y="101" width="8" height="8" fill="white"/>
<rect x="129" y="101" width="8" height="8" fill="white"/>
<rect x="105" y="93" width="8" height="8" fill="white"/>
<rect x="97" y="93" width="8" height="8" fill="white"/>
<rect x="97" y="109" width="8" height="8" fill="white"/>
<rect x="105" y="109" width="8" height="8" fill="white"/>
<rect x="113" y="109" width="8" height="8" fill="white"/>
<rect x="121" y="109" width="8" height="8" fill="white"/>
<rect x="129" y="117" width="8" height="8" fill="white"/>
<rect x="97" y="117" width="8" height="8" fill="white"/>
<rect x="105" y="117" width="8" height="8" fill="white"/>
<rect x="113" y="117" width="8" height="8" fill="white"/>
<rect x="121" y="117" width="8" height="8" fill="white"/>
<rect x="89" y="117" width="8" height="8" fill="white"/>
<rect x="65" y="117" width="8" height="8" fill="white"/>
<rect x="65" y="109" width="8" height="8" fill="white"/>
<rect x="25" y="125" width="96" height="8" fill="#B3FAFB"/>
<rect x="25" y="117" width="8" height="8" fill="#B3FAFB"/>
<rect x="33" y="117" width="8" height="8" fill="#B3FAFB"/>
<rect x="33" y="109" width="8" height="8" fill="#B3FAFB"/>
<rect x="41" y="117" width="8" height="8" fill="#B3FAFB"/>
<rect x="41" y="109" width="8" height="8" fill="#B3FAFB"/>
<rect x="49" y="117" width="8" height="8" fill="#B3FAFB"/>
<rect x="57" y="117" width="8" height="8" fill="#B3FAFB"/>
<rect x="73" y="117" width="8" height="8" fill="#B3FAFB"/>
<rect x="81" y="117" width="8" height="8" fill="#B3FAFB"/>
<rect x="81" y="109" width="8" height="8" fill="#B3FAFB"/>
<rect x="121" y="109" width="8" height="8" fill="#B3FAFB"/>
<rect x="129" y="109" width="8" height="8" fill="#B3FAFB"/>
<rect x="129" y="117" width="8" height="8" fill="#B3FAFB"/>
<rect x="137" y="117" width="8" height="8" fill="#B3FAFB"/>
<rect x="129" y="125" width="8" height="8" fill="#B3FAFB"/>
<rect x="137" y="125" width="8" height="8" fill="#B3FAFB"/>
<rect x="97" y="117" width="8" height="8" fill="#B3FAFB"/>
<rect x="105" y="117" width="8" height="8" fill="#B3FAFB"/>
<rect x="113" y="117" width="8" height="8" fill="#B3FAFB"/>
<rect x="121" y="117" width="8" height="8" fill="#B3FAFB"/>
<rect x="121" y="125" width="8" height="8" fill="#B3FAFB"/>
<rect x="89" y="117" width="8" height="8" fill="#B3FAFB"/>
<rect x="65" y="117" width="8" height="8" fill="#B3FAFB"/>
<rect x="65" y="109" width="8" height="8" fill="#B3FAFB"/>
<rect width="96" height="8" transform="matrix(-1 0 0 1 332 77)" fill="white"/>
<rect width="8" height="8" transform="matrix(-1 0 0 1 332 69)" fill="white"/>
<rect width="8" height="8" transform="matrix(-1 0 0 1 324 69)" fill="white"/>
<rect width="8" height="8" transform="matrix(-1 0 0 1 324 61)" fill="white"/>
<rect width="8" height="8" transform="matrix(-1 0 0 1 316 69)" fill="white"/>
<rect width="8" height="8" transform="matrix(-1 0 0 1 316 61)" fill="white"/>
<rect width="8" height="8" transform="matrix(-1 0 0 1 316 53)" fill="white"/>
<rect width="8" height="8" transform="matrix(-1 0 0 1 308 53)" fill="white"/>
<rect width="8" height="8" transform="matrix(-1 0 0 1 308 61)" fill="white"/>
<rect width="8" height="8" transform="matrix(-1 0 0 1 308 69)" fill="white"/>
<rect width="8" height="8" transform="matrix(-1 0 0 1 300 53)" fill="white"/>
<rect width="8" height="8" transform="matrix(-1 0 0 1 300 61)" fill="white"/>
<rect width="8" height="8" transform="matrix(-1 0 0 1 300 69)" fill="white"/>
<rect width="8" height="8" transform="matrix(-1 0 0 1 284 69)" fill="white"/>
<rect width="8" height="8" transform="matrix(-1 0 0 1 276 69)" fill="white"/>
<rect width="8" height="8" transform="matrix(-1 0 0 1 276 61)" fill="white"/>
<rect width="8" height="8" transform="matrix(-1 0 0 1 268 61)" fill="white"/>
<rect width="8" height="8" transform="matrix(-1 0 0 1 268 53)" fill="white"/>
<rect width="8" height="8" transform="matrix(-1 0 0 1 260 53)" fill="white"/>
<rect width="8" height="8" transform="matrix(-1 0 0 1 252 53)" fill="white"/>
<rect width="8" height="8" transform="matrix(-1 0 0 1 244 53)" fill="white"/>
<rect width="8" height="8" transform="matrix(-1 0 0 1 244 45)" fill="white"/>
<rect width="8" height="8" transform="matrix(-1 0 0 1 236 53)" fill="white"/>
<rect width="8" height="8" transform="matrix(-1 0 0 1 228 53)" fill="white"/>
<rect width="8" height="8" transform="matrix(-1 0 0 1 252 45)" fill="white"/>
<rect width="8" height="8" transform="matrix(-1 0 0 1 260 45)" fill="white"/>
<rect width="8" height="8" transform="matrix(-1 0 0 1 260 61)" fill="white"/>
<rect width="8" height="8" transform="matrix(-1 0 0 1 252 61)" fill="white"/>
<rect width="8" height="8" transform="matrix(-1 0 0 1 244 61)" fill="white"/>
<rect width="8" height="8" transform="matrix(-1 0 0 1 236 61)" fill="white"/>
<rect width="8" height="8" transform="matrix(-1 0 0 1 228 69)" fill="white"/>
<rect width="8" height="8" transform="matrix(-1 0 0 1 260 69)" fill="white"/>
<rect width="8" height="8" transform="matrix(-1 0 0 1 252 69)" fill="white"/>
<rect width="8" height="8" transform="matrix(-1 0 0 1 244 69)" fill="white"/>
<rect width="8" height="8" transform="matrix(-1 0 0 1 236 69)" fill="white"/>
<rect width="8" height="8" transform="matrix(-1 0 0 1 268 69)" fill="white"/>
<rect width="8" height="8" transform="matrix(-1 0 0 1 292 69)" fill="white"/>
<rect width="8" height="8" transform="matrix(-1 0 0 1 292 61)" fill="white"/>
<rect width="96" height="8" transform="matrix(-1 0 0 1 332 77)" fill="#B3FAFB"/>
<rect width="8" height="8" transform="matrix(-1 0 0 1 332 69)" fill="#B3FAFB"/>
<rect width="8" height="8" transform="matrix(-1 0 0 1 324 69)" fill="#B3FAFB"/>
<rect width="8" height="8" transform="matrix(-1 0 0 1 324 61)" fill="#B3FAFB"/>
<rect width="8" height="8" transform="matrix(-1 0 0 1 316 69)" fill="#B3FAFB"/>
<rect width="8" height="8" transform="matrix(-1 0 0 1 316 61)" fill="#B3FAFB"/>
<rect width="8" height="8" transform="matrix(-1 0 0 1 308 69)" fill="#B3FAFB"/>
<rect width="8" height="8" transform="matrix(-1 0 0 1 300 69)" fill="#B3FAFB"/>
<rect width="8" height="8" transform="matrix(-1 0 0 1 284 69)" fill="#B3FAFB"/>
<rect width="8" height="8" transform="matrix(-1 0 0 1 276 69)" fill="#B3FAFB"/>
<rect width="8" height="8" transform="matrix(-1 0 0 1 276 61)" fill="#B3FAFB"/>
<rect width="8" height="8" transform="matrix(-1 0 0 1 236 61)" fill="#B3FAFB"/>
<rect width="8" height="8" transform="matrix(-1 0 0 1 228 61)" fill="#B3FAFB"/>
<rect width="8" height="8" transform="matrix(-1 0 0 1 228 69)" fill="#B3FAFB"/>
<rect width="8" height="8" transform="matrix(-1 0 0 1 220 69)" fill="#B3FAFB"/>
<rect width="8" height="8" transform="matrix(-1 0 0 1 228 77)" fill="#B3FAFB"/>
<rect width="8" height="8" transform="matrix(-1 0 0 1 220 77)" fill="#B3FAFB"/>
<rect width="8" height="8" transform="matrix(-1 0 0 1 260 69)" fill="#B3FAFB"/>
<rect width="8" height="8" transform="matrix(-1 0 0 1 252 69)" fill="#B3FAFB"/>
<rect width="8" height="8" transform="matrix(-1 0 0 1 244 69)" fill="#B3FAFB"/>
<rect width="8" height="8" transform="matrix(-1 0 0 1 236 69)" fill="#B3FAFB"/>
<rect width="8" height="8" transform="matrix(-1 0 0 1 236 77)" fill="#B3FAFB"/>
<rect width="8" height="8" transform="matrix(-1 0 0 1 268 69)" fill="#B3FAFB"/>
<rect width="8" height="8" transform="matrix(-1 0 0 1 292 69)" fill="#B3FAFB"/>
<rect width="8" height="8" transform="matrix(-1 0 0 1 292 61)" fill="#B3FAFB"/>
<rect width="96" height="8" transform="matrix(-1 0 0 1 363 218)" fill="white"/>
<rect width="8" height="8" transform="matrix(-1 0 0 1 363 210)" fill="white"/>
<rect width="8" height="8" transform="matrix(-1 0 0 1 355 210)" fill="white"/>
<rect width="8" height="8" transform="matrix(-1 0 0 1 355 202)" fill="white"/>
<rect width="8" height="8" transform="matrix(-1 0 0 1 347 210)" fill="white"/>
<rect width="8" height="8" transform="matrix(-1 0 0 1 347 202)" fill="white"/>
<rect width="8" height="8" transform="matrix(-1 0 0 1 347 194)" fill="white"/>
<rect width="8" height="8" transform="matrix(-1 0 0 1 339 194)" fill="white"/>
<rect width="8" height="8" transform="matrix(-1 0 0 1 339 202)" fill="white"/>
<rect width="8" height="8" transform="matrix(-1 0 0 1 339 210)" fill="white"/>
<rect width="8" height="8" transform="matrix(-1 0 0 1 331 194)" fill="white"/>
<rect width="8" height="8" transform="matrix(-1 0 0 1 331 202)" fill="white"/>
<rect width="8" height="8" transform="matrix(-1 0 0 1 331 210)" fill="white"/>
<rect width="8" height="8" transform="matrix(-1 0 0 1 315 210)" fill="white"/>
<rect width="8" height="8" transform="matrix(-1 0 0 1 307 210)" fill="white"/>
<rect width="8" height="8" transform="matrix(-1 0 0 1 307 202)" fill="white"/>
<rect width="8" height="8" transform="matrix(-1 0 0 1 299 202)" fill="white"/>
<rect width="8" height="8" transform="matrix(-1 0 0 1 299 194)" fill="white"/>
<rect width="8" height="8" transform="matrix(-1 0 0 1 291 194)" fill="white"/>
<rect width="8" height="8" transform="matrix(-1 0 0 1 283 194)" fill="white"/>
<rect width="8" height="8" transform="matrix(-1 0 0 1 275 194)" fill="white"/>
<rect width="8" height="8" transform="matrix(-1 0 0 1 275 186)" fill="white"/>
<rect width="8" height="8" transform="matrix(-1 0 0 1 267 194)" fill="white"/>
<rect width="8" height="8" transform="matrix(-1 0 0 1 259 194)" fill="white"/>
<rect width="8" height="8" transform="matrix(-1 0 0 1 283 186)" fill="white"/>
<rect width="8" height="8" transform="matrix(-1 0 0 1 291 186)" fill="white"/>
<rect width="8" height="8" transform="matrix(-1 0 0 1 291 202)" fill="white"/>
<rect width="8" height="8" transform="matrix(-1 0 0 1 283 202)" fill="white"/>
<rect width="8" height="8" transform="matrix(-1 0 0 1 275 202)" fill="white"/>
<rect width="8" height="8" transform="matrix(-1 0 0 1 267 202)" fill="white"/>
<rect width="8" height="8" transform="matrix(-1 0 0 1 259 210)" fill="white"/>
<rect width="8" height="8" transform="matrix(-1 0 0 1 291 210)" fill="white"/>
<rect width="8" height="8" transform="matrix(-1 0 0 1 283 210)" fill="white"/>
<rect width="8" height="8" transform="matrix(-1 0 0 1 275 210)" fill="white"/>
<rect width="8" height="8" transform="matrix(-1 0 0 1 267 210)" fill="white"/>
<rect width="8" height="8" transform="matrix(-1 0 0 1 299 210)" fill="white"/>
<rect width="8" height="8" transform="matrix(-1 0 0 1 323 210)" fill="white"/>
<rect width="8" height="8" transform="matrix(-1 0 0 1 323 202)" fill="white"/>
<rect width="96" height="8" transform="matrix(-1 0 0 1 363 218)" fill="#B3FAFB"/>
<rect width="8" height="8" transform="matrix(-1 0 0 1 363 210)" fill="#B3FAFB"/>
<rect width="8" height="8" transform="matrix(-1 0 0 1 355 210)" fill="#B3FAFB"/>
<rect width="8" height="8" transform="matrix(-1 0 0 1 355 202)" fill="#B3FAFB"/>
<rect width="8" height="8" transform="matrix(-1 0 0 1 347 210)" fill="#B3FAFB"/>
<rect width="8" height="8" transform="matrix(-1 0 0 1 347 202)" fill="#B3FAFB"/>
<rect width="8" height="8" transform="matrix(-1 0 0 1 339 210)" fill="#B3FAFB"/>
<rect width="8" height="8" transform="matrix(-1 0 0 1 331 210)" fill="#B3FAFB"/>
<rect width="8" height="8" transform="matrix(-1 0 0 1 315 210)" fill="#B3FAFB"/>
<rect width="8" height="8" transform="matrix(-1 0 0 1 307 210)" fill="#B3FAFB"/>
<rect width="8" height="8" transform="matrix(-1 0 0 1 307 202)" fill="#B3FAFB"/>
<rect width="8" height="8" transform="matrix(-1 0 0 1 267 202)" fill="#B3FAFB"/>
<rect width="8" height="8" transform="matrix(-1 0 0 1 259 202)" fill="#B3FAFB"/>
<rect width="8" height="8" transform="matrix(-1 0 0 1 259 210)" fill="#B3FAFB"/>
<rect width="8" height="8" transform="matrix(-1 0 0 1 251 210)" fill="#B3FAFB"/>
<rect width="8" height="8" transform="matrix(-1 0 0 1 259 218)" fill="#B3FAFB"/>
<rect width="8" height="8" transform="matrix(-1 0 0 1 251 218)" fill="#B3FAFB"/>
<rect width="8" height="8" transform="matrix(-1 0 0 1 243 218)" fill="#B3FAFB"/>
<rect width="8" height="8" transform="matrix(-1 0 0 1 235 218)" fill="#B3FAFB"/>
<rect width="8" height="8" transform="matrix(-1 0 0 1 227 218)" fill="#B3FAFB"/>
<rect width="8" height="8" transform="matrix(-1 0 0 1 219 218)" fill="#B3FAFB"/>
<rect width="8" height="8" transform="matrix(-1 0 0 1 211 218)" fill="#B3FAFB"/>
<rect width="8" height="8" transform="matrix(-1 0 0 1 291 210)" fill="#B3FAFB"/>
<rect width="8" height="8" transform="matrix(-1 0 0 1 283 210)" fill="#B3FAFB"/>
<rect width="8" height="8" transform="matrix(-1 0 0 1 275 210)" fill="#B3FAFB"/>
<rect width="8" height="8" transform="matrix(-1 0 0 1 267 210)" fill="#B3FAFB"/>
<rect width="8" height="8" transform="matrix(-1 0 0 1 267 218)" fill="#B3FAFB"/>
<rect width="8" height="8" transform="matrix(-1 0 0 1 299 210)" fill="#B3FAFB"/>
<rect width="8" height="8" transform="matrix(-1 0 0 1 323 210)" fill="#B3FAFB"/>
<rect width="8" height="8" transform="matrix(-1 0 0 1 323 202)" fill="#B3FAFB"/>
<rect width="8" height="8" transform="matrix(-1 0 0 1 227 194)" fill="white"/>
<rect width="8" height="8" transform="matrix(-1 0 0 1 219 194)" fill="white"/>
<rect width="8" height="8" transform="matrix(-1 0 0 1 219 202)" fill="white"/>
<rect width="8" height="8" transform="matrix(-1 0 0 1 211 194)" fill="white"/>
<rect width="8" height="8" transform="matrix(-1 0 0 1 211 202)" fill="white"/>
<rect width="8" height="8" transform="matrix(-1 0 0 1 243 210)" fill="#B3FAFB"/>
<rect width="8" height="8" transform="matrix(-1 0 0 1 235 210)" fill="#B3FAFB"/>
<rect width="8" height="8" transform="matrix(-1 0 0 1 235 202)" fill="#B3FAFB"/>
<rect width="8" height="8" transform="matrix(-1 0 0 1 227 210)" fill="#B3FAFB"/>
<rect width="8" height="8" transform="matrix(-1 0 0 1 227 202)" fill="#B3FAFB"/>
<rect width="8" height="8" transform="matrix(-1 0 0 1 219 210)" fill="#B3FAFB"/>
<rect width="8" height="8" transform="matrix(-1 0 0 1 211 210)" fill="#B3FAFB"/>
<rect width="8" height="8" transform="matrix(-1 0 0 1 203 210)" fill="#B3FAFB"/>
<rect width="8" height="8" transform="matrix(-1 0 0 1 203 202)" fill="#B3FAFB"/>
</g>
<defs>
<clipPath id="clip0_142_2658">
<rect width="390" height="844" fill="white"/>
</clipPath>
</defs>
</svg>
