<svg width="390" height="844" viewBox="0 0 390 844" fill="none" xmlns="http://www.w3.org/2000/svg">
<g clip-path="url(#clip0_142_3382)">
<rect width="390" height="844" fill="black"/>
<rect y="-1" width="392" height="486" fill="#F0F0F0"/>
<rect y="671" width="56" height="56" fill="#D9DCE2"/>
<rect y="559" width="56" height="56" fill="#D9DCE2"/>
<rect y="783" width="56" height="56" fill="#D9DCE2"/>
<rect y="503" width="56" height="56" fill="#C8D5DF"/>
<rect y="727" width="56" height="56" fill="#C8D5DF"/>
<rect y="615" width="56" height="56" fill="#C8D5DF"/>
<rect y="839" width="56" height="56" fill="#C8D5DF"/>
<rect x="56" y="671" width="56" height="56" fill="#C8D5DF"/>
<rect x="56" y="559" width="56" height="56" fill="#C8D5DF"/>
<rect x="56" y="783" width="56" height="56" fill="#C8D5DF"/>
<rect x="56" y="503" width="56" height="56" fill="#D9DCE2"/>
<rect x="56" y="727" width="56" height="56" fill="#D9DCE2"/>
<rect x="56" y="615" width="56" height="56" fill="#D9DCE2"/>
<rect x="56" y="839" width="56" height="56" fill="#D9DCE2"/>
<rect x="112" y="671" width="56" height="56" fill="#D9DCE2"/>
<rect x="112" y="559" width="56" height="56" fill="#D9DCE2"/>
<rect x="112" y="783" width="56" height="56" fill="#D9DCE2"/>
<rect x="112" y="503" width="56" height="56" fill="#C8D5DF"/>
<rect x="112" y="727" width="56" height="56" fill="#C8D5DF"/>
<rect x="112" y="615" width="56" height="56" fill="#C8D5DF"/>
<rect x="112" y="839" width="56" height="56" fill="#C8D5DF"/>
<rect x="224" y="671" width="56" height="56" fill="#D9DCE2"/>
<rect x="224" y="559" width="56" height="56" fill="#D9DCE2"/>
<rect x="224" y="783" width="56" height="56" fill="#D9DCE2"/>
<rect x="224" y="503" width="56" height="56" fill="#C8D5DF"/>
<rect x="224" y="727" width="56" height="56" fill="#C8D5DF"/>
<rect x="224" y="615" width="56" height="56" fill="#C8D5DF"/>
<rect x="224" y="839" width="56" height="56" fill="#C8D5DF"/>
<rect x="336" y="671" width="56" height="56" fill="#D9DCE2"/>
<rect x="336" y="559" width="56" height="56" fill="#D9DCE2"/>
<rect x="336" y="783" width="56" height="56" fill="#D9DCE2"/>
<rect x="336" y="503" width="56" height="56" fill="#C8D5DF"/>
<rect x="336" y="727" width="56" height="56" fill="#C8D5DF"/>
<rect x="336" y="615" width="56" height="56" fill="#C8D5DF"/>
<rect x="336" y="839" width="56" height="56" fill="#C8D5DF"/>
<rect x="168" y="671" width="56" height="56" fill="#C8D5DF"/>
<rect x="168" y="559" width="56" height="56" fill="#C8D5DF"/>
<rect x="168" y="783" width="56" height="56" fill="#C8D5DF"/>
<rect x="168" y="503" width="56" height="56" fill="#D9DCE2"/>
<rect x="168" y="727" width="56" height="56" fill="#D9DCE2"/>
<rect x="168" y="615" width="56" height="56" fill="#D9DCE2"/>
<rect x="168" y="839" width="56" height="56" fill="#D9DCE2"/>
<rect x="280" y="671" width="56" height="56" fill="#C8D5DF"/>
<rect x="280" y="559" width="56" height="56" fill="#C8D5DF"/>
<rect x="280" y="783" width="56" height="56" fill="#C8D5DF"/>
<rect x="280" y="503" width="56" height="56" fill="#D9DCE2"/>
<rect x="280" y="727" width="56" height="56" fill="#D9DCE2"/>
<rect y="485" width="56" height="18" fill="#E1E3E3"/>
<rect x="56" y="485" width="56" height="18" fill="#E1E3E3"/>
<rect x="112" y="485" width="56" height="18" fill="#E1E3E3"/>
<rect x="224" y="485" width="56" height="18" fill="#E1E3E3"/>
<rect x="336" y="485" width="56" height="18" fill="#E1E3E3"/>
<rect x="168" y="485" width="56" height="18" fill="#E1E3E3"/>
<rect x="280" y="485" width="56" height="18" fill="#E1E3E3"/>
<rect x="280" y="615" width="56" height="56" fill="#D9DCE2"/>
<rect x="280" y="839" width="56" height="56" fill="#D9DCE2"/>
</g>
<defs>
<clipPath id="clip0_142_3382">
<rect width="390" height="844" fill="white"/>
</clipPath>
</defs>
</svg>
