<svg width="56" height="56" viewBox="0 0 56 56" fill="none" xmlns="http://www.w3.org/2000/svg">
<rect width="56" height="56" fill="#F0F0F0"/>
<rect x="19.5117" y="10" width="3.34887" height="3.34887" fill="#E2AD61"/>
<rect x="21.1863" y="11.6743" width="3.34887" height="3.34887" fill="#E2AD61"/>
<rect x="21.1863" y="14.1858" width="3.34887" height="3.34887" fill="#E2AD61"/>
<rect x="19.5117" y="15.0234" width="3.34887" height="3.34887" fill="#E2AD61"/>
<rect x="19.5117" y="18.3718" width="3.34887" height="3.34887" fill="#E2AD61"/>
<rect x="17.8372" y="20.0466" width="3.34887" height="3.34887" fill="#E2AD61"/>
<rect x="17.8372" y="21.7209" width="3.34887" height="3.34887" fill="#E2AD61"/>
<rect x="17" y="23.3953" width="3.34887" height="3.34887" fill="#E2AD61"/>
<rect x="17" y="25.9067" width="3.34887" height="3.34887" fill="#E2AD61"/>
<rect x="18.6746" y="27.5818" width="3.34887" height="3.34887" fill="#E2AD61"/>
<rect width="3.34887" height="3.34887" transform="matrix(-1 0 0 1 36.2561 10)" fill="#E2AD61"/>
<rect width="3.34887" height="3.34887" transform="matrix(-1 0 0 1 34.5819 11.6743)" fill="#E2AD61"/>
<rect width="3.34887" height="3.34887" transform="matrix(-1 0 0 1 34.5819 14.1858)" fill="#E2AD61"/>
<rect width="3.34887" height="3.34887" transform="matrix(-1 0 0 1 36.2561 15.0234)" fill="#E2AD61"/>
<rect width="3.34887" height="3.34887" transform="matrix(-1 0 0 1 36.2561 18.3718)" fill="#E2AD61"/>
<rect width="3.34887" height="3.34887" transform="matrix(-1 0 0 1 37.9307 20.0466)" fill="#E2AD61"/>
<rect width="3.34887" height="3.34887" transform="matrix(-1 0 0 1 37.9307 21.7209)" fill="#E2AD61"/>
<rect width="3.34887" height="3.34887" transform="matrix(-1 0 0 1 38.7678 23.3953)" fill="#E2AD61"/>
<rect width="3.34887" height="3.34887" transform="matrix(-1 0 0 1 38.7678 25.9067)" fill="#E2AD61"/>
<rect width="3.34887" height="3.34887" transform="matrix(-1 0 0 1 37.0935 27.5818)" fill="#E2AD61"/>
<rect x="20.3488" y="30.0935" width="3.34887" height="3.34887" fill="#CC6733"/>
<rect x="23.6979" y="30.0935" width="3.34887" height="3.34887" fill="#CC6733"/>
<rect x="27.0468" y="30.0935" width="3.34887" height="3.34887" fill="#CC6733"/>
<rect x="30.3955" y="30.0935" width="3.34887" height="3.34887" fill="#CC6733"/>
<rect x="33.7443" y="30.9302" width="3.34887" height="3.34887" fill="#CC6733"/>
<rect x="18.6746" y="30.9302" width="3.34887" height="3.34887" fill="#CC6733"/>
<rect x="20.3488" y="33.4419" width="3.34887" height="3.34887" fill="#CC6733"/>
<rect x="23.6979" y="33.4419" width="3.34887" height="3.34887" fill="#CC6733"/>
<rect x="27.0468" y="33.4419" width="3.34887" height="3.34887" fill="#CC6733"/>
<rect x="30.3955" y="33.4419" width="3.34887" height="3.34887" fill="#CC6733"/>
<rect x="20.3488" y="35.9536" width="3.34887" height="3.34887" fill="#CC6733"/>
<rect x="23.6979" y="35.9536" width="3.34887" height="3.34887" fill="#CC6733"/>
<rect x="27.0468" y="35.9536" width="3.34887" height="3.34887" fill="#CC6733"/>
<rect x="30.3955" y="35.9536" width="3.34887" height="3.34887" fill="#CC6733"/>
<rect x="21.1863" y="37.6277" width="3.34887" height="3.34887" fill="#CC6733"/>
<rect x="24.535" y="37.6277" width="3.34887" height="3.34887" fill="#CC6733"/>
<rect x="27.8838" y="37.6277" width="3.34887" height="3.34887" fill="#CC6733"/>
<rect x="22.8605" y="39.3027" width="3.34887" height="3.34887" fill="#CC6733"/>
<rect x="26.2096" y="39.3027" width="3.34887" height="3.34887" fill="#CC6733"/>
<rect x="24.535" y="40.9768" width="3.34887" height="3.34887" fill="#CC6733"/>
<rect x="27.8838" y="40.9768" width="3.34887" height="3.34887" fill="#CC6733"/>
<rect x="26.2096" y="42.6511" width="3.34887" height="3.34887" fill="#CC6733"/>
<rect x="29.5583" y="39.3027" width="3.34887" height="3.34887" fill="#CC6733"/>
<rect x="31.2327" y="37.6277" width="3.34887" height="3.34887" fill="#CC6733"/>
<rect x="33.7443" y="34.2793" width="3.34887" height="3.34887" fill="#CC6733"/>
<rect x="32.9072" y="35.9536" width="3.34887" height="3.34887" fill="#CC6733"/>
<rect x="18.6746" y="34.2793" width="3.34887" height="3.34887" fill="#CC6733"/>
<rect x="19.5117" y="35.9536" width="3.34887" height="3.34887" fill="#CC6733"/>
<rect width="6" height="6" fill="white"/>
<rect x="50" width="6" height="6" fill="white"/>
<rect x="50" y="50" width="6" height="6" fill="white"/>
<rect y="50" width="6" height="6" fill="white"/>
</svg>
