<svg width="56" height="56" viewBox="0 0 56 56" fill="none" xmlns="http://www.w3.org/2000/svg">
<rect width="56" height="56" fill="#F0F0F0"/>
<rect x="21" y="16.8572" width="5.14286" height="9.42857" fill="#FFACCD"/>
<rect x="24.4286" y="22.8572" width="5.14286" height="9.42857" fill="#FFACCD"/>
<rect x="33.8572" y="33.1428" width="5.14286" height="9.42857" fill="#FFACCD"/>
<rect x="37.2858" y="35.7144" width="5.14286" height="7.71429" fill="#FFACCD"/>
<rect x="15" y="35.7144" width="5.14286" height="7.71429" fill="#FFACCD"/>
<rect x="17.5714" y="33.1428" width="5.14286" height="7.71429" fill="#FFACCD"/>
<rect x="19.2858" y="28.8572" width="6.85714" height="10.2857" fill="#FFACCD"/>
<rect x="21.8572" y="13.4285" width="14.5714" height="4.28571" fill="#FFACCD"/>
<rect x="29.5714" y="16.8572" width="6.85714" height="7.71429" fill="#FFACCD"/>
<rect x="29.5714" y="28" width="5.14286" height="11.1429" fill="#FFACCD"/>
<rect x="17.5714" y="22" width="3.42857" height="3.42857" fill="#FF4A91"/>
<rect x="20.1428" y="23.7144" width="3.42857" height="3.42857" fill="#FF4A91"/>
<rect x="21.8572" y="26.2856" width="3.42857" height="3.42857" fill="#FF4A91"/>
<rect x="23.5714" y="29.7144" width="3.42857" height="3.42857" fill="#FF4A91"/>
<rect x="26.1428" y="32.2856" width="3.42857" height="3.42857" fill="#FF4A91"/>
<rect x="27.8572" y="35.7144" width="3.42857" height="3.42857" fill="#FF4A91"/>
<rect x="30.4286" y="38.2856" width="3.42857" height="3.42857" fill="#FF4A91"/>
<rect x="33" y="40.8572" width="3.42857" height="3.42857" fill="#FF4A91"/>
<rect x="36.4286" y="42.5715" width="3.42857" height="3.42857" fill="#FF4A91"/>
<rect x="39" y="40.8572" width="3.42857" height="3.42857" fill="#FF4A91"/>
<rect x="41.5714" y="39.1428" width="3.42857" height="3.42857" fill="#FF4A91"/>
<rect x="44.1428" y="37.4285" width="3.42857" height="3.42857" fill="#FF4A91"/>
<rect x="41.5714" y="35.7144" width="3.42857" height="3.42857" fill="#FF4A91"/>
<rect x="39" y="34" width="3.42857" height="3.42857" fill="#FF4A91"/>
<rect x="36.4286" y="32.2856" width="3.42857" height="3.42857" fill="#FF4A91"/>
<rect x="34.7142" y="29.7144" width="3.42857" height="3.42857" fill="#FF4A91"/>
<rect x="32.1428" y="27.1428" width="3.42857" height="3.42857" fill="#FF4A91"/>
<rect x="29.5714" y="24.5715" width="3.42857" height="3.42857" fill="#FF4A91"/>
<rect x="27" y="22" width="3.42857" height="3.42857" fill="#FF4A91"/>
<rect x="24.4286" y="20.2856" width="3.42857" height="3.42857" fill="#FF4A91"/>
<rect x="22.7142" y="17.7144" width="3.42857" height="3.42857" fill="#FF4A91"/>
<rect x="21" y="14.2856" width="3.42857" height="3.42857" fill="#FF4A91"/>
<rect x="26.1428" y="15.1428" width="3.42857" height="3.42857" fill="#FF4A91"/>
<rect x="29.5714" y="17.7144" width="3.42857" height="3.42857" fill="#FF4A91"/>
<rect x="28.7142" y="20.2856" width="3.42857" height="3.42857" fill="#FF4A91"/>
<rect x="19.2858" y="28.8572" width="3.42857" height="3.42857" fill="#FF4A91"/>
<rect x="16.7142" y="31.4285" width="3.42857" height="3.42857" fill="#FF4A91"/>
<rect x="14.1428" y="34" width="3.42857" height="3.42857" fill="#FF4A91"/>
<rect x="11.5714" y="36.5715" width="3.42857" height="3.42857" fill="#FF4A91"/>
<rect x="9" y="37.4285" width="3.42857" height="3.42857" fill="#FF4A91"/>
<rect x="11.5714" y="40" width="3.42857" height="3.42857" fill="#FF4A91"/>
<rect x="13.2858" y="42.5715" width="3.42857" height="3.42857" fill="#FF4A91"/>
<rect x="16.7142" y="42.5715" width="3.42857" height="3.42857" fill="#FF4A91"/>
<rect x="18.4286" y="40.8572" width="3.42857" height="3.42857" fill="#FF4A91"/>
<rect x="21" y="39.1428" width="3.42857" height="3.42857" fill="#FF4A91"/>
<rect x="23.5714" y="36.5715" width="3.42857" height="3.42857" fill="#FF4A91"/>
<rect x="24.4286" y="34.8572" width="3.42857" height="3.42857" fill="#FF4A91"/>
<rect x="17.5714" y="18.5715" width="3.42857" height="3.42857" fill="#FF4A91"/>
<rect x="17.5714" y="15.1428" width="3.42857" height="3.42857" fill="#FF4A91"/>
<rect x="19.2858" y="11.7144" width="3.42857" height="3.42857" fill="#FF4A91"/>
<rect x="21.8572" y="10" width="3.42857" height="3.42857" fill="#FF4A91"/>
<rect x="25.2858" y="10" width="3.42857" height="3.42857" fill="#FF4A91"/>
<rect x="28.7142" y="10" width="3.42857" height="3.42857" fill="#FF4A91"/>
<rect x="31.2858" y="10" width="3.42857" height="3.42857" fill="#FF4A91"/>
<rect x="33.8572" y="11.7144" width="3.42857" height="3.42857" fill="#FF4A91"/>
<rect x="35.5714" y="15.1428" width="3.42857" height="3.42857" fill="#FF4A91"/>
<rect x="35.5714" y="18.5715" width="3.42857" height="3.42857" fill="#FF4A91"/>
<rect x="35.5714" y="22" width="3.42857" height="3.42857" fill="#FF4A91"/>
<rect x="33" y="23.7144" width="3.42857" height="3.42857" fill="#FF4A91"/>
<rect width="6" height="6" fill="white"/>
<rect x="50" width="6" height="6" fill="white"/>
<rect x="50" y="50" width="6" height="6" fill="white"/>
<rect y="50" width="6" height="6" fill="white"/>
</svg>
