<svg width="271" height="42" viewBox="0 0 271 42" fill="none" xmlns="http://www.w3.org/2000/svg">
<rect x="18.8" width="230.3" height="42" fill="#D9D9D9"/>
<path d="M32.5 25.5H31V18H32.5V16.5H40V18H41.5V19.5H38.5V18H34V25.5H38.5V24H41.5V25.5H40V27H32.5V25.5ZM43 27V19.5H46V21H47.5V22.5H46V27H43ZM52 21H53.5V22.5H50.5V21H47.5V19.5H52V21ZM62.5 22.5V21H58V22.5H62.5ZM56.5 25.5H55V21H56.5V19.5H64V21H65.5V24H58V25.5H64V27H56.5V25.5ZM68.5 25.5H67V24H68.5V22.5H74.5V21H68.5V19.5H76V21H77.5V27H68.5V25.5ZM70 25.5H74.5V24H70V25.5ZM79 21V19.5H82V16.5H85V19.5H89.5V21H85V25.5H89.5V27H82V21H79ZM98.5 22.5V21H94V22.5H98.5ZM92.5 25.5H91V21H92.5V19.5H100V21H101.5V24H94V25.5H100V27H92.5V25.5ZM116.5 25.5H115V24H116.5V22.5H122.5V21H116.5V19.5H124V21H125.5V27H116.5V25.5ZM118 25.5H122.5V24H118V25.5ZM127 27V19.5H136V21H137.5V27H134.5V21H130V27H127ZM152.5 25.5H151V24H152.5V22.5H158.5V21H152.5V19.5H160V21H161.5V27H152.5V25.5ZM154 25.5H158.5V24H154V25.5ZM164.5 25.5H163V21H164.5V19.5H172V21H173.5V22.5H170.5V21H166V25.5H170.5V24H173.5V25.5H172V27H164.5V25.5ZM176.5 25.5H175V21H176.5V19.5H184V21H185.5V22.5H182.5V21H178V25.5H182.5V24H185.5V25.5H184V27H176.5V25.5ZM188.5 25.5H187V21H188.5V19.5H196V21H197.5V25.5H196V27H188.5V25.5ZM194.5 21H190V25.5H194.5V21ZM200.5 25.5H199V19.5H202V25.5H206.5V19.5H209.5V25.5H208V27H200.5V25.5ZM211 27V19.5H220V21H221.5V27H218.5V21H214V27H211ZM223 21V19.5H226V16.5H229V19.5H233.5V21H229V25.5H233.5V27H226V21H223Z" fill="black"/>
<rect x="249.1" y="9" width="9.4" height="8" fill="#C5C5C5"/>
<rect x="249.1" y="17" width="9.4" height="8" fill="#D9D9D9"/>
<rect x="249.1" y="25" width="9.4" height="8" fill="#C5C5C5"/>
<rect x="258.5" y="17" width="9.4" height="8" fill="#C5C5C5"/>
<rect width="9.4" height="8" transform="matrix(-1 0 0 1 18.8 9)" fill="#C4C4C4"/>
<rect width="9.4" height="8" transform="matrix(-1 0 0 1 18.8 17)" fill="#D9D9D9"/>
<rect width="9.4" height="8" transform="matrix(-1 0 0 1 18.8 25)" fill="#C4C4C4"/>
<rect width="9.4" height="8" transform="matrix(-1 0 0 1 9.40002 17)" fill="#C4C4C4"/>
</svg>
