<svg width="28" height="64" viewBox="0 0 28 64" fill="none" xmlns="http://www.w3.org/2000/svg">
<rect x="2.78259" y="2.78259" width="2.78261" height="2.78261" fill="#341C00"/>
<rect x="2.78259" y="19.4786" width="2.78261" height="2.78261" fill="#D49E4B"/>
<rect y="19.4786" width="2.78261" height="2.78261" fill="#341C00"/>
<rect x="2.78259" y="11.1304" width="2.78261" height="2.78261" fill="#D49E4B"/>
<rect y="11.1304" width="2.78261" height="2.78261" fill="#341C00"/>
<rect x="2.78259" y="5.56519" width="2.78261" height="2.78261" fill="#341C00"/>
<rect y="5.56519" width="2.78261" height="2.78261" fill="#341C00"/>
<rect y="8.34778" width="2.78261" height="2.78261" fill="#341C00"/>
<rect x="2.78259" y="22.2612" width="2.78261" height="2.78261" fill="#D49E4B"/>
<rect y="22.2612" width="2.78261" height="2.78261" fill="#341C00"/>
<rect x="2.78259" y="13.913" width="2.78261" height="2.78261" fill="#D49E4B"/>
<rect y="13.913" width="2.78261" height="2.78261" fill="#341C00"/>
<rect x="2.78259" y="8.34778" width="2.78261" height="2.78261" fill="#D49E4B"/>
<rect x="2.78259" y="25.0438" width="2.78261" height="2.78261" fill="#D49E4B"/>
<rect x="2.78259" y="25.0438" width="2.78261" height="2.78261" fill="#341C00"/>
<rect x="13.913" y="2.78259" width="2.78261" height="2.78261" fill="#341C00"/>
<rect x="13.913" width="2.78261" height="2.78261" fill="#341C00"/>
<rect x="2.78259" y="8.34778" width="2.78261" height="2.78261" fill="#341C00"/>
<rect x="2.78259" y="11.1304" width="2.78261" height="2.78261" fill="#341C00"/>
<rect x="2.78259" y="16.6956" width="2.78261" height="2.78261" fill="#D49E4B"/>
<rect y="16.6956" width="2.78261" height="2.78261" fill="#341C00"/>
<rect x="13.913" y="5.56519" width="2.78261" height="2.78261" fill="#341C00"/>
<rect x="13.913" y="19.4786" width="2.78261" height="2.78261" fill="#D49E4B"/>
<rect x="13.913" y="11.1304" width="2.78261" height="2.78261" fill="#D49E4B"/>
<rect x="13.913" y="27.8264" width="2.78261" height="2.78261" fill="#D49E4B"/>
<rect x="13.913" y="33.3911" width="2.78261" height="2.78261" fill="white"/>
<rect x="13.913" y="36.1736" width="2.78261" height="2.78261" fill="white"/>
<rect x="13.913" y="30.6089" width="2.78261" height="2.78261" fill="#D49E4B"/>
<rect x="13.913" y="33.3911" width="2.78261" height="2.78261" fill="#D49E4B"/>
<rect x="5.56519" y="2.78259" width="2.78261" height="2.78261" fill="#341C00"/>
<rect x="5.56519" width="2.78261" height="2.78261" fill="#341C00"/>
<rect x="13.913" y="22.2612" width="2.78261" height="2.78261" fill="#D49E4B"/>
<rect x="5.56519" y="5.56519" width="2.78261" height="2.78261" fill="#341C00"/>
<rect x="13.913" y="13.913" width="2.78261" height="2.78261" fill="#D49E4B"/>
<rect x="13.913" y="8.34778" width="2.78261" height="2.78261" fill="#D49E4B"/>
<rect x="13.913" y="25.0438" width="2.78261" height="2.78261" fill="#D49E4B"/>
<rect x="13.913" y="16.6956" width="2.78261" height="2.78261" fill="#D49E4B"/>
<rect x="16.6956" y="2.78259" width="2.78261" height="2.78261" fill="#341C00"/>
<rect x="16.6956" width="2.78261" height="2.78261" fill="#341C00"/>
<rect x="5.56519" y="19.4786" width="2.78261" height="2.78261" fill="#D49E4B"/>
<rect x="5.56519" y="11.1304" width="2.78261" height="2.78261" fill="#D49E4B"/>
<rect x="16.6956" y="5.56519" width="2.78261" height="2.78261" fill="#341C00"/>
<rect x="5.56519" y="22.2612" width="2.78261" height="2.78261" fill="#D49E4B"/>
<rect x="5.56519" y="13.913" width="2.78261" height="2.78261" fill="#D49E4B"/>
<rect x="5.56519" y="8.34778" width="2.78261" height="2.78261" fill="#D49E4B"/>
<rect x="5.56519" y="25.0438" width="2.78261" height="2.78261" fill="#CA8C2D"/>
<rect x="5.56519" y="16.6956" width="2.78261" height="2.78261" fill="#D49E4B"/>
<rect x="8.34778" y="2.78259" width="2.78261" height="2.78261" fill="#341C00"/>
<rect x="8.34778" width="2.78261" height="2.78261" fill="#341C00"/>
<rect x="16.6956" y="19.4786" width="2.78261" height="2.78261" fill="#D49E4B"/>
<rect x="8.34778" y="5.56519" width="2.78261" height="2.78261" fill="#341C00"/>
<rect x="16.6956" y="11.1304" width="2.78261" height="2.78261" fill="#D49E4B"/>
<rect x="16.6956" y="27.8264" width="2.78261" height="2.78261" fill="#D49E4B"/>
<rect x="16.6956" y="33.3911" width="2.78261" height="2.78261" fill="white"/>
<rect x="16.6956" y="36.1736" width="2.78261" height="2.78261" fill="white"/>
<rect x="16.6956" y="30.6089" width="2.78261" height="2.78261" fill="#CA8C2D"/>
<rect x="16.6956" y="22.2612" width="2.78261" height="2.78261" fill="#D49E4B"/>
<rect x="19.4781" y="2.78259" width="2.78261" height="2.78261" fill="#341C00"/>
<rect x="19.4781" width="2.78261" height="2.78261" fill="#341C00"/>
<rect x="16.6956" y="13.913" width="2.78261" height="2.78261" fill="#D49E4B"/>
<rect x="16.6956" y="8.34778" width="2.78261" height="2.78261" fill="#D49E4B"/>
<rect x="16.6956" y="25.0438" width="2.78261" height="2.78261" fill="#D49E4B"/>
<rect x="19.4781" y="5.56519" width="2.78261" height="2.78261" fill="#341C00"/>
<rect x="16.6956" y="16.6956" width="2.78261" height="2.78261" fill="#D49E4B"/>
<rect x="8.34778" y="19.4786" width="2.78261" height="2.78261" fill="#D49E4B"/>
<rect x="8.34778" y="11.1304" width="2.78261" height="2.78261" fill="#D49E4B"/>
<rect x="11.1306" y="2.78259" width="2.78261" height="2.78261" fill="#341C00"/>
<rect x="11.1306" width="2.78261" height="2.78261" fill="#341C00"/>
<rect x="8.34778" y="27.8264" width="2.78261" height="2.78261" fill="#CA8C2D"/>
<rect x="8.34778" y="33.3911" width="2.78261" height="2.78261" fill="white"/>
<rect x="8.34778" y="36.1736" width="2.78261" height="2.78261" fill="white"/>
<rect x="5.56519" y="33.3911" width="2.78261" height="2.78261" fill="white"/>
<rect x="5.56519" y="36.1736" width="2.78261" height="2.78261" fill="white"/>
<rect x="8.34778" y="22.2612" width="2.78261" height="2.78261" fill="#D49E4B"/>
<rect x="8.34778" y="13.913" width="2.78261" height="2.78261" fill="#D49E4B"/>
<rect x="11.1306" y="5.56519" width="2.78261" height="2.78261" fill="#341C00"/>
<rect x="8.34778" y="8.34778" width="2.78261" height="2.78261" fill="#D49E4B"/>
<rect x="8.34778" y="25.0438" width="2.78261" height="2.78261" fill="#D49E4B"/>
<rect x="8.34778" y="16.6956" width="2.78261" height="2.78261" fill="#D49E4B"/>
<rect x="22.2607" y="2.78259" width="2.78261" height="2.78261" fill="#341C00"/>
<rect x="19.4781" y="19.4786" width="2.78261" height="2.78261" fill="#D49E4B"/>
<rect x="19.4781" y="11.1304" width="2.78261" height="2.78261" fill="#D49E4B"/>
<rect x="22.2607" y="5.56519" width="2.78261" height="2.78261" fill="#341C00"/>
<rect x="19.4781" y="27.8264" width="2.78261" height="2.78261" fill="#D49E4B"/>
<rect x="19.4781" y="33.3911" width="2.78261" height="2.78261" fill="white"/>
<rect x="19.4781" y="36.1736" width="2.78261" height="2.78261" fill="white"/>
<rect x="22.2607" y="33.3911" width="2.78261" height="2.78261" fill="white"/>
<rect x="22.2607" y="36.1736" width="2.78261" height="2.78261" fill="white"/>
<rect x="25.0436" y="36.1736" width="2.78261" height="2.78261" fill="white"/>
<rect x="2.78259" y="36.1736" width="2.78261" height="2.78261" fill="white"/>
<rect x="19.4781" y="22.2612" width="2.78261" height="2.78261" fill="#D49E4B"/>
<rect x="19.4781" y="13.913" width="2.78261" height="2.78261" fill="#D49E4B"/>
<rect x="19.4781" y="8.34778" width="2.78261" height="2.78261" fill="#D49E4B"/>
<rect x="19.4781" y="25.0438" width="2.78261" height="2.78261" fill="#D49E4B"/>
<rect x="19.4781" y="16.6956" width="2.78261" height="2.78261" fill="#D49E4B"/>
<rect x="11.1306" y="19.4786" width="2.78261" height="2.78261" fill="#D49E4B"/>
<rect x="11.1306" y="11.1304" width="2.78261" height="2.78261" fill="#D49E4B"/>
<rect x="11.1306" y="27.8264" width="2.78261" height="2.78261" fill="#D49E4B"/>
<rect x="11.1306" y="33.3911" width="2.78261" height="2.78261" fill="white"/>
<rect x="11.1306" y="36.1736" width="2.78261" height="2.78261" fill="white"/>
<rect x="13.913" y="38.9562" width="2.78261" height="2.78261" fill="white"/>
<rect x="13.913" y="36.1736" width="2.78261" height="2.78261" fill="#4BB5CF"/>
<rect x="16.6956" y="33.3911" width="2.78261" height="2.78261" fill="#4BB5CF"/>
<rect x="16.6956" y="36.1736" width="2.78261" height="2.78261" fill="#4BB5CF"/>
<rect x="11.1306" y="33.3911" width="2.78261" height="2.78261" fill="#4BB5CF"/>
<rect x="11.1306" y="36.1736" width="2.78261" height="2.78261" fill="#4BB5CF"/>
<rect x="13.913" y="38.9562" width="2.78261" height="2.78261" fill="#4BB5CF"/>
<rect x="16.6956" y="38.9562" width="2.78261" height="2.78261" fill="white"/>
<rect x="8.34778" y="38.9562" width="2.78261" height="2.78261" fill="white"/>
<rect x="5.56519" y="38.9562" width="2.78261" height="2.78261" fill="white"/>
<rect x="19.4781" y="38.9562" width="2.78261" height="2.78261" fill="white"/>
<rect x="22.2607" y="38.9562" width="2.78261" height="2.78261" fill="white"/>
<rect x="25.0436" y="38.9562" width="2.78261" height="2.78261" fill="white"/>
<rect x="2.78259" y="38.9562" width="2.78261" height="2.78261" fill="white"/>
<rect x="11.1306" y="38.9562" width="2.78261" height="2.78261" fill="white"/>
<rect x="13.913" y="41.7388" width="2.78261" height="2.78261" fill="white"/>
<rect x="8.34778" y="33.3911" width="2.78261" height="2.78261" fill="#E1E1E1"/>
<rect x="8.34778" y="36.1736" width="2.78261" height="2.78261" fill="#E1E1E1"/>
<rect x="19.4781" y="33.3911" width="2.78261" height="2.78261" fill="#E1E1E1"/>
<rect x="19.4781" y="36.1736" width="2.78261" height="2.78261" fill="#E1E1E1"/>
<rect x="16.6956" y="38.9562" width="2.78261" height="2.78261" fill="#E1E1E1"/>
<rect x="11.1306" y="38.9562" width="2.78261" height="2.78261" fill="#E1E1E1"/>
<rect x="16.6956" y="41.7388" width="2.78261" height="2.78261" fill="white"/>
<rect x="8.34778" y="41.7388" width="2.78261" height="2.78261" fill="white"/>
<rect x="5.56519" y="41.7388" width="2.78261" height="2.78261" fill="white"/>
<rect x="19.4781" y="41.7388" width="2.78261" height="2.78261" fill="white"/>
<rect x="22.2607" y="41.7388" width="2.78261" height="2.78261" fill="white"/>
<rect x="25.0436" y="41.7388" width="2.78261" height="2.78261" fill="white"/>
<rect x="2.78259" y="41.7388" width="2.78261" height="2.78261" fill="white"/>
<rect x="11.1306" y="41.7388" width="2.78261" height="2.78261" fill="white"/>
<rect x="13.913" y="44.5214" width="2.78261" height="2.78261" fill="white"/>
<rect x="16.6956" y="44.5214" width="2.78261" height="2.78261" fill="white"/>
<rect x="8.34778" y="44.5214" width="2.78261" height="2.78261" fill="white"/>
<rect x="5.56519" y="44.5214" width="2.78261" height="2.78261" fill="white"/>
<rect x="19.4781" y="44.5214" width="2.78261" height="2.78261" fill="white"/>
<rect x="22.2607" y="44.5214" width="2.78261" height="2.78261" fill="white"/>
<rect x="25.0436" y="44.5214" width="2.78261" height="2.78261" fill="white"/>
<rect x="2.78259" y="44.5214" width="2.78261" height="2.78261" fill="white"/>
<rect x="11.1306" y="44.5214" width="2.78261" height="2.78261" fill="white"/>
<rect x="13.913" y="47.3044" width="2.78261" height="2.78261" fill="white"/>
<rect x="16.6956" y="47.3044" width="2.78261" height="2.78261" fill="white"/>
<rect x="8.34778" y="47.3044" width="2.78261" height="2.78261" fill="white"/>
<rect x="5.56519" y="47.3044" width="2.78261" height="2.78261" fill="white"/>
<rect x="19.4781" y="47.3044" width="2.78261" height="2.78261" fill="white"/>
<rect x="22.2607" y="47.3044" width="2.78261" height="2.78261" fill="#D49E4B"/>
<rect x="25.0436" y="47.3044" width="2.78261" height="2.78261" fill="#D49E4B"/>
<rect x="2.78259" y="47.3044" width="2.78261" height="2.78261" fill="white"/>
<rect x="11.1306" y="47.3044" width="2.78261" height="2.78261" fill="white"/>
<rect x="13.913" y="50.087" width="2.78261" height="2.78261" fill="white"/>
<rect x="16.6956" y="50.087" width="2.78261" height="2.78261" fill="white"/>
<rect x="8.34778" y="50.087" width="2.78261" height="2.78261" fill="white"/>
<rect x="5.56519" y="50.087" width="2.78261" height="2.78261" fill="white"/>
<rect x="19.4781" y="50.087" width="2.78261" height="2.78261" fill="white"/>
<rect x="22.2607" y="50.087" width="2.78261" height="2.78261" fill="#D49E4B"/>
<rect x="25.0436" y="50.087" width="2.78261" height="2.78261" fill="#D49E4B"/>
<rect x="2.78259" y="50.087" width="2.78261" height="2.78261" fill="white"/>
<rect x="5.56519" y="47.3044" width="2.78261" height="2.78261" fill="#D49E4B"/>
<rect x="2.78259" y="47.3044" width="2.78261" height="2.78261" fill="#D49E4B"/>
<rect x="5.56519" y="50.087" width="2.78261" height="2.78261" fill="#D49E4B"/>
<rect x="22.2607" y="50.087" width="2.78261" height="2.78261" fill="#CA8C2D"/>
<rect x="5.56519" y="50.087" width="2.78261" height="2.78261" fill="#CA8C2D"/>
<rect x="2.78259" y="50.087" width="2.78261" height="2.78261" fill="#D49E4B"/>
<rect x="11.1306" y="52.8696" width="2.78261" height="2.78261" fill="#444952"/>
<rect x="11.1306" y="58.4348" width="2.78261" height="2.78261" fill="#444952"/>
<rect x="19.4781" y="52.8696" width="2.78261" height="2.78261" fill="#444952"/>
<rect x="19.4781" y="58.4348" width="2.78261" height="2.78261" fill="#444952"/>
<rect x="8.34778" y="52.8696" width="2.78261" height="2.78261" fill="#444952"/>
<rect x="8.34778" y="58.4348" width="2.78261" height="2.78261" fill="#444952"/>
<rect x="16.6956" y="52.8696" width="2.78261" height="2.78261" fill="#444952"/>
<rect x="16.6956" y="58.4348" width="2.78261" height="2.78261" fill="#444952"/>
<rect x="11.1306" y="55.6522" width="2.78261" height="2.78261" fill="#444952"/>
<rect x="11.1306" y="61.2174" width="2.78261" height="2.78261" fill="black"/>
<rect x="19.4781" y="55.6522" width="2.78261" height="2.78261" fill="#444952"/>
<rect x="19.4781" y="61.2174" width="2.78261" height="2.78261" fill="black"/>
<rect x="8.34778" y="55.6522" width="2.78261" height="2.78261" fill="#444952"/>
<rect x="8.34778" y="61.2174" width="2.78261" height="2.78261" fill="black"/>
<rect x="16.6956" y="55.6522" width="2.78261" height="2.78261" fill="#444952"/>
<rect x="16.6956" y="61.2174" width="2.78261" height="2.78261" fill="black"/>
<rect x="11.1306" y="50.087" width="2.78261" height="2.78261" fill="white"/>
<rect x="11.1306" y="30.6089" width="2.78261" height="2.78261" fill="#CA8C2D"/>
<rect x="11.1306" y="22.2612" width="2.78261" height="2.78261" fill="#D49E4B"/>
<rect x="11.1306" y="13.913" width="2.78261" height="2.78261" fill="#D49E4B"/>
<rect x="11.1306" y="8.34778" width="2.78261" height="2.78261" fill="#D49E4B"/>
<rect x="11.1306" y="25.0438" width="2.78261" height="2.78261" fill="#D49E4B"/>
<rect x="11.1306" y="16.6956" width="2.78261" height="2.78261" fill="#D49E4B"/>
<rect x="22.2607" y="19.4786" width="2.78261" height="2.78261" fill="#D49E4B"/>
<rect x="22.2607" y="11.1304" width="2.78261" height="2.78261" fill="#D49E4B"/>
<rect x="22.2607" y="22.2612" width="2.78261" height="2.78261" fill="#D49E4B"/>
<rect x="22.2607" y="13.913" width="2.78261" height="2.78261" fill="#D49E4B"/>
<rect x="22.2607" y="8.34778" width="2.78261" height="2.78261" fill="#D49E4B"/>
<rect x="22.2607" y="25.0438" width="2.78261" height="2.78261" fill="#D49E4B"/>
<rect x="19.4781" y="25.0438" width="2.78261" height="2.78261" fill="#D49E4B"/>
<rect x="22.2607" y="16.6956" width="2.78261" height="2.78261" fill="#D49E4B"/>
<rect x="25.0436" y="22.2612" width="2.78261" height="2.78261" fill="#D49E4B"/>
<rect x="25.0436" y="19.4786" width="2.78261" height="2.78261" fill="#CA8C2D"/>
<rect x="13.913" y="8.34778" width="2.78261" height="2.78261" fill="#341C00"/>
<rect x="5.56519" y="8.34778" width="2.78261" height="2.78261" fill="#341C00"/>
<rect x="5.56519" y="11.1304" width="2.78261" height="2.78261" fill="#341C00"/>
<rect x="18.0869" y="13.913" width="2.78261" height="2.78261" fill="#341C00"/>
<rect x="18.0869" y="16.6956" width="2.78261" height="2.78261" fill="#341C00"/>
<rect x="5.56519" y="13.913" width="2.78261" height="2.78261" fill="#341C00"/>
<rect x="5.56519" y="16.6956" width="2.78261" height="2.78261" fill="#341C00"/>
<rect x="16.6956" y="8.34778" width="2.78261" height="2.78261" fill="#341C00"/>
<rect x="8.34778" y="8.34778" width="2.78261" height="2.78261" fill="#341C00"/>
<rect x="8.34778" y="11.1304" width="2.78261" height="2.78261" fill="#341C00"/>
<rect x="19.4781" y="8.34778" width="2.78261" height="2.78261" fill="#341C00"/>
<rect x="11.1306" y="8.34778" width="2.78261" height="2.78261" fill="#341C00"/>
<rect x="22.2607" y="8.34778" width="2.78261" height="2.78261" fill="#341C00"/>
<rect x="13.913" y="44.5214" width="2.78261" height="2.78261" fill="#A9A9A9"/>
</svg>
