<svg width="228" height="42" viewBox="0 0 228 42" fill="none" xmlns="http://www.w3.org/2000/svg">
<rect x="16" width="196" height="42" fill="#D9D9D9"/>
<path d="M37.5 25.5H36V18H37.5V16.5H46.5V18H39V25.5H43.5V22.5H40.5V21H46.5V27H37.5V25.5ZM48 27V25.5H52.5V21H49.5V19.5H55.5V25.5H58.5V27H48ZM52.5 18V16.5H55.5V18H52.5ZM61.5 22.5H60V19.5H63V22.5H64.5V24H66V22.5H67.5V19.5H70.5V22.5H69V24H67.5V25.5H66V27H64.5V25.5H63V24H61.5V22.5ZM79.5 22.5V21H75V22.5H79.5ZM73.5 25.5H72V21H73.5V19.5H81V21H82.5V24H75V25.5H81V27H73.5V25.5ZM96 21V19.5H99V16.5H105V18H102V19.5H106.5V21H102V27H99V21H96ZM115.5 22.5V21H111V22.5H115.5ZM109.5 25.5H108V21H109.5V19.5H117V21H118.5V24H111V25.5H117V27H109.5V25.5ZM127.5 22.5V21H123V22.5H127.5ZM121.5 25.5H120V21H121.5V19.5H129V21H130.5V24H123V25.5H129V27H121.5V25.5ZM135 25.5H139.5V21H135V25.5ZM133.5 25.5H132V21H133.5V19.5H139.5V16.5H142.5V27H133.5V25.5ZM144 27V16.5H147V19.5H153V21H154.5V25.5H153V27H144ZM147 25.5H151.5V21H147V25.5ZM157.5 25.5H156V24H157.5V22.5H163.5V21H157.5V19.5H165V21H166.5V27H157.5V25.5ZM159 25.5H163.5V24H159V25.5ZM169.5 25.5H168V21H169.5V19.5H177V21H178.5V22.5H175.5V21H171V25.5H175.5V24H178.5V25.5H177V27H169.5V25.5ZM180 27V16.5H183V22.5H186V21H187.5V19.5H190.5V21H189V22.5H187.5V24H189V25.5H190.5V27H187.5V25.5H186V24H183V27H180Z" fill="black"/>
<rect x="212" y="9" width="8" height="8" fill="#C5C5C5"/>
<rect x="212" y="17" width="8" height="8" fill="#D9D9D9"/>
<rect x="212" y="25" width="8" height="8" fill="#C5C5C5"/>
<rect x="220" y="17" width="8" height="8" fill="#C5C5C5"/>
<rect width="8" height="8" transform="matrix(-1 0 0 1 16 9)" fill="#C4C4C4"/>
<rect width="8" height="8" transform="matrix(-1 0 0 1 16 17)" fill="#D9D9D9"/>
<rect width="8" height="8" transform="matrix(-1 0 0 1 16 25)" fill="#C4C4C4"/>
<rect width="8" height="8" transform="matrix(-1 0 0 1 8 17)" fill="#C4C4C4"/>
</svg>
