<svg width="322" height="448" viewBox="0 0 322 448" fill="none" xmlns="http://www.w3.org/2000/svg">
<rect y="112" width="322" height="336" fill="#C8D5DF"/>
<rect y="117" width="322" height="106" fill="#F9F9F9"/>
<rect y="227" width="322" height="106" fill="#F9F9F9"/>
<rect y="339" width="322" height="106" fill="#E6E6E6"/>
<rect x="124" y="53.5" width="73.1249" height="58.4999" fill="#F9F9F9"/>
<path d="M144 72.0001V65.0001H146V71.0001H151V72.0001H144ZM153 71.0001H152V65.0001H154V71.0001H157V65.0001H159V71.0001H158V72.0001H153V71.0001ZM160 72.0001V65.0001H162V66.0001H163V67.0001H164V68.0001H165V65.0001H167V72.0001H165V70.0001H164V69.0001H163V68.0001H162V72.0001H160ZM169 71.0001H168V66.0001H169V65.0001H175V66.0001H170V71.0001H173V69.0001H171V68.0001H175V72.0001H169V71.0001Z" fill="black"/>
<rect x="156.063" y="79.0001" width="9.56249" height="8.99999" fill="#ED1A28"/>
<rect x="156.063" y="88.0001" width="9.56249" height="9.56249" fill="#ED1A28"/>
<rect x="165.625" y="88.0001" width="8.99999" height="9.56249" fill="#ED1A28"/>
<rect x="147.063" y="88.0001" width="8.99999" height="9.56249" fill="#ED1A28"/>
<rect x="156.063" y="97.5626" width="9.56249" height="8.99999" fill="#ED1A28"/>
<rect width="3.1875" height="2.53125" transform="matrix(0 -1 -1 0 197.531 56.1877)" fill="#79DDED"/>
<rect width="3.1875" height="2.53125" transform="matrix(0 -1 -1 0 125.611 56.1873)" fill="#79DDED"/>
<rect x="5" y="112" width="8" height="8" fill="#C8D5DF"/>
<rect x="13" y="112" width="8" height="8" fill="#C8D5DF"/>
<rect x="13" y="120" width="8" height="8" fill="#C8D5DF"/>
<rect x="21" y="112" width="8" height="8" fill="#C8D5DF"/>
<rect x="165" y="112" width="8" height="8" fill="#C8D5DF"/>
<rect x="173" y="112" width="8" height="8" fill="#C8D5DF"/>
<rect x="173" y="120" width="8" height="8" fill="#C8D5DF"/>
<rect x="181" y="112" width="8" height="8" fill="#C8D5DF"/>
<rect x="293" y="112" width="8" height="8" fill="#C8D5DF"/>
<rect x="301" y="112" width="8" height="8" fill="#C8D5DF"/>
<rect x="301" y="120" width="8" height="8" fill="#C8D5DF"/>
<rect x="309" y="112" width="8" height="8" fill="#C8D5DF"/>
<rect x="37" y="112" width="8" height="8" fill="#C8D5DF"/>
<rect x="45" y="112" width="8" height="8" fill="#C8D5DF"/>
<rect x="45" y="120" width="8" height="8" fill="#C8D5DF"/>
<rect x="53" y="112" width="8" height="8" fill="#C8D5DF"/>
<rect x="197" y="112" width="8" height="8" fill="#C8D5DF"/>
<rect x="205" y="112" width="8" height="8" fill="#C8D5DF"/>
<rect x="205" y="120" width="8" height="8" fill="#C8D5DF"/>
<rect x="213" y="112" width="8" height="8" fill="#C8D5DF"/>
<rect x="69" y="112" width="8" height="8" fill="#C8D5DF"/>
<rect x="77" y="112" width="8" height="8" fill="#C8D5DF"/>
<rect x="77" y="120" width="8" height="8" fill="#C8D5DF"/>
<rect x="85" y="112" width="8" height="8" fill="#C8D5DF"/>
<rect x="101" y="112" width="8" height="8" fill="#C8D5DF"/>
<rect x="109" y="112" width="8" height="8" fill="#C8D5DF"/>
<rect x="109" y="120" width="8" height="8" fill="#C8D5DF"/>
<rect x="117" y="112" width="8" height="8" fill="#C8D5DF"/>
<rect x="133" y="112" width="8" height="8" fill="#C8D5DF"/>
<rect x="141" y="112" width="8" height="8" fill="#C8D5DF"/>
<rect x="141" y="120" width="8" height="8" fill="#C8D5DF"/>
<rect x="149" y="112" width="8" height="8" fill="#C8D5DF"/>
<rect x="261" y="112" width="8" height="8" fill="#C8D5DF"/>
<rect x="269" y="112" width="8" height="8" fill="#C8D5DF"/>
<rect x="269" y="120" width="8" height="8" fill="#C8D5DF"/>
<rect x="277" y="112" width="8" height="8" fill="#C8D5DF"/>
<rect x="229" y="112" width="8" height="8" fill="#C8D5DF"/>
<rect x="237" y="112" width="8" height="8" fill="#C8D5DF"/>
<rect x="237" y="120" width="8" height="8" fill="#C8D5DF"/>
<rect x="245" y="112" width="8" height="8" fill="#C8D5DF"/>
<rect width="12.623" height="10.25" transform="matrix(-1 0 0 1 322 404)" fill="#BEC7CE"/>
<rect width="20.082" height="10.25" transform="matrix(-1 0 0 1 322 414.25)" fill="#BEC7CE"/>
<rect width="27.541" height="10.25" transform="matrix(-1 0 0 1 322 424.5)" fill="#BEC7CE"/>
<rect width="6" height="10" transform="matrix(-1 0 0 1 322 394)" fill="#BEC7CE"/>
<rect width="35" height="10.25" transform="matrix(-1 0 0 1 322 434.75)" fill="#BEC7CE"/>
<rect width="12.623" height="2.05" transform="matrix(-1 0 0 1 322 412.2)" fill="#99A0A5"/>
<rect width="12.623" height="2.05" transform="matrix(-1 0 0 1 322 412.2)" fill="#99A0A5"/>
<rect width="12.623" height="2.05" transform="matrix(-1 0 0 1 322 412.2)" fill="#99A0A5"/>
<rect width="12.623" height="2.05" transform="matrix(-1 0 0 1 322 412.2)" fill="#99A0A5"/>
<rect width="20.082" height="2.05" transform="matrix(-1 0 0 1 322 422.45)" fill="#99A0A5"/>
<rect width="20.082" height="2.05" transform="matrix(-1 0 0 1 322 422.45)" fill="#99A0A5"/>
<rect width="20.082" height="2.05" transform="matrix(-1 0 0 1 322 422.45)" fill="#99A0A5"/>
<rect width="20.082" height="2.05" transform="matrix(-1 0 0 1 322 422.45)" fill="#99A0A5"/>
<rect width="27.541" height="2.05" transform="matrix(-1 0 0 1 322 432.7)" fill="#99A0A5"/>
<rect width="27.541" height="2.05" transform="matrix(-1 0 0 1 322 432.7)" fill="#99A0A5"/>
<rect width="27.541" height="2.05" transform="matrix(-1 0 0 1 322 432.7)" fill="#99A0A5"/>
<rect width="27.541" height="2.05" transform="matrix(-1 0 0 1 322 432.7)" fill="#99A0A5"/>
<rect width="6" height="2" transform="matrix(-1 0 0 1 322 402)" fill="#99A0A5"/>
<rect width="6" height="2" transform="matrix(-1 0 0 1 322 402)" fill="#99A0A5"/>
<rect width="6" height="2" transform="matrix(-1 0 0 1 322 402)" fill="#99A0A5"/>
<rect width="6" height="2" transform="matrix(-1 0 0 1 322 402)" fill="#99A0A5"/>
<rect width="322" height="3" transform="matrix(-1 0 0 1 322 338)" fill="#99A0A5"/>
<rect width="322" height="3" transform="matrix(-1 0 0 1 322 338)" fill="#99A0A5"/>
<rect width="322" height="3" transform="matrix(-1 0 0 1 322 338)" fill="#99A0A5"/>
<rect width="322" height="3" transform="matrix(-1 0 0 1 322 338)" fill="#99A0A5"/>
<rect x="25" y="255" width="31" height="52" fill="#D5F9FF" stroke="#C8D5DF" stroke-width="4"/>
<rect x="50" y="257" width="4" height="4" fill="white"/>
<rect x="50" y="257" width="4" height="4" fill="white"/>
<rect x="50" y="257" width="4" height="4" fill="white"/>
<rect x="46" y="259" width="4" height="4" fill="white"/>
<rect x="46" y="259" width="4" height="4" fill="white"/>
<rect x="46" y="259" width="4" height="4" fill="white"/>
<rect x="50" y="261" width="4" height="4" fill="white"/>
<rect x="50" y="261" width="4" height="4" fill="white"/>
<rect x="50" y="261" width="4" height="4" fill="white"/>
<rect x="105" y="255" width="31" height="52" fill="#D5F9FF" stroke="#C8D5DF" stroke-width="4"/>
<rect x="130" y="257" width="4" height="4" fill="white"/>
<rect x="130" y="257" width="4" height="4" fill="white"/>
<rect x="130" y="257" width="4" height="4" fill="white"/>
<rect x="126" y="259" width="4" height="4" fill="white"/>
<rect x="126" y="259" width="4" height="4" fill="white"/>
<rect x="126" y="259" width="4" height="4" fill="white"/>
<rect x="130" y="261" width="4" height="4" fill="white"/>
<rect x="130" y="261" width="4" height="4" fill="white"/>
<rect x="130" y="261" width="4" height="4" fill="white"/>
<rect x="185" y="255" width="31" height="52" fill="#D5F9FF" stroke="#C8D5DF" stroke-width="4"/>
<rect x="210" y="257" width="4" height="4" fill="white"/>
<rect x="210" y="257" width="4" height="4" fill="white"/>
<rect x="210" y="257" width="4" height="4" fill="white"/>
<rect x="206" y="259" width="4" height="4" fill="white"/>
<rect x="206" y="259" width="4" height="4" fill="white"/>
<rect x="206" y="259" width="4" height="4" fill="white"/>
<rect x="210" y="261" width="4" height="4" fill="white"/>
<rect x="210" y="261" width="4" height="4" fill="white"/>
<rect x="210" y="261" width="4" height="4" fill="white"/>
<rect x="265" y="255" width="31" height="52" fill="#D5F9FF" stroke="#C8D5DF" stroke-width="4"/>
<rect x="290" y="257" width="4" height="4" fill="white"/>
<rect x="290" y="257" width="4" height="4" fill="white"/>
<rect x="290" y="257" width="4" height="4" fill="white"/>
<rect x="286" y="259" width="4" height="4" fill="white"/>
<rect x="286" y="259" width="4" height="4" fill="white"/>
<rect x="286" y="259" width="4" height="4" fill="white"/>
<rect x="290" y="261" width="4" height="4" fill="white"/>
<rect x="290" y="261" width="4" height="4" fill="white"/>
<rect x="290" y="261" width="4" height="4" fill="white"/>
<rect x="25" y="150" width="31" height="52" fill="#D5F9FF" stroke="#C8D5DF" stroke-width="4"/>
<rect x="50" y="152" width="4" height="4" fill="white"/>
<rect x="50" y="152" width="4" height="4" fill="white"/>
<rect x="50" y="152" width="4" height="4" fill="white"/>
<rect x="46" y="154" width="4" height="4" fill="white"/>
<rect x="46" y="154" width="4" height="4" fill="white"/>
<rect x="46" y="154" width="4" height="4" fill="white"/>
<rect x="50" y="156" width="4" height="4" fill="white"/>
<rect x="50" y="156" width="4" height="4" fill="white"/>
<rect x="50" y="156" width="4" height="4" fill="white"/>
<rect x="105" y="150" width="31" height="52" fill="#D5F9FF" stroke="#C8D5DF" stroke-width="4"/>
<rect x="130" y="152" width="4" height="4" fill="white"/>
<rect x="130" y="152" width="4" height="4" fill="white"/>
<rect x="130" y="152" width="4" height="4" fill="white"/>
<rect x="126" y="154" width="4" height="4" fill="white"/>
<rect x="126" y="154" width="4" height="4" fill="white"/>
<rect x="126" y="154" width="4" height="4" fill="white"/>
<rect x="130" y="156" width="4" height="4" fill="white"/>
<rect x="130" y="156" width="4" height="4" fill="white"/>
<rect x="130" y="156" width="4" height="4" fill="white"/>
<rect x="185" y="150" width="31" height="52" fill="#D5F9FF" stroke="#C8D5DF" stroke-width="4"/>
<rect x="210" y="152" width="4" height="4" fill="white"/>
<rect x="210" y="152" width="4" height="4" fill="white"/>
<rect x="210" y="152" width="4" height="4" fill="white"/>
<rect x="206" y="154" width="4" height="4" fill="white"/>
<rect x="206" y="154" width="4" height="4" fill="white"/>
<rect x="206" y="154" width="4" height="4" fill="white"/>
<rect x="210" y="156" width="4" height="4" fill="white"/>
<rect x="210" y="156" width="4" height="4" fill="white"/>
<rect x="210" y="156" width="4" height="4" fill="white"/>
<rect x="265" y="150" width="31" height="52" fill="#D5F9FF" stroke="#C8D5DF" stroke-width="4"/>
<rect x="290" y="152" width="4" height="4" fill="white"/>
<rect x="290" y="152" width="4" height="4" fill="white"/>
<rect x="290" y="152" width="4" height="4" fill="white"/>
<rect x="286" y="154" width="4" height="4" fill="white"/>
<rect x="286" y="154" width="4" height="4" fill="white"/>
<rect x="286" y="154" width="4" height="4" fill="white"/>
<rect x="290" y="156" width="4" height="4" fill="white"/>
<rect x="290" y="156" width="4" height="4" fill="white"/>
<rect x="290" y="156" width="4" height="4" fill="white"/>
<rect x="19" y="400" width="26" height="46" fill="#F9F9F9" stroke="#C8D5DF" stroke-width="4"/>
<circle cx="38" cy="423" r="2" fill="#C8D5DF"/>
<path d="M29 414V413H31V408H29V407H33V413H35V414H29Z" fill="black"/>
<rect x="57" y="400" width="26" height="46" fill="#F9F9F9" stroke="#C8D5DF" stroke-width="4"/>
<circle cx="76" cy="423" r="2" fill="#C8D5DF"/>
<path d="M66 414V412H67V411H68V410H70V409H71V408H68V409H66V408H67V407H72V408H73V409H72V410H71V411H69V412H68V413H73V414H66Z" fill="black"/>
<rect x="95" y="400" width="26" height="46" fill="#F9F9F9" stroke="#C8D5DF" stroke-width="4"/>
<circle cx="114" cy="423" r="2" fill="#C8D5DF"/>
<path d="M105 413H104V412H106V413H109V411H106V410H109V408H106V409H104V408H105V407H110V408H111V410H110V411H111V413H110V414H105V413Z" fill="black"/>
<rect x="133" y="400" width="26" height="46" fill="#F9F9F9" stroke="#C8D5DF" stroke-width="4"/>
<circle cx="152" cy="423" r="2" fill="#C8D5DF"/>
<path d="M147 411V408H146V409H145V410H144V411H147ZM142 412V410H143V409H144V408H145V407H149V414H147V412H142Z" fill="black"/>
<rect x="171" y="400" width="26" height="46" fill="#F9F9F9" stroke="#C8D5DF" stroke-width="4"/>
<circle cx="190" cy="423" r="2" fill="#C8D5DF"/>
<path d="M181 413H180V412H182V413H185V410H180V407H187V408H182V409H186V410H187V413H186V414H181V413Z" fill="black"/>
<rect x="209" y="400" width="26" height="46" fill="#F9F9F9" stroke="#C8D5DF" stroke-width="4"/>
<circle cx="228" cy="423" r="2" fill="#C8D5DF"/>
<path d="M220 413H223V411H220V413ZM223 408H220V410H224V411H225V413H224V414H219V413H218V408H219V407H224V408H225V409H223V408Z" fill="black"/>
<rect x="247" y="400" width="26" height="46" fill="#F9F9F9" stroke="#C8D5DF" stroke-width="4"/>
<circle cx="266" cy="423" r="2" fill="#C8D5DF"/>
<path d="M258 409V410H256V408H263V410H262V411H261V412H260V413H259V414H258V415H256V414H257V413H258V412H259V411H260V410H261V409H258Z" fill="black"/>
<rect x="15" y="358" width="61" height="17" fill="#F4F3F3"/>
<path d="M18 370V363H20V369H25V370H18ZM31 367V366H28V367H31ZM27 369H26V366H27V365H32V366H33V368H28V369H32V370H27V369ZM35 367H34V365H36V367H37V368H38V367H39V365H41V367H40V368H39V369H38V370H37V369H36V368H35V367ZM47 367V366H44V367H47ZM43 369H42V366H43V365H48V366H49V368H44V369H48V370H43V369ZM51 368H50V363H52V368H54V369H57V370H53V369H51V368ZM67 370V369H69V364H67V363H71V369H73V370H67Z" fill="black"/>
</svg>
