<svg width="56" height="56" viewBox="0 0 56 56" fill="none" xmlns="http://www.w3.org/2000/svg">
<rect width="56" height="56" fill="#F0F0F0"/>
<rect x="15.1952" y="21.5366" width="27.0732" height="2.19512" fill="#E57381"/>
<rect x="14.7073" y="24.2195" width="24.878" height="2.43902" fill="#E57381"/>
<rect x="17.3901" y="27.1465" width="22.6829" height="2.19512" fill="#E57381"/>
<rect x="17.3901" y="29.8293" width="20.4878" height="2.43902" fill="#E57381"/>
<rect x="20.317" y="32.7561" width="16.8293" height="2.43902" fill="#E57381"/>
<rect x="13.4879" y="23.7319" width="2.19512" height="0.487805" fill="#E57381"/>
<rect x="13.4879" y="24.2195" width="1.21951" height="0.731707" fill="#E57381"/>
<rect x="13.9756" y="24.9512" width="0.731707" height="0.97561" fill="#E57381"/>
<rect x="13.4879" y="23.2437" width="1.70732" height="0.487805" fill="#E57381"/>
<rect x="13.9756" y="22.0244" width="1.21951" height="1.21951" fill="#E57381"/>
<rect x="42.2683" y="21.5366" width="0.487805" height="1.70732" fill="#E57381"/>
<rect x="42.7561" y="21.5366" width="0.487805" height="0.487805" fill="#E57381"/>
<rect x="41.0488" y="20.8049" width="2.19512" height="0.731707" fill="#E57381"/>
<rect x="42.2683" y="20.3174" width="0.97561" height="0.487805" fill="#E57381"/>
<rect x="42.2683" y="19.8291" width="0.487805" height="0.487805" fill="#E57381"/>
<rect x="41.0488" y="19.3416" width="1.21951" height="1.46341" fill="#E57381"/>
<rect x="28.6097" y="18.8538" width="12.439" height="2.19512" fill="#E57381"/>
<rect x="27.6342" y="13" width="2.19512" height="5.85366" fill="#E57381"/>
<rect x="27.6342" y="18.8538" width="0.97561" height="0.487805" fill="#E57381"/>
<rect x="28.1221" y="19.3416" width="0.487805" height="0.97561" fill="#E57381"/>
<rect x="38.8536" y="26.6584" width="2.19512" height="0.487805" fill="#E57381"/>
<rect x="39.5854" y="25.439" width="1.46341" height="1.21951" fill="#E57381"/>
<rect x="40.0731" y="27.1465" width="0.97561" height="1.21951" fill="#E57381"/>
<rect x="39.5854" y="24.9512" width="0.97561" height="0.487805" fill="#E57381"/>
<rect x="40.0731" y="28.366" width="0.487805" height="0.487805" fill="#E57381"/>
<rect x="16.9025" y="27.634" width="0.487805" height="4.14634" fill="#E57381"/>
<rect x="16.4146" y="28.1218" width="0.487805" height="2.43902" fill="#E57381"/>
<rect x="17.3901" y="29.3416" width="1.21951" height="0.487805" fill="#E57381"/>
<rect x="35.9268" y="32.2681" width="1.21951" height="0.487805" fill="#E57381"/>
<rect x="37.1464" y="32.2681" width="1.21951" height="2.19512" fill="#E57381"/>
<rect x="37.8781" y="30.561" width="0.487805" height="1.70732" fill="#E57381"/>
<rect x="38.3657" y="31.5364" width="0.487805" height="1.70732" fill="#E57381"/>
<rect x="19.5853" y="33.488" width="0.731707" height="3.90244" fill="#E57381"/>
<rect x="19.0977" y="33.9756" width="0.487805" height="2.19512" fill="#E57381"/>
<rect x="20.8049" y="35.6831" width="7.80488" height="2.19512" fill="#E57381"/>
<rect x="20.317" y="35.1951" width="0.487805" height="2.19512" fill="#E57381"/>
<rect x="20.8049" y="35.1951" width="1.21951" height="0.487805" fill="#E57381"/>
<rect x="27.6342" y="37.8779" width="2.19512" height="5.12195" fill="#E57381"/>
<rect x="28.6097" y="36.1709" width="0.731707" height="1.70732" fill="#E57381"/>
<rect x="29.3414" y="36.6584" width="0.487805" height="1.21951" fill="#E57381"/>
<rect x="27.1462" y="13" width="0.487805" height="6.34146" fill="#CC4F5B"/>
<rect x="29.8293" y="13" width="0.487805" height="5.36585" fill="#CC4F5B"/>
<rect x="29.8293" y="18.3657" width="11.2195" height="0.487805" fill="#CC4F5B"/>
<rect x="27.6342" y="19.3416" width="0.487805" height="0.97561" fill="#CC4F5B"/>
<rect x="28.1221" y="20.3174" width="0.487805" height="0.731707" fill="#CC4F5B"/>
<rect x="15.1952" y="21.0486" width="25.8537" height="0.487805" fill="#CC4F5B"/>
<rect x="41.0488" y="18.8538" width="1.21951" height="0.487805" fill="#CC4F5B"/>
<rect x="42.2683" y="19.3416" width="0.97561" height="0.487805" fill="#CC4F5B"/>
<rect x="42.7561" y="19.8291" width="0.487805" height="0.487805" fill="#CC4F5B"/>
<rect x="43.2438" y="20.3174" width="0.487805" height="2.19512" fill="#CC4F5B"/>
<rect x="42.7561" y="22.0244" width="0.487805" height="1.70732" fill="#CC4F5B"/>
<rect x="42.2683" y="23.2437" width="0.487805" height="0.487805" fill="#CC4F5B"/>
<rect x="15.6829" y="23.7319" width="26.5854" height="0.487805" fill="#CC4F5B"/>
<rect x="13.9756" y="21.5366" width="1.21951" height="0.487805" fill="#CC4F5B"/>
<rect x="13.4879" y="22.0244" width="0.487805" height="1.21951" fill="#CC4F5B"/>
<rect x="13" y="23.2437" width="0.487805" height="1.70732" fill="#CC4F5B"/>
<rect x="13.4879" y="24.9512" width="0.487805" height="1.21951" fill="#CC4F5B"/>
<rect x="13.9756" y="25.9265" width="0.731707" height="0.731707" fill="#CC4F5B"/>
<rect x="14.7073" y="26.6584" width="24.1463" height="0.487805" fill="#CC4F5B"/>
<rect x="16.9025" y="27.1465" width="0.487805" height="0.487805" fill="#CC4F5B"/>
<rect x="16.4146" y="27.634" width="0.487805" height="0.487805" fill="#CC4F5B"/>
<rect x="15.9269" y="28.1218" width="0.487805" height="2.92683" fill="#CC4F5B"/>
<rect x="16.4146" y="30.561" width="0.487805" height="1.21951" fill="#CC4F5B"/>
<rect x="16.9025" y="31.7805" width="0.487805" height="0.487805" fill="#CC4F5B"/>
<rect x="18.6097" y="29.3416" width="21.4634" height="0.487805" fill="#CC4F5B"/>
<rect x="40.0731" y="28.8535" width="0.487805" height="0.487805" fill="#CC4F5B"/>
<rect x="40.5609" y="28.366" width="0.487805" height="0.487805" fill="#CC4F5B"/>
<rect x="41.0488" y="25.439" width="0.487805" height="2.92683" fill="#CC4F5B"/>
<rect x="40.5609" y="24.9512" width="0.487805" height="0.487805" fill="#CC4F5B"/>
<rect x="39.5854" y="24.2195" width="0.97561" height="0.731707" fill="#CC4F5B"/>
<rect x="37.8781" y="29.8293" width="0.487805" height="0.731707" fill="#CC4F5B"/>
<rect x="38.3657" y="30.561" width="0.487805" height="0.97561" fill="#CC4F5B"/>
<rect x="38.8536" y="31.7805" width="0.487805" height="1.46341" fill="#CC4F5B"/>
<rect x="38.3657" y="33.2439" width="0.487805" height="1.21951" fill="#CC4F5B"/>
<rect x="37.1464" y="34.4634" width="1.21951" height="0.487805" fill="#CC4F5B"/>
<rect x="22.0244" y="35.1951" width="15.122" height="0.487805" fill="#CC4F5B"/>
<rect x="17.3901" y="32.2681" width="18.5366" height="0.487805" fill="#CC4F5B"/>
<rect x="19.5853" y="32.7561" width="0.731707" height="0.731707" fill="#CC4F5B"/>
<rect x="19.0977" y="33.488" width="0.487805" height="0.487805" fill="#CC4F5B"/>
<rect x="18.6097" y="33.9756" width="0.487805" height="2.68293" fill="#CC4F5B"/>
<rect x="19.0977" y="36.1709" width="0.487805" height="1.21951" fill="#CC4F5B"/>
<rect x="19.5853" y="37.3901" width="1.21951" height="0.487805" fill="#CC4F5B"/>
<rect x="20.8049" y="37.8779" width="6.82927" height="0.487805" fill="#CC4F5B"/>
<rect x="28.6097" y="35.6831" width="0.731707" height="0.487805" fill="#CC4F5B"/>
<rect x="29.3414" y="36.1709" width="0.487805" height="0.487805" fill="#CC4F5B"/>
<rect x="29.8293" y="36.6584" width="0.487805" height="6.34146" fill="#CC4F5B"/>
<rect x="27.1462" y="38.366" width="0.487805" height="4.63415" fill="#CC4F5B"/>
</svg>
