<svg width="56" height="56" viewBox="0 0 56 56" fill="none" xmlns="http://www.w3.org/2000/svg">
<rect width="56" height="56" fill="#F0F0F0"/>
<rect x="12.1825" y="19" width="3.34697" height="3.34697" fill="#F9C885"/>
<rect x="10.5092" y="19.8369" width="3.34697" height="3.34697" fill="#F9C885"/>
<rect x="8.83582" y="21.5105" width="3.34697" height="3.34697" fill="#F9C885"/>
<rect x="7.41785" y="24.6709" width="3.34697" height="3.34697" fill="#F9C885"/>
<rect x="7.41785" y="27.5068" width="3.34697" height="3.34697" fill="#F9C885"/>
<rect x="7.41785" y="28.9246" width="3.34697" height="3.34697" fill="#F9C885"/>
<rect x="12.1825" y="21.5105" width="9.20417" height="3.34697" fill="#F9C885"/>
<rect x="15.5293" y="19" width="3.34697" height="3.34697" fill="#F9C885"/>
<rect x="17.203" y="19" width="3.34697" height="3.34697" fill="#F9C885"/>
<rect x="18.8766" y="19.8369" width="3.34697" height="3.34697" fill="#F9C885"/>
<rect x="20.55" y="21.5105" width="3.34697" height="3.34697" fill="#E2AD61"/>
<rect x="8.83582" y="24.8579" width="3.34697" height="3.34697" fill="#F9C885"/>
<rect x="11.6713" y="24.6709" width="8.50689" height="2.83563" fill="#F9C885"/>
<rect x="18.7604" y="24.6709" width="3.34697" height="3.34697" fill="#E2AD61"/>
<rect x="8.83582" y="28.2041" width="3.34697" height="3.34697" fill="#F9C885"/>
<rect x="11.6713" y="27.5068" width="7.08907" height="4.25344" fill="#F9C885"/>
<rect x="17.3425" y="27.5068" width="3.34697" height="3.34697" fill="#E2AD61"/>
<rect x="17.3425" y="30.3425" width="3.34697" height="3.34697" fill="#E2AD61"/>
<rect x="17.3425" y="26.0889" width="3.34697" height="3.34697" fill="#E2AD61"/>
<rect x="8.83582" y="31.5513" width="3.34697" height="3.34697" fill="#F9C885"/>
<rect x="12.1825" y="31.5513" width="6.69394" height="3.34697" fill="#F9C885"/>
<rect x="8.83582" y="33.2244" width="3.34697" height="3.34697" fill="#F9C885"/>
<rect x="10.5092" y="34.0618" width="5.02046" height="3.34697" fill="#F9C885"/>
<rect x="11.6713" y="33.1782" width="7.08907" height="4.25344" fill="#F9C885"/>
<rect x="17.3425" y="33.1782" width="3.34697" height="3.34697" fill="#E2AD61"/>
<rect x="8.83582" y="33.1782" width="3.34697" height="3.34697" fill="#E2AD61"/>
<rect x="7.41785" y="30.3425" width="3.34697" height="3.34697" fill="#E2AD61"/>
<rect x="6" y="27.5068" width="3.34697" height="3.34697" fill="#E2AD61"/>
<rect x="10.2534" y="34.5957" width="3.34697" height="3.34697" fill="#E2AD61"/>
<rect x="13.0891" y="34.5957" width="3.34697" height="3.34697" fill="#E2AD61"/>
<rect width="3.34697" height="3.34697" transform="matrix(-1 0 0 1 41.8175 19)" fill="#F9C885"/>
<rect width="3.34697" height="3.34697" transform="matrix(-1 0 0 1 43.4908 19.8369)" fill="#F9C885"/>
<rect width="3.34697" height="3.34697" transform="matrix(-1 0 0 1 45.1646 21.5105)" fill="#F9C885"/>
<rect width="3.34697" height="3.34697" transform="matrix(-1 0 0 1 46.5822 24.6709)" fill="#F9C885"/>
<rect width="3.34697" height="3.34697" transform="matrix(-1 0 0 1 46.5822 27.5068)" fill="#F9C885"/>
<rect width="3.34697" height="3.34697" transform="matrix(-1 0 0 1 46.5822 28.9246)" fill="#F9C885"/>
<rect width="9.20417" height="3.34697" transform="matrix(-1 0 0 1 41.8175 21.5105)" fill="#F9C885"/>
<rect width="3.34697" height="3.34697" transform="matrix(-1 0 0 1 38.4707 19)" fill="#F9C885"/>
<rect width="3.34697" height="3.34697" transform="matrix(-1 0 0 1 36.797 19)" fill="#F9C885"/>
<rect width="3.34697" height="3.34697" transform="matrix(-1 0 0 1 35.1234 19.8369)" fill="#F9C885"/>
<rect width="3.34697" height="3.34697" transform="matrix(-1 0 0 1 33.45 21.5105)" fill="#E2AD61"/>
<rect width="3.34697" height="3.34697" transform="matrix(-1 0 0 1 45.1646 24.8579)" fill="#F9C885"/>
<rect width="8.50689" height="2.83563" transform="matrix(-1 0 0 1 42.3287 24.6709)" fill="#F9C885"/>
<rect width="3.34697" height="3.34697" transform="matrix(-1 0 0 1 35.2396 24.6709)" fill="#E2AD61"/>
<rect width="3.34697" height="3.34697" transform="matrix(-1 0 0 1 45.1646 28.2041)" fill="#F9C885"/>
<rect width="7.08907" height="4.25344" transform="matrix(-1 0 0 1 42.3287 27.5068)" fill="#F9C885"/>
<rect width="3.34697" height="3.34697" transform="matrix(-1 0 0 1 36.6575 27.5068)" fill="#E2AD61"/>
<rect width="3.34697" height="3.34697" transform="matrix(-1 0 0 1 36.6575 30.3425)" fill="#E2AD61"/>
<rect width="3.34697" height="3.34697" transform="matrix(-1 0 0 1 36.6575 26.0889)" fill="#E2AD61"/>
<rect width="3.34697" height="3.34697" transform="matrix(-1 0 0 1 45.1646 31.5513)" fill="#F9C885"/>
<rect width="6.69394" height="3.34697" transform="matrix(-1 0 0 1 41.8175 31.5513)" fill="#F9C885"/>
<rect width="3.34697" height="3.34697" transform="matrix(-1 0 0 1 45.1646 33.2244)" fill="#F9C885"/>
<rect width="5.02046" height="3.34697" transform="matrix(-1 0 0 1 43.4908 34.0618)" fill="#F9C885"/>
<rect width="7.08907" height="4.25344" transform="matrix(-1 0 0 1 42.3287 33.1782)" fill="#F9C885"/>
<rect width="3.34697" height="3.34697" transform="matrix(-1 0 0 1 36.6575 33.1782)" fill="#E2AD61"/>
<rect width="3.34697" height="3.34697" transform="matrix(-1 0 0 1 45.1646 33.1782)" fill="#E2AD61"/>
<rect width="3.34697" height="3.34697" transform="matrix(-1 0 0 1 46.5822 30.3425)" fill="#E2AD61"/>
<rect width="3.34697" height="3.34697" transform="matrix(-1 0 0 1 48 27.5068)" fill="#E2AD61"/>
<rect width="3.34697" height="3.34697" transform="matrix(-1 0 0 1 43.7466 34.5957)" fill="#E2AD61"/>
<rect width="3.34697" height="3.34697" transform="matrix(-1 0 0 1 40.9109 34.5957)" fill="#E2AD61"/>
</svg>
