<svg width="56" height="56" viewBox="0 0 56 56" fill="none" xmlns="http://www.w3.org/2000/svg">
<rect width="56" height="56" fill="#F0F0F0"/>
<rect x="11.3889" y="24.5557" width="0.777778" height="19.4444" fill="#C54651"/>
<rect x="11" y="26.1111" width="0.777778" height="8.55556" fill="#C54651"/>
<rect x="12.1666" y="23" width="0.777778" height="21" fill="#C54651"/>
<rect x="12.9445" y="21.4443" width="0.777778" height="22.5556" fill="#C54651"/>
<rect x="13.7222" y="20.6667" width="0.777778" height="23.3333" fill="#C54651"/>
<rect x="14.5" y="19.8889" width="0.777778" height="24.1111" fill="#C54651"/>
<rect x="15.2778" y="19.1111" width="0.777778" height="24.1111" fill="#C54651"/>
<rect x="16.0555" y="18.3333" width="0.777778" height="24.1111" fill="#C54651"/>
<rect x="16.8334" y="18.3333" width="0.777778" height="19.4444" fill="#C54651"/>
<rect x="17.6111" y="17.5557" width="0.777778" height="19.4444" fill="#C54651"/>
<rect x="18.3889" y="17.5557" width="0.777778" height="18.6667" fill="#C54651"/>
<rect x="19.1666" y="16.7778" width="0.777778" height="19.4444" fill="#C54651"/>
<rect x="19.9445" y="16.7778" width="0.777778" height="18.6667" fill="#C54651"/>
<rect x="24.6111" y="16" width="0.777778" height="19.4444" fill="#C54651"/>
<rect x="20.7222" y="16.7778" width="0.777778" height="18.6667" fill="#C54651"/>
<rect x="25.3889" y="16" width="0.777778" height="19.4444" fill="#C54651"/>
<rect x="26.1666" y="16.7778" width="0.777778" height="18.6667" fill="#C54651"/>
<rect x="26.9445" y="16.7778" width="0.777778" height="17.8889" fill="#C54651"/>
<rect x="27.7222" y="17.5557" width="0.777778" height="16.3333" fill="#C54651"/>
<rect x="28.5" y="18.3333" width="0.777778" height="15.5556" fill="#C54651"/>
<rect x="29.2778" y="19.8889" width="0.777778" height="13.2222" fill="#C54651"/>
<rect x="30.0555" y="22.2222" width="0.777778" height="10.1111" fill="#C54651"/>
<rect x="31.2222" y="16.7778" width="0.777778" height="7" fill="#C54651"/>
<rect x="31.6111" y="16.7778" width="0.777778" height="8.55556" fill="#C54651"/>
<rect x="32.3889" y="16" width="0.777778" height="14" fill="#C54651"/>
<rect x="33.1666" y="16" width="0.777778" height="14" fill="#C54651"/>
<rect x="33.9445" y="16" width="0.777778" height="13.2222" fill="#C54651"/>
<rect x="34.7222" y="16" width="0.777778" height="12.4444" fill="#C54651"/>
<rect x="35.5" y="16" width="0.777778" height="11.6667" fill="#C54651"/>
<rect x="36.2778" y="16" width="0.777778" height="11.6667" fill="#C54651"/>
<rect x="37.0555" y="16" width="0.777778" height="10.8889" fill="#C54651"/>
<rect x="37.8334" y="16" width="0.777778" height="10.1111" fill="#C54651"/>
<rect x="38.6111" y="16" width="0.777778" height="8.55556" fill="#C54651"/>
<rect x="39.3889" y="16" width="0.777778" height="7.77778" fill="#C54651"/>
<rect x="40.1666" y="16" width="0.777778" height="7" fill="#C54651"/>
<rect x="40.9445" y="16" width="0.777778" height="6.22222" fill="#C54651"/>
<rect x="41.7222" y="16" width="0.777778" height="6.22222" fill="#C54651"/>
<rect x="42.5" y="16" width="0.777778" height="5.44444" fill="#C54651"/>
<rect x="43.2778" y="16" width="0.777778" height="4.66667" fill="#C54651"/>
<rect x="44.0555" y="16" width="0.777778" height="4.66667" fill="#C54651"/>
<rect x="44.8334" y="16" width="0.777778" height="3.88889" fill="#C54651"/>
<rect x="45.6111" y="16" width="0.777778" height="3.11111" fill="#C54651"/>
<rect x="46.3889" y="16" width="0.777778" height="2.33333" fill="#C54651"/>
<rect x="46.7778" y="16.3889" width="0.777778" height="1.55556" fill="#C54651"/>
<rect x="21.5" y="16" width="3.11111" height="18.6667" fill="#C54651"/>
<rect x="17.6111" y="38.5557" width="0.777778" height="2.33333" fill="#C54651"/>
<rect x="18.3889" y="37.7778" width="0.777778" height="3.88889" fill="#C54651"/>
<rect x="19.1666" y="37" width="0.777778" height="4.66667" fill="#C54651"/>
<rect x="19.9445" y="37" width="0.777778" height="5.44444" fill="#C54651"/>
<rect x="20.7222" y="36.2222" width="0.777778" height="5.44444" fill="#C54651"/>
<rect x="21.5" y="36.2222" width="0.777778" height="4.66667" fill="#C54651"/>
<rect x="22.2778" y="36.2222" width="0.777778" height="2.33333" fill="#C54651"/>
<rect x="23.0555" y="36.2222" width="0.777778" height="1.55556" fill="#C54651"/>
<rect x="23.4445" y="36.6111" width="0.777778" height="1.16667" fill="#C54651"/>
<rect x="34.3334" y="18.3333" width="0.777778" height="2.33333" fill="#A32635"/>
<rect x="35.1111" y="18.3333" width="0.777778" height="3.11111" fill="#A32635"/>
<rect x="35.8889" y="18.3333" width="0.777778" height="3.11111" fill="#A32635"/>
<rect x="36.6666" y="18.3333" width="0.777778" height="2.33333" fill="#A32635"/>
<rect x="37.4445" y="18.3333" width="0.777778" height="1.55556" fill="#A32635"/>
<rect x="38.2222" y="18.3333" width="0.777778" height="1.55556" fill="#A32635"/>
<rect x="39" y="18.3333" width="0.777778" height="0.777778" fill="#A32635"/>
<rect x="15.6666" y="23.7778" width="0.777778" height="4.66667" fill="#A32635"/>
<rect x="16.4445" y="23" width="0.777778" height="5.44444" fill="#A32635"/>
<rect width="0.777778" height="6.22222" transform="matrix(-1 0 0 1 18 21.4443)" fill="#A32635"/>
<rect width="0.777778" height="6.22222" transform="matrix(-1 0 0 1 18.7778 20.6667)" fill="#A32635"/>
<rect width="0.777778" height="3.88889" transform="matrix(-1 0 0 1 19.5555 20.6667)" fill="#A32635"/>
<rect width="0.777778" height="3.88889" transform="matrix(-1 0 0 1 20.3334 19.8889)" fill="#A32635"/>
<rect width="0.777778" height="3.11111" transform="matrix(-1 0 0 1 21.1111 19.8889)" fill="#A32635"/>
<rect width="0.777778" height="3.11111" transform="matrix(-1 0 0 1 21.8889 19.1111)" fill="#A32635"/>
<rect width="0.777778" height="2.33333" transform="matrix(-1 0 0 1 22.6666 19.8889)" fill="#A32635"/>
<rect width="0.777778" height="2.33333" transform="matrix(-1 0 0 1 23.4445 19.8889)" fill="#A32635"/>
<rect width="0.777778" height="1.55556" transform="matrix(-1 0 0 1 24.2222 19.8889)" fill="#A32635"/>
</svg>
