<svg width="268" height="42" viewBox="0 0 268 42" fill="none" xmlns="http://www.w3.org/2000/svg">
<rect x="18.8" width="230.3" height="42" fill="#ED1A28"/>
<path d="M85.9501 27V16.5H88.9501V25.5H96.4501V27H85.9501ZM99.4501 25.5H97.9501V21H99.4501V19.5H106.95V21H108.45V25.5H106.95V27H99.4501V25.5ZM105.45 21H100.95V25.5H105.45V21ZM117.45 22.5V21H112.95V22.5H117.45ZM111.45 22.5H109.95V21H111.45V19.5H120.45V25.5H118.95V27H111.45V25.5H117.45V24H111.45V22.5ZM121.95 27V25.5H126.45V21H123.45V19.5H129.45V25.5H132.45V27H121.95ZM126.45 18V16.5H129.45V18H126.45ZM133.95 27V19.5H142.95V21H144.45V27H141.45V21H136.95V27H133.95ZM157.95 27V25.5H162.45V21H159.45V19.5H165.45V25.5H168.45V27H157.95ZM162.45 18V16.5H165.45V18H162.45ZM169.95 27V19.5H178.95V21H180.45V27H177.45V21H172.95V27H169.95Z" fill="white"/>
<rect x="249.1" y="9" width="9.4" height="8" fill="#971F27"/>
<rect x="249.1" y="17" width="9.4" height="8" fill="#ED1A28"/>
<rect x="249.1" y="25" width="9.4" height="8" fill="#971F27"/>
<rect x="258.5" y="17" width="9.4" height="8" fill="#971F27"/>
<rect width="9.4" height="8" transform="matrix(-1 0 0 1 18.8 9)" fill="#971F27"/>
<rect width="9.4" height="8" transform="matrix(-1 0 0 1 18.8 17)" fill="#ED1A28"/>
<rect width="9.4" height="8" transform="matrix(-1 0 0 1 18.8 25)" fill="#971F27"/>
<rect width="9.4" height="8" transform="matrix(-1 0 0 1 9.40002 17)" fill="#971F27"/>
</svg>
