<svg width="250" height="88" viewBox="0 0 250 88" fill="none" xmlns="http://www.w3.org/2000/svg">
<path d="M21.5 31.5H17V9H21.5V4.5H44V9H48.5V13.5H39.5V9H26V31.5H39.5V27H48.5V31.5H44V36H21.5V31.5ZM75.5 22.5V13.5H71V9H66.5V13.5H62V22.5H75.5ZM53 36V13.5H57.5V9H62V4.5H75.5V9H80V13.5H84.5V36H75.5V27H62V36H53ZM89 36V4.5H98V9H102.5V13.5H107V18H111.5V4.5H120.5V36H111.5V27H107V22.5H102.5V18H98V36H89ZM129.5 31.5H125V9H129.5V4.5H152V9H156.5V13.5H147.5V9H134V31.5H147.5V27H156.5V31.5H152V36H129.5V31.5ZM161 36V4.5H192.5V9H170V18H183.5V22.5H170V31.5H192.5V36H161ZM197 36V4.5H224V9H228.5V18H224V22.5H219.5V27H224V31.5H228.5V36H219.5V31.5H215V27H210.5V22.5H206V36H197ZM206 18H219.5V9H206V18Z" fill="#B4FAFC"/>
<path d="M21.5 31.5H22.5V30.5H21.5V31.5ZM17 31.5H16V32.5H17V31.5ZM17 9V8H16V9H17ZM21.5 9V10H22.5V9H21.5ZM21.5 4.5V3.5H20.5V4.5H21.5ZM44 4.5H45V3.5H44V4.5ZM44 9H43V10H44V9ZM48.5 9H49.5V8H48.5V9ZM48.5 13.5V14.5H49.5V13.5H48.5ZM39.5 13.5H38.5V14.5H39.5V13.5ZM39.5 9H40.5V8H39.5V9ZM26 9V8H25V9H26ZM26 31.5H25V32.5H26V31.5ZM39.5 31.5V32.5H40.5V31.5H39.5ZM39.5 27V26H38.5V27H39.5ZM48.5 27H49.5V26H48.5V27ZM48.5 31.5V32.5H49.5V31.5H48.5ZM44 31.5V30.5H43V31.5H44ZM44 36V37H45V36H44ZM21.5 36H20.5V37H21.5V36ZM21.5 30.5H17V32.5H21.5V30.5ZM18 31.5V9H16V31.5H18ZM17 10H21.5V8H17V10ZM22.5 9V4.5H20.5V9H22.5ZM21.5 5.5H44V3.5H21.5V5.5ZM43 4.5V9H45V4.5H43ZM44 10H48.5V8H44V10ZM47.5 9V13.5H49.5V9H47.5ZM48.5 12.5H39.5V14.5H48.5V12.5ZM40.5 13.5V9H38.5V13.5H40.5ZM39.5 8H26V10H39.5V8ZM25 9V31.5H27V9H25ZM26 32.5H39.5V30.5H26V32.5ZM40.5 31.5V27H38.5V31.5H40.5ZM39.5 28H48.5V26H39.5V28ZM47.5 27V31.5H49.5V27H47.5ZM48.5 30.5H44V32.5H48.5V30.5ZM43 31.5V36H45V31.5H43ZM44 35H21.5V37H44V35ZM22.5 36V31.5H20.5V36H22.5ZM75.5 22.5V23.5H76.5V22.5H75.5ZM75.5 13.5H76.5V12.5H75.5V13.5ZM71 13.5H70V14.5H71V13.5ZM71 9H72V8H71V9ZM66.5 9V8H65.5V9H66.5ZM66.5 13.5V14.5H67.5V13.5H66.5ZM62 13.5V12.5H61V13.5H62ZM62 22.5H61V23.5H62V22.5ZM53 36H52V37H53V36ZM53 13.5V12.5H52V13.5H53ZM57.5 13.5V14.5H58.5V13.5H57.5ZM57.5 9V8H56.5V9H57.5ZM62 9V10H63V9H62ZM62 4.5V3.5H61V4.5H62ZM75.5 4.5H76.5V3.5H75.5V4.5ZM75.5 9H74.5V10H75.5V9ZM80 9H81V8H80V9ZM80 13.5H79V14.5H80V13.5ZM84.5 13.5H85.5V12.5H84.5V13.5ZM84.5 36V37H85.5V36H84.5ZM75.5 36H74.5V37H75.5V36ZM75.5 27H76.5V26H75.5V27ZM62 27V26H61V27H62ZM62 36V37H63V36H62ZM76.5 22.5V13.5H74.5V22.5H76.5ZM75.5 12.5H71V14.5H75.5V12.5ZM72 13.5V9H70V13.5H72ZM71 8H66.5V10H71V8ZM65.5 9V13.5H67.5V9H65.5ZM66.5 12.5H62V14.5H66.5V12.5ZM61 13.5V22.5H63V13.5H61ZM62 23.5H75.5V21.5H62V23.5ZM54 36V13.5H52V36H54ZM53 14.5H57.5V12.5H53V14.5ZM58.5 13.5V9H56.5V13.5H58.5ZM57.5 10H62V8H57.5V10ZM63 9V4.5H61V9H63ZM62 5.5H75.5V3.5H62V5.5ZM74.5 4.5V9H76.5V4.5H74.5ZM75.5 10H80V8H75.5V10ZM79 9V13.5H81V9H79ZM80 14.5H84.5V12.5H80V14.5ZM83.5 13.5V36H85.5V13.5H83.5ZM84.5 35H75.5V37H84.5V35ZM76.5 36V27H74.5V36H76.5ZM75.5 26H62V28H75.5V26ZM61 27V36H63V27H61ZM62 35H53V37H62V35ZM89 36H88V37H89V36ZM89 4.5V3.5H88V4.5H89ZM98 4.5H99V3.5H98V4.5ZM98 9H97V10H98V9ZM102.5 9H103.5V8H102.5V9ZM102.5 13.5H101.5V14.5H102.5V13.5ZM107 13.5H108V12.5H107V13.5ZM107 18H106V19H107V18ZM111.5 18V19H112.5V18H111.5ZM111.5 4.5V3.5H110.5V4.5H111.5ZM120.5 4.5H121.5V3.5H120.5V4.5ZM120.5 36V37H121.5V36H120.5ZM111.5 36H110.5V37H111.5V36ZM111.5 27H112.5V26H111.5V27ZM107 27H106V28H107V27ZM107 22.5H108V21.5H107V22.5ZM102.5 22.5H101.5V23.5H102.5V22.5ZM102.5 18H103.5V17H102.5V18ZM98 18V17H97V18H98ZM98 36V37H99V36H98ZM90 36V4.5H88V36H90ZM89 5.5H98V3.5H89V5.5ZM97 4.5V9H99V4.5H97ZM98 10H102.5V8H98V10ZM101.5 9V13.5H103.5V9H101.5ZM102.5 14.5H107V12.5H102.5V14.5ZM106 13.5V18H108V13.5H106ZM107 19H111.5V17H107V19ZM112.5 18V4.5H110.5V18H112.5ZM111.5 5.5H120.5V3.5H111.5V5.5ZM119.5 4.5V36H121.5V4.5H119.5ZM120.5 35H111.5V37H120.5V35ZM112.5 36V27H110.5V36H112.5ZM111.5 26H107V28H111.5V26ZM108 27V22.5H106V27H108ZM107 21.5H102.5V23.5H107V21.5ZM103.5 22.5V18H101.5V22.5H103.5ZM102.5 17H98V19H102.5V17ZM97 18V36H99V18H97ZM98 35H89V37H98V35ZM129.5 31.5H130.5V30.5H129.5V31.5ZM125 31.5H124V32.5H125V31.5ZM125 9V8H124V9H125ZM129.5 9V10H130.5V9H129.5ZM129.5 4.5V3.5H128.5V4.5H129.5ZM152 4.5H153V3.5H152V4.5ZM152 9H151V10H152V9ZM156.5 9H157.5V8H156.5V9ZM156.5 13.5V14.5H157.5V13.5H156.5ZM147.5 13.5H146.5V14.5H147.5V13.5ZM147.5 9H148.5V8H147.5V9ZM134 9V8H133V9H134ZM134 31.5H133V32.5H134V31.5ZM147.5 31.5V32.5H148.5V31.5H147.5ZM147.5 27V26H146.5V27H147.5ZM156.5 27H157.5V26H156.5V27ZM156.5 31.5V32.5H157.5V31.5H156.5ZM152 31.5V30.5H151V31.5H152ZM152 36V37H153V36H152ZM129.5 36H128.5V37H129.5V36ZM129.5 30.5H125V32.5H129.5V30.5ZM126 31.5V9H124V31.5H126ZM125 10H129.5V8H125V10ZM130.5 9V4.5H128.5V9H130.5ZM129.5 5.5H152V3.5H129.5V5.5ZM151 4.5V9H153V4.5H151ZM152 10H156.5V8H152V10ZM155.5 9V13.5H157.5V9H155.5ZM156.5 12.5H147.5V14.5H156.5V12.5ZM148.5 13.5V9H146.5V13.5H148.5ZM147.5 8H134V10H147.5V8ZM133 9V31.5H135V9H133ZM134 32.5H147.5V30.5H134V32.5ZM148.5 31.5V27H146.5V31.5H148.5ZM147.5 28H156.5V26H147.5V28ZM155.5 27V31.5H157.5V27H155.5ZM156.5 30.5H152V32.5H156.5V30.5ZM151 31.5V36H153V31.5H151ZM152 35H129.5V37H152V35ZM130.5 36V31.5H128.5V36H130.5ZM161 36H160V37H161V36ZM161 4.5V3.5H160V4.5H161ZM192.5 4.5H193.5V3.5H192.5V4.5ZM192.5 9V10H193.5V9H192.5ZM170 9V8H169V9H170ZM170 18H169V19H170V18ZM183.5 18H184.5V17H183.5V18ZM183.5 22.5V23.5H184.5V22.5H183.5ZM170 22.5V21.5H169V22.5H170ZM170 31.5H169V32.5H170V31.5ZM192.5 31.5H193.5V30.5H192.5V31.5ZM192.5 36V37H193.5V36H192.5ZM162 36V4.5H160V36H162ZM161 5.5H192.5V3.5H161V5.5ZM191.5 4.5V9H193.5V4.5H191.5ZM192.5 8H170V10H192.5V8ZM169 9V18H171V9H169ZM170 19H183.5V17H170V19ZM182.5 18V22.5H184.5V18H182.5ZM183.5 21.5H170V23.5H183.5V21.5ZM169 22.5V31.5H171V22.5H169ZM170 32.5H192.5V30.5H170V32.5ZM191.5 31.5V36H193.5V31.5H191.5ZM192.5 35H161V37H192.5V35ZM197 36H196V37H197V36ZM197 4.5V3.5H196V4.5H197ZM224 4.5H225V3.5H224V4.5ZM224 9H223V10H224V9ZM228.5 9H229.5V8H228.5V9ZM228.5 18V19H229.5V18H228.5ZM224 18V17H223V18H224ZM224 22.5V23.5H225V22.5H224ZM219.5 22.5V21.5H218.5V22.5H219.5ZM219.5 27H218.5V28H219.5V27ZM224 27H225V26H224V27ZM224 31.5H223V32.5H224V31.5ZM228.5 31.5H229.5V30.5H228.5V31.5ZM228.5 36V37H229.5V36H228.5ZM219.5 36H218.5V37H219.5V36ZM219.5 31.5H220.5V30.5H219.5V31.5ZM215 31.5H214V32.5H215V31.5ZM215 27H216V26H215V27ZM210.5 27H209.5V28H210.5V27ZM210.5 22.5H211.5V21.5H210.5V22.5ZM206 22.5V21.5H205V22.5H206ZM206 36V37H207V36H206ZM206 18H205V19H206V18ZM219.5 18V19H220.5V18H219.5ZM219.5 9H220.5V8H219.5V9ZM206 9V8H205V9H206ZM198 36V4.5H196V36H198ZM197 5.5H224V3.5H197V5.5ZM223 4.5V9H225V4.5H223ZM224 10H228.5V8H224V10ZM227.5 9V18H229.5V9H227.5ZM228.5 17H224V19H228.5V17ZM223 18V22.5H225V18H223ZM224 21.5H219.5V23.5H224V21.5ZM218.5 22.5V27H220.5V22.5H218.5ZM219.5 28H224V26H219.5V28ZM223 27V31.5H225V27H223ZM224 32.5H228.5V30.5H224V32.5ZM227.5 31.5V36H229.5V31.5H227.5ZM228.5 35H219.5V37H228.5V35ZM220.5 36V31.5H218.5V36H220.5ZM219.5 30.5H215V32.5H219.5V30.5ZM216 31.5V27H214V31.5H216ZM215 26H210.5V28H215V26ZM211.5 27V22.5H209.5V27H211.5ZM210.5 21.5H206V23.5H210.5V21.5ZM205 22.5V36H207V22.5H205ZM206 35H197V37H206V35ZM206 19H219.5V17H206V19ZM220.5 18V9H218.5V18H220.5ZM219.5 8H206V10H219.5V8ZM205 9V18H207V9H205Z" fill="black"/>
<path d="M39.5 81.5H35V59H39.5V54.5H62V59H66.5V63.5H57.5V59H44V81.5H57.5V77H66.5V81.5H62V86H39.5V81.5ZM71 86V54.5H98V59H102.5V68H98V72.5H93.5V77H98V81.5H102.5V86H93.5V81.5H89V77H84.5V72.5H80V86H71ZM80 68H93.5V59H80V68ZM111.5 81.5H107V54.5H116V81.5H129.5V54.5H138.5V81.5H134V86H111.5V81.5ZM147.5 81.5H143V77H152V81.5H165.5V72.5H147.5V68H143V59H147.5V54.5H170V59H174.5V63.5H165.5V59H152V68H170V72.5H174.5V81.5H170V86H147.5V81.5ZM179 86V54.5H188V68H201.5V54.5H210.5V86H201.5V72.5H188V86H179Z" fill="#B4FAFC"/>
<path d="M39.5 81.5H40.5V80.5H39.5V81.5ZM35 81.5H34V82.5H35V81.5ZM35 59V58H34V59H35ZM39.5 59V60H40.5V59H39.5ZM39.5 54.5V53.5H38.5V54.5H39.5ZM62 54.5H63V53.5H62V54.5ZM62 59H61V60H62V59ZM66.5 59H67.5V58H66.5V59ZM66.5 63.5V64.5H67.5V63.5H66.5ZM57.5 63.5H56.5V64.5H57.5V63.5ZM57.5 59H58.5V58H57.5V59ZM44 59V58H43V59H44ZM44 81.5H43V82.5H44V81.5ZM57.5 81.5V82.5H58.5V81.5H57.5ZM57.5 77V76H56.5V77H57.5ZM66.5 77H67.5V76H66.5V77ZM66.5 81.5V82.5H67.5V81.5H66.5ZM62 81.5V80.5H61V81.5H62ZM62 86V87H63V86H62ZM39.5 86H38.5V87H39.5V86ZM39.5 80.5H35V82.5H39.5V80.5ZM36 81.5V59H34V81.5H36ZM35 60H39.5V58H35V60ZM40.5 59V54.5H38.5V59H40.5ZM39.5 55.5H62V53.5H39.5V55.5ZM61 54.5V59H63V54.5H61ZM62 60H66.5V58H62V60ZM65.5 59V63.5H67.5V59H65.5ZM66.5 62.5H57.5V64.5H66.5V62.5ZM58.5 63.5V59H56.5V63.5H58.5ZM57.5 58H44V60H57.5V58ZM43 59V81.5H45V59H43ZM44 82.5H57.5V80.5H44V82.5ZM58.5 81.5V77H56.5V81.5H58.5ZM57.5 78H66.5V76H57.5V78ZM65.5 77V81.5H67.5V77H65.5ZM66.5 80.5H62V82.5H66.5V80.5ZM61 81.5V86H63V81.5H61ZM62 85H39.5V87H62V85ZM40.5 86V81.5H38.5V86H40.5ZM71 86H70V87H71V86ZM71 54.5V53.5H70V54.5H71ZM98 54.5H99V53.5H98V54.5ZM98 59H97V60H98V59ZM102.5 59H103.5V58H102.5V59ZM102.5 68V69H103.5V68H102.5ZM98 68V67H97V68H98ZM98 72.5V73.5H99V72.5H98ZM93.5 72.5V71.5H92.5V72.5H93.5ZM93.5 77H92.5V78H93.5V77ZM98 77H99V76H98V77ZM98 81.5H97V82.5H98V81.5ZM102.5 81.5H103.5V80.5H102.5V81.5ZM102.5 86V87H103.5V86H102.5ZM93.5 86H92.5V87H93.5V86ZM93.5 81.5H94.5V80.5H93.5V81.5ZM89 81.5H88V82.5H89V81.5ZM89 77H90V76H89V77ZM84.5 77H83.5V78H84.5V77ZM84.5 72.5H85.5V71.5H84.5V72.5ZM80 72.5V71.5H79V72.5H80ZM80 86V87H81V86H80ZM80 68H79V69H80V68ZM93.5 68V69H94.5V68H93.5ZM93.5 59H94.5V58H93.5V59ZM80 59V58H79V59H80ZM72 86V54.5H70V86H72ZM71 55.5H98V53.5H71V55.5ZM97 54.5V59H99V54.5H97ZM98 60H102.5V58H98V60ZM101.5 59V68H103.5V59H101.5ZM102.5 67H98V69H102.5V67ZM97 68V72.5H99V68H97ZM98 71.5H93.5V73.5H98V71.5ZM92.5 72.5V77H94.5V72.5H92.5ZM93.5 78H98V76H93.5V78ZM97 77V81.5H99V77H97ZM98 82.5H102.5V80.5H98V82.5ZM101.5 81.5V86H103.5V81.5H101.5ZM102.5 85H93.5V87H102.5V85ZM94.5 86V81.5H92.5V86H94.5ZM93.5 80.5H89V82.5H93.5V80.5ZM90 81.5V77H88V81.5H90ZM89 76H84.5V78H89V76ZM85.5 77V72.5H83.5V77H85.5ZM84.5 71.5H80V73.5H84.5V71.5ZM79 72.5V86H81V72.5H79ZM80 85H71V87H80V85ZM80 69H93.5V67H80V69ZM94.5 68V59H92.5V68H94.5ZM93.5 58H80V60H93.5V58ZM79 59V68H81V59H79ZM111.5 81.5H112.5V80.5H111.5V81.5ZM107 81.5H106V82.5H107V81.5ZM107 54.5V53.5H106V54.5H107ZM116 54.5H117V53.5H116V54.5ZM116 81.5H115V82.5H116V81.5ZM129.5 81.5V82.5H130.5V81.5H129.5ZM129.5 54.5V53.5H128.5V54.5H129.5ZM138.5 54.5H139.5V53.5H138.5V54.5ZM138.5 81.5V82.5H139.5V81.5H138.5ZM134 81.5V80.5H133V81.5H134ZM134 86V87H135V86H134ZM111.5 86H110.5V87H111.5V86ZM111.5 80.5H107V82.5H111.5V80.5ZM108 81.5V54.5H106V81.5H108ZM107 55.5H116V53.5H107V55.5ZM115 54.5V81.5H117V54.5H115ZM116 82.5H129.5V80.5H116V82.5ZM130.5 81.5V54.5H128.5V81.5H130.5ZM129.5 55.5H138.5V53.5H129.5V55.5ZM137.5 54.5V81.5H139.5V54.5H137.5ZM138.5 80.5H134V82.5H138.5V80.5ZM133 81.5V86H135V81.5H133ZM134 85H111.5V87H134V85ZM112.5 86V81.5H110.5V86H112.5ZM147.5 81.5H148.5V80.5H147.5V81.5ZM143 81.5H142V82.5H143V81.5ZM143 77V76H142V77H143ZM152 77H153V76H152V77ZM152 81.5H151V82.5H152V81.5ZM165.5 81.5V82.5H166.5V81.5H165.5ZM165.5 72.5H166.5V71.5H165.5V72.5ZM147.5 72.5H146.5V73.5H147.5V72.5ZM147.5 68H148.5V67H147.5V68ZM143 68H142V69H143V68ZM143 59V58H142V59H143ZM147.5 59V60H148.5V59H147.5ZM147.5 54.5V53.5H146.5V54.5H147.5ZM170 54.5H171V53.5H170V54.5ZM170 59H169V60H170V59ZM174.5 59H175.5V58H174.5V59ZM174.5 63.5V64.5H175.5V63.5H174.5ZM165.5 63.5H164.5V64.5H165.5V63.5ZM165.5 59H166.5V58H165.5V59ZM152 59V58H151V59H152ZM152 68H151V69H152V68ZM170 68H171V67H170V68ZM170 72.5H169V73.5H170V72.5ZM174.5 72.5H175.5V71.5H174.5V72.5ZM174.5 81.5V82.5H175.5V81.5H174.5ZM170 81.5V80.5H169V81.5H170ZM170 86V87H171V86H170ZM147.5 86H146.5V87H147.5V86ZM147.5 80.5H143V82.5H147.5V80.5ZM144 81.5V77H142V81.5H144ZM143 78H152V76H143V78ZM151 77V81.5H153V77H151ZM152 82.5H165.5V80.5H152V82.5ZM166.5 81.5V72.5H164.5V81.5H166.5ZM165.5 71.5H147.5V73.5H165.5V71.5ZM148.5 72.5V68H146.5V72.5H148.5ZM147.5 67H143V69H147.5V67ZM144 68V59H142V68H144ZM143 60H147.5V58H143V60ZM148.5 59V54.5H146.5V59H148.5ZM147.5 55.5H170V53.5H147.5V55.5ZM169 54.5V59H171V54.5H169ZM170 60H174.5V58H170V60ZM173.5 59V63.5H175.5V59H173.5ZM174.5 62.5H165.5V64.5H174.5V62.5ZM166.5 63.5V59H164.5V63.5H166.5ZM165.5 58H152V60H165.5V58ZM151 59V68H153V59H151ZM152 69H170V67H152V69ZM169 68V72.5H171V68H169ZM170 73.5H174.5V71.5H170V73.5ZM173.5 72.5V81.5H175.5V72.5H173.5ZM174.5 80.5H170V82.5H174.5V80.5ZM169 81.5V86H171V81.5H169ZM170 85H147.5V87H170V85ZM148.5 86V81.5H146.5V86H148.5ZM179 86H178V87H179V86ZM179 54.5V53.5H178V54.5H179ZM188 54.5H189V53.5H188V54.5ZM188 68H187V69H188V68ZM201.5 68V69H202.5V68H201.5ZM201.5 54.5V53.5H200.5V54.5H201.5ZM210.5 54.5H211.5V53.5H210.5V54.5ZM210.5 86V87H211.5V86H210.5ZM201.5 86H200.5V87H201.5V86ZM201.5 72.5H202.5V71.5H201.5V72.5ZM188 72.5V71.5H187V72.5H188ZM188 86V87H189V86H188ZM180 86V54.5H178V86H180ZM179 55.5H188V53.5H179V55.5ZM187 54.5V68H189V54.5H187ZM188 69H201.5V67H188V69ZM202.5 68V54.5H200.5V68H202.5ZM201.5 55.5H210.5V53.5H201.5V55.5ZM209.5 54.5V86H211.5V54.5H209.5ZM210.5 85H201.5V87H210.5V85ZM202.5 86V72.5H200.5V86H202.5ZM201.5 71.5H188V73.5H201.5V71.5ZM187 72.5V86H189V72.5H187ZM188 85H179V87H188V85Z" fill="black"/>
</svg>
