<svg width="56" height="56" viewBox="0 0 56 56" fill="none" xmlns="http://www.w3.org/2000/svg">
<rect width="56" height="56" fill="#F0F0F0"/>
<rect x="10" y="36.1819" width="4.36364" height="4.36364" fill="#A32635"/>
<rect x="12.1818" y="38.3635" width="4.36364" height="4.36364" fill="#A32635"/>
<rect x="14.3636" y="39.4546" width="4.36364" height="4.36364" fill="#A32635"/>
<rect x="15.4546" y="41.6365" width="4.36364" height="4.36364" fill="#A32635"/>
<rect x="19.8182" y="41.6365" width="4.36364" height="4.36364" fill="#A32635"/>
<rect x="20.9091" y="39.4546" width="4.36364" height="4.36364" fill="#A32635"/>
<rect x="20.9091" y="35.0908" width="4.36364" height="4.36364" fill="#A32635"/>
<rect x="20.9091" y="30.7273" width="4.36364" height="4.36364" fill="#A32635"/>
<rect x="20.9091" y="26.3635" width="4.36364" height="4.36364" fill="#A32635"/>
<rect x="20.9091" y="22" width="4.36364" height="4.36364" fill="#A32635"/>
<rect x="20.9091" y="17.6365" width="4.36364" height="4.36364" fill="#A32635"/>
<rect x="18.7273" y="16.5454" width="4.36364" height="4.36364" fill="#A32635"/>
<rect x="16.5454" y="17.6365" width="4.36364" height="4.36364" fill="#A32635"/>
<rect x="14.3636" y="18.7273" width="4.36364" height="4.36364" fill="#A32635"/>
<rect x="12.1818" y="20.9092" width="4.36364" height="4.36364" fill="#A32635"/>
<rect x="10" y="23.0908" width="4.36364" height="4.36364" fill="#A32635"/>
<rect x="10" y="27.4546" width="4.36364" height="4.36364" fill="#A32635"/>
<rect x="10" y="31.8181" width="4.36364" height="4.36364" fill="#A32635"/>
<rect x="14.3636" y="25.2727" width="4.36364" height="4.36364" fill="#A32635"/>
<rect x="16.5454" y="22" width="4.36364" height="4.36364" fill="#A32635"/>
<rect x="16.5454" y="22" width="4.36364" height="4.36364" fill="#A32635"/>
<rect x="16.5454" y="26.3635" width="4.36364" height="4.36364" fill="#A32635"/>
<rect x="16.5454" y="30.7273" width="4.36364" height="4.36364" fill="#A32635"/>
<rect x="16.5454" y="30.7273" width="4.36364" height="4.36364" fill="#A32635"/>
<rect x="16.5454" y="34" width="4.36364" height="4.36364" fill="#A32635"/>
<rect x="14.3636" y="29.6365" width="4.36364" height="4.36364" fill="#A32635"/>
<rect x="14.3636" y="34" width="4.36364" height="4.36364" fill="#A32635"/>
<rect x="16.5454" y="37.2727" width="4.36364" height="4.36364" fill="#A32635"/>
<rect x="10" y="23.0908" width="4.36364" height="4.36364" fill="#C54651"/>
<rect x="12.1818" y="20.9092" width="4.36364" height="4.36364" fill="#C54651"/>
<rect x="14.3636" y="18.7273" width="4.36364" height="4.36364" fill="#C54651"/>
<rect x="16.5454" y="17.6365" width="4.36364" height="4.36364" fill="#C54651"/>
<rect x="18.7273" y="16.5454" width="4.36364" height="4.36364" fill="#C54651"/>
<rect x="10" y="36.1819" width="4.36364" height="4.36364" fill="#C54651"/>
<rect x="12.1818" y="38.3635" width="4.36364" height="4.36364" fill="#C54651"/>
<rect x="14.3636" y="39.4546" width="4.36364" height="4.36364" fill="#C54651"/>
<rect x="15.4546" y="41.6365" width="4.36364" height="4.36364" fill="#C54651"/>
<rect x="19.8182" y="41.6365" width="4.36364" height="4.36364" fill="#C54651"/>
<rect x="20.9091" y="39.4546" width="4.36364" height="4.36364" fill="#C54651"/>
<rect width="4.36364" height="4.36364" transform="matrix(-1 0 0 1 46 36.1819)" fill="#A32635"/>
<rect width="4.36364" height="4.36364" transform="matrix(-1 0 0 1 43.8182 38.3635)" fill="#A32635"/>
<rect width="4.36364" height="4.36364" transform="matrix(-1 0 0 1 41.6364 39.4546)" fill="#A32635"/>
<rect width="4.36364" height="4.36364" transform="matrix(-1 0 0 1 40.5454 41.6365)" fill="#A32635"/>
<rect width="4.36364" height="4.36364" transform="matrix(-1 0 0 1 36.1818 41.6365)" fill="#A32635"/>
<rect width="4.36364" height="4.36364" transform="matrix(-1 0 0 1 35.0909 39.4546)" fill="#A32635"/>
<rect width="4.36364" height="4.36364" transform="matrix(-1 0 0 1 35.0909 35.0908)" fill="#A32635"/>
<rect width="4.36364" height="4.36364" transform="matrix(-1 0 0 1 35.0909 30.7273)" fill="#A32635"/>
<rect width="4.36364" height="4.36364" transform="matrix(-1 0 0 1 35.0909 26.3635)" fill="#A32635"/>
<rect width="4.36364" height="4.36364" transform="matrix(-1 0 0 1 35.0909 22)" fill="#A32635"/>
<rect width="4.36364" height="4.36364" transform="matrix(-1 0 0 1 35.0909 17.6365)" fill="#A32635"/>
<rect width="4.36364" height="4.36364" transform="matrix(-1 0 0 1 37.2727 16.5454)" fill="#A32635"/>
<rect width="4.36364" height="4.36364" transform="matrix(-1 0 0 1 39.4546 17.6365)" fill="#A32635"/>
<rect width="4.36364" height="4.36364" transform="matrix(-1 0 0 1 41.6364 18.7273)" fill="#A32635"/>
<rect width="4.36364" height="4.36364" transform="matrix(-1 0 0 1 43.8182 20.9092)" fill="#A32635"/>
<rect width="4.36364" height="4.36364" transform="matrix(-1 0 0 1 46 23.0908)" fill="#A32635"/>
<rect width="4.36364" height="4.36364" transform="matrix(-1 0 0 1 46 27.4546)" fill="#A32635"/>
<rect width="4.36364" height="4.36364" transform="matrix(-1 0 0 1 46 31.8181)" fill="#A32635"/>
<rect width="4.36364" height="4.36364" transform="matrix(-1 0 0 1 41.6364 25.2727)" fill="#A32635"/>
<rect width="4.36364" height="4.36364" transform="matrix(-1 0 0 1 39.4546 22)" fill="#A32635"/>
<rect width="4.36364" height="4.36364" transform="matrix(-1 0 0 1 39.4546 22)" fill="#A32635"/>
<rect width="4.36364" height="4.36364" transform="matrix(-1 0 0 1 39.4546 26.3635)" fill="#A32635"/>
<rect width="4.36364" height="4.36364" transform="matrix(-1 0 0 1 39.4546 30.7273)" fill="#A32635"/>
<rect width="4.36364" height="4.36364" transform="matrix(-1 0 0 1 39.4546 30.7273)" fill="#A32635"/>
<rect width="4.36364" height="4.36364" transform="matrix(-1 0 0 1 39.4546 34)" fill="#A32635"/>
<rect width="4.36364" height="4.36364" transform="matrix(-1 0 0 1 41.6364 29.6365)" fill="#A32635"/>
<rect width="4.36364" height="4.36364" transform="matrix(-1 0 0 1 41.6364 34)" fill="#A32635"/>
<rect width="4.36364" height="4.36364" transform="matrix(-1 0 0 1 39.4546 37.2727)" fill="#A32635"/>
<rect width="4.36364" height="4.36364" transform="matrix(-1 0 0 1 46 23.0908)" fill="#C54651"/>
<rect width="4.36364" height="4.36364" transform="matrix(-1 0 0 1 43.8182 20.9092)" fill="#C54651"/>
<rect width="4.36364" height="4.36364" transform="matrix(-1 0 0 1 41.6364 18.7273)" fill="#C54651"/>
<rect width="4.36364" height="4.36364" transform="matrix(-1 0 0 1 39.4546 17.6365)" fill="#C54651"/>
<rect width="4.36364" height="4.36364" transform="matrix(-1 0 0 1 37.2727 16.5454)" fill="#C54651"/>
<rect width="4.36364" height="4.36364" transform="matrix(-1 0 0 1 46 36.1819)" fill="#C54651"/>
<rect width="4.36364" height="4.36364" transform="matrix(-1 0 0 1 43.8182 38.3635)" fill="#C54651"/>
<rect width="4.36364" height="4.36364" transform="matrix(-1 0 0 1 41.6364 39.4546)" fill="#C54651"/>
<rect width="4.36364" height="4.36364" transform="matrix(-1 0 0 1 40.5454 41.6365)" fill="#C54651"/>
<rect width="4.36364" height="4.36364" transform="matrix(-1 0 0 1 36.1818 41.6365)" fill="#C54651"/>
<rect width="4.36364" height="4.36364" transform="matrix(-1 0 0 1 35.0909 39.4546)" fill="#C54651"/>
<rect x="26.3636" y="10" width="3.27273" height="3.27273" fill="#E0A87B"/>
<rect x="26.3636" y="13.2727" width="3.27273" height="3.27273" fill="#E0A87B"/>
<rect x="26.3636" y="16.5454" width="3.27273" height="3.27273" fill="#E0A87B"/>
<rect x="26.3636" y="19.8181" width="3.27273" height="3.27273" fill="#E0A87B"/>
<rect x="25.2727" y="23.0908" width="3.27273" height="3.27273" fill="#E0A87B"/>
<rect x="27.4546" y="23.0908" width="3.27273" height="3.27273" fill="#E0A87B"/>
<rect x="26.3636" y="23.0908" width="3.27273" height="3.27273" fill="#CA7C3E"/>
<rect x="26.3636" y="16.5454" width="3.27273" height="3.27273" fill="#CA7C3E"/>
<rect x="26.3636" y="10" width="3.27273" height="3.27273" fill="#CA7C3E"/>
<rect width="6" height="6" fill="white"/>
<rect x="50" width="6" height="6" fill="white"/>
<rect x="50" y="50" width="6" height="6" fill="white"/>
<rect y="50" width="6" height="6" fill="white"/>
</svg>
