<svg width="66" height="30" viewBox="0 0 66 30" fill="none" xmlns="http://www.w3.org/2000/svg">
<rect x="1.5" y="1.5" width="63" height="27" fill="#8DC53F" stroke="#579C1D" stroke-width="3"/>
<path d="M9 19V8.5H12V10H13.5V11.5H15V10H16.5V8.5H19.5V19H16.5V13H15V14.5H13.5V13H12V19H9ZM28.5 14.5V13H24V14.5H28.5ZM22.5 17.5H21V13H22.5V11.5H30V13H31.5V16H24V17.5H30V19H22.5V17.5ZM33 19V11.5H42V13H43.5V19H40.5V13H36V19H33ZM46.5 17.5H45V11.5H48V17.5H52.5V11.5H55.5V17.5H54V19H46.5V17.5Z" fill="white"/>
</svg>
