<svg width="198" height="42" viewBox="0 0 198 42" fill="none" xmlns="http://www.w3.org/2000/svg">
<rect x="16" width="166" height="42" fill="#ED1A28"/>
<path d="M27 27V16.5H30V18H31.5V19.5H33V21H34.5V16.5H37.5V27H34.5V24H33V22.5H31.5V21H30V27H27ZM46.5 22.5V21H42V22.5H46.5ZM40.5 25.5H39V21H40.5V19.5H48V21H49.5V24H42V25.5H48V27H40.5V25.5ZM51 27V25.5H52.5V24H54V22.5H52.5V21H51V19.5H55.5V21H57V19.5H61.5V21H60V22.5H58.5V24H60V25.5H61.5V27H57V25.5H55.5V27H51ZM63 21V19.5H66V16.5H69V19.5H73.5V21H69V25.5H73.5V27H66V21H63ZM94.5 22.5V21H90V22.5H94.5ZM87 27V19.5H96V21H97.5V22.5H96V24H90V27H87ZM100.5 25.5H99V24H100.5V22.5H106.5V21H100.5V19.5H108V21H109.5V27H100.5V25.5ZM102 25.5H106.5V24H102V25.5ZM111 21V19.5H114V16.5H117V19.5H121.5V21H117V25.5H121.5V27H114V21H111ZM123 27V25.5H127.5V21H124.5V19.5H130.5V25.5H133.5V27H123ZM127.5 18V16.5H130.5V18H127.5ZM142.5 22.5V21H138V22.5H142.5ZM136.5 25.5H135V21H136.5V19.5H144V21H145.5V24H138V25.5H144V27H136.5V25.5ZM147 27V19.5H156V21H157.5V27H154.5V21H150V27H147ZM159 21V19.5H162V16.5H165V19.5H169.5V21H165V25.5H169.5V27H162V21H159Z" fill="white"/>
<rect x="182" y="9" width="8" height="8" fill="#971F27"/>
<rect x="182" y="17" width="8" height="8" fill="#ED1A28"/>
<rect x="182" y="25" width="8" height="8" fill="#971F27"/>
<rect x="190" y="17" width="8" height="8" fill="#971F27"/>
<rect width="8" height="8" transform="matrix(-1 0 0 1 16 9)" fill="#971F27"/>
<rect width="8" height="8" transform="matrix(-1 0 0 1 16 17)" fill="#ED1A28"/>
<rect width="8" height="8" transform="matrix(-1 0 0 1 16 25)" fill="#971F27"/>
<rect width="8" height="8" transform="matrix(-1 0 0 1 8 17)" fill="#971F27"/>
</svg>
