<svg width="358" height="48" viewBox="0 0 358 48" fill="none" xmlns="http://www.w3.org/2000/svg">
<mask id="path-1-inside-1_151_1925" fill="white">
<path fill-rule="evenodd" clip-rule="evenodd" d="M15 0H343L343 8H351V16H358V24V32H351V40H343L343 48H15V40H7V32H0V24V16H7V8H15V0Z"/>
</mask>
<path fill-rule="evenodd" clip-rule="evenodd" d="M15 0H343L343 8H351V16H358V24V32H351V40H343L343 48H15V40H7V32H0V24V16H7V8H15V0Z" fill="white"/>
<path d="M343 0L347 -1.52588e-05V-4H343V0ZM15 0V-4H11V0H15ZM343 8L339 8.00002V12H343V8ZM351 8H355V4H351V8ZM351 16H347V20H351V16ZM358 16H362V12H358V16ZM358 32V36H362V32H358ZM351 32V28H347V32H351ZM351 40V44H355V40H351ZM343 40V36H339V40L343 40ZM343 48V52H347V48L343 48ZM15 48H11V52H15V48ZM15 40H19V36H15V40ZM7 40H3V44H7V40ZM7 32H11V28H7V32ZM0 32H-4V36H0V32ZM0 16V12H-4V16H0ZM7 16V20H11V16H7ZM7 8V4H3V8H7ZM15 8V12H19V8H15ZM343 -4H15V4H343V-4ZM347 7.99998L347 -1.52588e-05L339 1.52588e-05L339 8.00002L347 7.99998ZM351 4H343V12H351V4ZM355 16V8H347V16H355ZM358 12H351V20H358V12ZM362 24V16H354V24H362ZM362 32V24H354V32H362ZM351 36H358V28H351V36ZM355 40V32H347V40H355ZM343 44H351V36H343V44ZM347 48L347 40L339 40L339 48L347 48ZM15 52H343V44H15V52ZM11 40V48H19V40H11ZM7 44H15V36H7V44ZM3 32V40H11V32H3ZM0 36H7V28H0V36ZM-4 24V32H4V24H-4ZM-4 16V24H4V16H-4ZM7 12H0V20H7V12ZM3 8V16H11V8H3ZM15 4H7V12H15V4ZM11 0V8H19V0H11Z" fill="#79DDED" mask="url(#path-1-inside-1_151_1925)"/>
<rect x="339" y="12" width="8" height="8" fill="#4BB5CF"/>
<rect x="347" y="20" width="8" height="8" fill="#4BB5CF"/>
<rect x="4" y="20" width="8" height="8" fill="#4BB5CF"/>
<rect x="339" y="28" width="8" height="8" fill="#4BB5CF"/>
<rect x="11" y="12" width="8" height="8" fill="#4BB5CF"/>
<rect x="11" y="28" width="8" height="8" fill="#4BB5CF"/>
<path d="M108.335 29L112.703 19.2H114.943L119.325 29H116.945L113.361 20.348H114.257L110.659 29H108.335ZM110.519 26.9L111.121 25.178H116.161L116.777 26.9H110.519ZM121.465 29.112C121.092 29.112 120.77 28.986 120.499 28.734C120.238 28.4727 120.107 28.1413 120.107 27.74C120.107 27.3387 120.238 27.0167 120.499 26.774C120.77 26.522 121.092 26.396 121.465 26.396C121.848 26.396 122.17 26.522 122.431 26.774C122.692 27.0167 122.823 27.3387 122.823 27.74C122.823 28.1413 122.692 28.4727 122.431 28.734C122.17 28.986 121.848 29.112 121.465 29.112ZM133.112 29.168C132.356 29.168 131.651 29.0467 130.998 28.804C130.354 28.552 129.794 28.1973 129.318 27.74C128.842 27.2827 128.468 26.746 128.198 26.13C127.936 25.514 127.806 24.8373 127.806 24.1C127.806 23.3627 127.936 22.686 128.198 22.07C128.468 21.454 128.842 20.9173 129.318 20.46C129.803 20.0027 130.368 19.6527 131.012 19.41C131.656 19.158 132.36 19.032 133.126 19.032C133.975 19.032 134.74 19.1813 135.422 19.48C136.112 19.7693 136.691 20.1987 137.158 20.768L135.702 22.112C135.366 21.7293 134.992 21.4447 134.582 21.258C134.171 21.062 133.723 20.964 133.238 20.964C132.78 20.964 132.36 21.0387 131.978 21.188C131.595 21.3373 131.264 21.552 130.984 21.832C130.704 22.112 130.484 22.4433 130.326 22.826C130.176 23.2087 130.102 23.6333 130.102 24.1C130.102 24.5667 130.176 24.9913 130.326 25.374C130.484 25.7567 130.704 26.088 130.984 26.368C131.264 26.648 131.595 26.8627 131.978 27.012C132.36 27.1613 132.78 27.236 133.238 27.236C133.723 27.236 134.171 27.1427 134.582 26.956C134.992 26.76 135.366 26.466 135.702 26.074L137.158 27.418C136.691 27.9873 136.112 28.4213 135.422 28.72C134.74 29.0187 133.97 29.168 133.112 29.168ZM143.113 21.356C143.711 21.356 144.243 21.4773 144.709 21.72C145.185 21.9533 145.559 22.3173 145.829 22.812C146.1 23.2973 146.235 23.9227 146.235 24.688V29H144.051V25.024C144.051 24.4173 143.916 23.9693 143.645 23.68C143.384 23.3907 143.011 23.246 142.525 23.246C142.18 23.246 141.867 23.3207 141.587 23.47C141.317 23.61 141.102 23.8293 140.943 24.128C140.794 24.4267 140.719 24.8093 140.719 25.276V29H138.535V18.612H140.719V23.554L140.229 22.924C140.5 22.42 140.887 22.0327 141.391 21.762C141.895 21.4913 142.469 21.356 143.113 21.356ZM152.008 29.112C151.149 29.112 150.393 28.944 149.74 28.608C149.096 28.272 148.596 27.8147 148.242 27.236C147.887 26.648 147.71 25.9807 147.71 25.234C147.71 24.478 147.882 23.8107 148.228 23.232C148.582 22.644 149.063 22.1867 149.67 21.86C150.276 21.524 150.962 21.356 151.728 21.356C152.465 21.356 153.128 21.5147 153.716 21.832C154.313 22.14 154.784 22.588 155.13 23.176C155.475 23.7547 155.648 24.45 155.648 25.262C155.648 25.346 155.643 25.444 155.634 25.556C155.624 25.6587 155.615 25.7567 155.606 25.85H149.488V24.576H154.458L153.618 24.954C153.618 24.562 153.538 24.2213 153.38 23.932C153.221 23.6427 153.002 23.4187 152.722 23.26C152.442 23.092 152.115 23.008 151.742 23.008C151.368 23.008 151.037 23.092 150.748 23.26C150.468 23.4187 150.248 23.6473 150.09 23.946C149.931 24.2353 149.852 24.5807 149.852 24.982V25.318C149.852 25.7287 149.94 26.0927 150.118 26.41C150.304 26.718 150.561 26.956 150.888 27.124C151.224 27.2827 151.616 27.362 152.064 27.362C152.465 27.362 152.815 27.3013 153.114 27.18C153.422 27.0587 153.702 26.8767 153.954 26.634L155.116 27.894C154.77 28.286 154.336 28.5893 153.814 28.804C153.291 29.0093 152.689 29.112 152.008 29.112ZM160.742 29.112C159.93 29.112 159.206 28.9487 158.572 28.622C157.937 28.286 157.438 27.824 157.074 27.236C156.719 26.648 156.542 25.9807 156.542 25.234C156.542 24.478 156.719 23.8107 157.074 23.232C157.438 22.644 157.937 22.1867 158.572 21.86C159.206 21.524 159.93 21.356 160.742 21.356C161.535 21.356 162.226 21.524 162.814 21.86C163.402 22.1867 163.836 22.658 164.116 23.274L162.422 24.184C162.226 23.8293 161.978 23.568 161.68 23.4C161.39 23.232 161.073 23.148 160.728 23.148C160.354 23.148 160.018 23.232 159.72 23.4C159.421 23.568 159.183 23.806 159.006 24.114C158.838 24.422 158.754 24.7953 158.754 25.234C158.754 25.6727 158.838 26.046 159.006 26.354C159.183 26.662 159.421 26.9 159.72 27.068C160.018 27.236 160.354 27.32 160.728 27.32C161.073 27.32 161.39 27.2407 161.68 27.082C161.978 26.914 162.226 26.648 162.422 26.284L164.116 27.208C163.836 27.8147 163.402 28.286 162.814 28.622C162.226 28.9487 161.535 29.112 160.742 29.112ZM167.138 27.46L167.194 24.8L170.708 21.468H173.312L169.938 24.898L168.804 25.822L167.138 27.46ZM165.332 29V18.612H167.516V29H165.332ZM170.946 29L168.398 25.836L169.77 24.142L173.592 29H170.946ZM178.805 29V21.3C178.805 20.4507 179.057 19.774 179.561 19.27C180.065 18.7567 180.784 18.5 181.717 18.5C182.035 18.5 182.338 18.5327 182.627 18.598C182.926 18.6633 183.178 18.766 183.383 18.906L182.809 20.488C182.688 20.404 182.553 20.3387 182.403 20.292C182.254 20.2453 182.095 20.222 181.927 20.222C181.61 20.222 181.363 20.3153 181.185 20.502C181.017 20.6793 180.933 20.95 180.933 21.314V22.014L180.989 22.952V29H178.805ZM177.643 23.316V21.636H182.865V23.316H177.643ZM187.442 29.112C186.639 29.112 185.925 28.944 185.3 28.608C184.684 28.272 184.194 27.8147 183.83 27.236C183.475 26.648 183.298 25.9807 183.298 25.234C183.298 24.478 183.475 23.8107 183.83 23.232C184.194 22.644 184.684 22.1867 185.3 21.86C185.925 21.524 186.639 21.356 187.442 21.356C188.235 21.356 188.944 21.524 189.57 21.86C190.195 22.1867 190.685 22.6393 191.04 23.218C191.394 23.7967 191.572 24.4687 191.572 25.234C191.572 25.9807 191.394 26.648 191.04 27.236C190.685 27.8147 190.195 28.272 189.57 28.608C188.944 28.944 188.235 29.112 187.442 29.112ZM187.442 27.32C187.806 27.32 188.132 27.236 188.422 27.068C188.711 26.9 188.94 26.662 189.108 26.354C189.276 26.0367 189.36 25.6633 189.36 25.234C189.36 24.7953 189.276 24.422 189.108 24.114C188.94 23.806 188.711 23.568 188.422 23.4C188.132 23.232 187.806 23.148 187.442 23.148C187.078 23.148 186.751 23.232 186.462 23.4C186.172 23.568 185.939 23.806 185.762 24.114C185.594 24.422 185.51 24.7953 185.51 25.234C185.51 25.6633 185.594 26.0367 185.762 26.354C185.939 26.662 186.172 26.9 186.462 27.068C186.751 27.236 187.078 27.32 187.442 27.32ZM193.031 29V21.468H195.117V23.596L194.823 22.98C195.047 22.448 195.407 22.0467 195.901 21.776C196.396 21.496 196.998 21.356 197.707 21.356V23.372C197.614 23.3627 197.53 23.358 197.455 23.358C197.381 23.3487 197.301 23.344 197.217 23.344C196.62 23.344 196.135 23.5167 195.761 23.862C195.397 24.198 195.215 24.7253 195.215 25.444V29H193.031ZM203.18 29V19.2H207.422C208.299 19.2 209.055 19.3447 209.69 19.634C210.324 19.914 210.814 20.32 211.16 20.852C211.505 21.384 211.678 22.0187 211.678 22.756C211.678 23.484 211.505 24.114 211.16 24.646C210.814 25.178 210.324 25.5887 209.69 25.878C209.055 26.158 208.299 26.298 207.422 26.298H204.44L205.448 25.276V29H203.18ZM205.448 25.528L204.44 24.45H207.296C207.996 24.45 208.518 24.3007 208.864 24.002C209.209 23.7033 209.382 23.288 209.382 22.756C209.382 22.2147 209.209 21.7947 208.864 21.496C208.518 21.1973 207.996 21.048 207.296 21.048H204.44L205.448 19.97V25.528ZM213.297 29V19.2H217.749C218.813 19.2 219.751 19.4053 220.563 19.816C221.375 20.2173 222.009 20.782 222.467 21.51C222.924 22.238 223.153 23.1013 223.153 24.1C223.153 25.0893 222.924 25.9527 222.467 26.69C222.009 27.418 221.375 27.9873 220.563 28.398C219.751 28.7993 218.813 29 217.749 29H213.297ZM215.565 27.138H217.637C218.29 27.138 218.855 27.0167 219.331 26.774C219.816 26.522 220.189 26.1673 220.451 25.71C220.721 25.2527 220.857 24.716 220.857 24.1C220.857 23.4747 220.721 22.938 220.451 22.49C220.189 22.0327 219.816 21.6827 219.331 21.44C218.855 21.188 218.29 21.062 217.637 21.062H215.565V27.138ZM224.47 25.934V24.184H228.432V25.934H224.47ZM230.305 29V19.2H232.573V27.152H237.487V29H230.305ZM239.185 29V20.04L240.165 21.02H237.225V19.2H241.453V29H239.185Z" fill="black"/>
</svg>
