<svg width="56" height="56" viewBox="0 0 56 56" fill="none" xmlns="http://www.w3.org/2000/svg">
<rect width="56" height="56" fill="#F0F0F0"/>
<rect x="5" y="25.2856" width="2.14286" height="2.14286" fill="#FDD100"/>
<rect x="5" y="29.5715" width="2.14286" height="2.14286" fill="#FDD100"/>
<rect x="5" y="27.4285" width="2.14286" height="2.14286" fill="#FAA700"/>
<rect x="5" y="31.7144" width="2.14286" height="2.14286" fill="#FAA700"/>
<rect x="7.14282" y="23.1431" width="2.14286" height="2.14286" fill="#FDD100"/>
<rect x="7.14282" y="27.4285" width="2.14286" height="2.14286" fill="#FDD100"/>
<rect x="7.14282" y="25.2856" width="2.14286" height="2.14286" fill="#FAA700"/>
<rect x="7.14282" y="29.5715" width="2.14286" height="2.14286" fill="#FAA700"/>
<rect x="7.14282" y="31.7144" width="2.14286" height="2.14286" fill="#FDD100"/>
<rect x="7.14282" y="33.8569" width="2.14286" height="2.14286" fill="#FAA700"/>
<rect x="11.4285" y="23.1431" width="2.14286" height="2.14286" fill="#FDD100"/>
<rect x="11.4285" y="27.4285" width="2.14286" height="2.14286" fill="#FDD100"/>
<rect x="11.4285" y="25.2856" width="2.14286" height="2.14286" fill="#FAA700"/>
<rect x="11.4285" y="29.5715" width="2.14286" height="2.14286" fill="#FAA700"/>
<rect x="11.4285" y="31.7144" width="2.14286" height="2.14286" fill="#FDD100"/>
<rect x="11.4285" y="33.8569" width="2.14286" height="2.14286" fill="#FAA700"/>
<rect x="15.7142" y="23.1431" width="2.14286" height="2.14286" fill="#FDD100"/>
<rect x="15.7142" y="27.4285" width="2.14286" height="2.14286" fill="#FDD100"/>
<rect x="15.7142" y="25.2856" width="2.14286" height="2.14286" fill="#FAA700"/>
<rect x="15.7142" y="29.5715" width="2.14286" height="2.14286" fill="#FAA700"/>
<rect x="15.7142" y="31.7144" width="2.14286" height="2.14286" fill="#FDD100"/>
<rect x="15.7142" y="33.8569" width="2.14286" height="2.14286" fill="#FAA700"/>
<rect x="22.1428" y="21" width="2.14286" height="2.14286" fill="#FDD100"/>
<rect x="22.1428" y="25.2856" width="2.14286" height="2.14286" fill="#FDD100"/>
<rect x="22.1428" y="23.1431" width="2.14286" height="2.14286" fill="#FAA700"/>
<rect x="22.1428" y="27.4285" width="2.14286" height="2.14286" fill="#FAA700"/>
<rect x="22.1428" y="29.5715" width="2.14286" height="2.14286" fill="#FDD100"/>
<rect x="22.1428" y="31.7144" width="2.14286" height="2.14286" fill="#FAA700"/>
<rect x="26.4285" y="21" width="2.14286" height="2.14286" fill="#FDD100"/>
<rect x="26.4285" y="25.2856" width="2.14286" height="2.14286" fill="#FDD100"/>
<rect x="26.4285" y="23.1431" width="2.14286" height="2.14286" fill="#FAA700"/>
<rect x="26.4285" y="27.4285" width="2.14286" height="2.14286" fill="#FAA700"/>
<rect x="26.4285" y="29.5715" width="2.14286" height="2.14286" fill="#FDD100"/>
<rect x="30.7142" y="21" width="2.14286" height="2.14286" fill="#FDD100"/>
<rect x="30.7142" y="25.2856" width="2.14286" height="2.14286" fill="#FDD100"/>
<rect x="30.7142" y="23.1431" width="2.14286" height="2.14286" fill="#FAA700"/>
<rect x="30.7142" y="27.4285" width="2.14286" height="2.14286" fill="#FAA700"/>
<rect x="30.7142" y="29.5715" width="2.14286" height="2.14286" fill="#FDD100"/>
<rect x="35" y="21" width="2.14286" height="2.14286" fill="#FDD100"/>
<rect x="35" y="25.2856" width="2.14286" height="2.14286" fill="#FDD100"/>
<rect x="35" y="23.1431" width="2.14286" height="2.14286" fill="#FAA700"/>
<rect x="35" y="27.4285" width="2.14286" height="2.14286" fill="#FAA700"/>
<rect x="39.2858" y="21" width="2.14286" height="2.14286" fill="#FDD100"/>
<rect x="39.2858" y="25.2856" width="2.14286" height="2.14286" fill="#FDD100"/>
<rect x="39.2858" y="23.1431" width="2.14286" height="2.14286" fill="#FAA700"/>
<rect x="43.5715" y="21" width="2.14286" height="2.14286" fill="#FDD100"/>
<rect x="43.5715" y="25.2856" width="2.14286" height="2.14286" fill="#FDD100"/>
<rect x="43.5715" y="23.1431" width="2.14286" height="2.14286" fill="#FAA700"/>
<rect x="39.2858" y="27.4285" width="2.14286" height="2.14286" fill="#FAA700"/>
<rect x="35" y="29.5715" width="2.14286" height="2.14286" fill="#FDD100"/>
<rect x="26.4285" y="31.7144" width="2.14286" height="2.14286" fill="#FAA700"/>
<rect x="9.28577" y="25.2856" width="2.14286" height="2.14286" fill="#FDD100"/>
<rect x="9.28577" y="23.1431" width="2.14286" height="2.14286" fill="#FAA700"/>
<rect x="9.28577" y="27.4285" width="2.14286" height="2.14286" fill="#FAA700"/>
<rect x="9.28577" y="29.5715" width="2.14286" height="2.14286" fill="#FDD100"/>
<rect x="9.28577" y="33.8569" width="2.14286" height="2.14286" fill="#FDD100"/>
<rect x="9.28577" y="31.7144" width="2.14286" height="2.14286" fill="#FAA700"/>
<rect x="13.5715" y="25.2856" width="2.14286" height="2.14286" fill="#FDD100"/>
<rect x="13.5715" y="23.1431" width="2.14286" height="2.14286" fill="#FAA700"/>
<rect x="13.5715" y="27.4285" width="2.14286" height="2.14286" fill="#FAA700"/>
<rect x="13.5715" y="29.5715" width="2.14286" height="2.14286" fill="#FDD100"/>
<rect x="13.5715" y="33.8569" width="2.14286" height="2.14286" fill="#FDD100"/>
<rect x="13.5715" y="31.7144" width="2.14286" height="2.14286" fill="#FAA700"/>
<rect x="17.8572" y="25.2856" width="2.14286" height="2.14286" fill="#FDD100"/>
<rect x="17.8572" y="23.1431" width="2.14286" height="2.14286" fill="#FAA700"/>
<rect x="17.8572" y="27.4285" width="2.14286" height="2.14286" fill="#FAA700"/>
<rect x="17.8572" y="29.5715" width="2.14286" height="2.14286" fill="#FDD100"/>
<rect x="17.8572" y="33.8569" width="2.14286" height="2.14286" fill="#FDD100"/>
<rect x="17.8572" y="31.7144" width="2.14286" height="2.14286" fill="#FAA700"/>
<rect x="20" y="33.8569" width="2.14286" height="2.14286" fill="#FAA700"/>
<rect x="20" y="23.1431" width="2.14286" height="2.14286" fill="#FDD100"/>
<rect x="20" y="21" width="2.14286" height="2.14286" fill="#FAA700"/>
<rect x="20" y="25.2856" width="2.14286" height="2.14286" fill="#FAA700"/>
<rect x="20" y="27.4285" width="2.14286" height="2.14286" fill="#FDD100"/>
<rect x="20" y="31.7144" width="2.14286" height="2.14286" fill="#FDD100"/>
<rect x="20" y="29.5715" width="2.14286" height="2.14286" fill="#FAA700"/>
<rect x="24.2858" y="23.1431" width="2.14286" height="2.14286" fill="#FDD100"/>
<rect x="24.2858" y="21" width="2.14286" height="2.14286" fill="#FAA700"/>
<rect x="24.2858" y="25.2856" width="2.14286" height="2.14286" fill="#FAA700"/>
<rect x="24.2858" y="27.4285" width="2.14286" height="2.14286" fill="#FDD100"/>
<rect x="24.2858" y="31.7144" width="2.14286" height="2.14286" fill="#FDD100"/>
<rect x="24.2858" y="29.5715" width="2.14286" height="2.14286" fill="#FAA700"/>
<rect x="28.5715" y="23.1431" width="2.14286" height="2.14286" fill="#FDD100"/>
<rect x="28.5715" y="21" width="2.14286" height="2.14286" fill="#FAA700"/>
<rect x="28.5715" y="25.2856" width="2.14286" height="2.14286" fill="#FAA700"/>
<rect x="28.5715" y="27.4285" width="2.14286" height="2.14286" fill="#FDD100"/>
<rect x="28.5715" y="29.5715" width="2.14286" height="2.14286" fill="#FAA700"/>
<rect x="32.8572" y="23.1431" width="2.14286" height="2.14286" fill="#FDD100"/>
<rect x="32.8572" y="21" width="2.14286" height="2.14286" fill="#FAA700"/>
<rect x="32.8572" y="25.2856" width="2.14286" height="2.14286" fill="#FAA700"/>
<rect x="32.8572" y="27.4285" width="2.14286" height="2.14286" fill="#FDD100"/>
<rect x="37.1428" y="23.1431" width="2.14286" height="2.14286" fill="#FDD100"/>
<rect x="37.1428" y="21" width="2.14286" height="2.14286" fill="#FAA700"/>
<rect x="37.1428" y="25.2856" width="2.14286" height="2.14286" fill="#FAA700"/>
<rect x="37.1428" y="27.4285" width="2.14286" height="2.14286" fill="#FDD100"/>
<rect x="41.4285" y="23.1431" width="2.14286" height="2.14286" fill="#FDD100"/>
<rect x="41.4285" y="21" width="2.14286" height="2.14286" fill="#FAA700"/>
<rect x="41.4285" y="25.2856" width="2.14286" height="2.14286" fill="#FAA700"/>
<rect x="45.7142" y="23.1431" width="2.14286" height="2.14286" fill="#FDD100"/>
<rect x="45.7142" y="21" width="2.14286" height="2.14286" fill="#FAA700"/>
<rect x="47.8572" y="25.2856" width="2.14286" height="2.14286" fill="#FDD100"/>
<rect x="47.8572" y="23.1431" width="2.14286" height="2.14286" fill="#FAA700"/>
<rect x="45.7142" y="25.2856" width="2.14286" height="2.14286" fill="#FAA700"/>
<rect x="41.4285" y="27.4285" width="2.14286" height="2.14286" fill="#FDD100"/>
<rect x="32.8572" y="29.5715" width="2.14286" height="2.14286" fill="#FAA700"/>
</svg>
