<svg width="28" height="64" viewBox="0 0 28 64" fill="none" xmlns="http://www.w3.org/2000/svg">
<rect width="2.78261" height="2.78261" transform="matrix(-1 0 0 1 25.0436 2.78259)" fill="#91734F"/>
<rect width="2.78261" height="2.78261" transform="matrix(-1 0 0 1 25.0436 19.4781)" fill="#FCAF53"/>
<rect width="2.78261" height="2.78261" transform="matrix(-1 0 0 1 27.8262 19.4781)" fill="#91734F"/>
<rect width="2.78261" height="2.78261" transform="matrix(-1 0 0 1 25.0436 11.1304)" fill="#FCAF53"/>
<rect width="2.78261" height="2.78261" transform="matrix(-1 0 0 1 27.8262 11.1304)" fill="#91734F"/>
<rect width="2.78261" height="2.78261" transform="matrix(-1 0 0 1 25.0436 5.56519)" fill="#91734F"/>
<rect width="2.78261" height="2.78261" transform="matrix(-1 0 0 1 27.8262 5.56519)" fill="#91734F"/>
<rect width="2.78261" height="2.78261" transform="matrix(-1 0 0 1 27.8262 8.34778)" fill="#91734F"/>
<rect width="2.78261" height="2.78261" transform="matrix(-1 0 0 1 25.0436 22.2607)" fill="#FCAF53"/>
<rect width="2.78261" height="2.78261" transform="matrix(-1 0 0 1 27.8262 22.2607)" fill="#91734F"/>
<rect width="2.78261" height="2.78261" transform="matrix(-1 0 0 1 25.0436 13.913)" fill="#FCAF53"/>
<rect width="2.78261" height="2.78261" transform="matrix(-1 0 0 1 27.8262 13.913)" fill="#91734F"/>
<rect width="2.78261" height="2.78261" transform="matrix(-1 0 0 1 25.0436 8.34778)" fill="#FCAF53"/>
<rect width="2.78261" height="2.78261" transform="matrix(-1 0 0 1 25.0436 25.0433)" fill="#FCAF53"/>
<rect width="2.78261" height="2.78261" transform="matrix(-1 0 0 1 25.0436 25.0433)" fill="#91734F"/>
<rect width="2.78261" height="2.78261" transform="matrix(-1 0 0 1 13.913 2.78259)" fill="#91734F"/>
<rect width="2.78261" height="2.78261" transform="matrix(-1 0 0 1 13.913 0)" fill="#91734F"/>
<rect width="2.78261" height="2.78261" transform="matrix(-1 0 0 1 25.0436 8.34778)" fill="#91734F"/>
<rect width="2.78261" height="2.78261" transform="matrix(-1 0 0 1 25.0436 16.6956)" fill="#FCAF53"/>
<rect width="2.78261" height="2.78261" transform="matrix(-1 0 0 1 27.8262 16.6956)" fill="#91734F"/>
<rect width="2.78261" height="2.78261" transform="matrix(-1 0 0 1 25.0436 19.4781)" fill="#91734F"/>
<rect width="2.78261" height="2.78261" transform="matrix(-1 0 0 1 25.0436 11.1304)" fill="#91734F"/>
<rect width="2.78261" height="2.78261" transform="matrix(-1 0 0 1 25.0436 22.2607)" fill="#91734F"/>
<rect width="2.78261" height="2.78261" transform="matrix(-1 0 0 1 25.0436 13.913)" fill="#91734F"/>
<rect width="2.78261" height="2.78261" transform="matrix(-1 0 0 1 25.0436 16.6956)" fill="#91734F"/>
<rect width="2.78261" height="2.78261" transform="matrix(-1 0 0 1 13.913 5.56519)" fill="#91734F"/>
<rect width="2.78261" height="2.78261" transform="matrix(-1 0 0 1 13.913 19.4781)" fill="#FCAF53"/>
<rect width="2.78261" height="2.78261" transform="matrix(-1 0 0 1 13.913 11.1304)" fill="#FCAF53"/>
<rect width="2.78261" height="2.78261" transform="matrix(-1 0 0 1 13.913 27.8259)" fill="#FCAF53"/>
<rect width="2.78261" height="2.78261" transform="matrix(-1 0 0 1 13.913 33.3915)" fill="#5B62FF"/>
<rect width="2.78261" height="2.78261" transform="matrix(-1 0 0 1 13.913 36.1741)" fill="#5B62FF"/>
<rect width="2.78261" height="2.78261" transform="matrix(-1 0 0 1 13.913 30.6085)" fill="#FCAF53"/>
<rect width="2.78261" height="2.78261" transform="matrix(-1 0 0 1 13.913 33.3915)" fill="#EC9833"/>
<rect width="2.78261" height="2.78261" transform="matrix(-1 0 0 1 22.261 2.78259)" fill="#91734F"/>
<rect width="2.78261" height="2.78261" transform="matrix(-1 0 0 1 22.261 0)" fill="#91734F"/>
<rect width="2.78261" height="2.78261" transform="matrix(-1 0 0 1 13.913 22.2607)" fill="#FCAF53"/>
<rect width="2.78261" height="2.78261" transform="matrix(-1 0 0 1 22.261 5.56519)" fill="#91734F"/>
<rect width="2.78261" height="2.78261" transform="matrix(-1 0 0 1 13.913 13.913)" fill="#FCAF53"/>
<rect width="2.78261" height="2.78261" transform="matrix(-1 0 0 1 13.913 8.34778)" fill="#FCAF53"/>
<rect width="2.78261" height="2.78261" transform="matrix(-1 0 0 1 13.913 25.0433)" fill="#FCAF53"/>
<rect width="2.78261" height="2.78261" transform="matrix(-1 0 0 1 13.913 16.6956)" fill="#FCAF53"/>
<rect width="2.78261" height="2.78261" transform="matrix(-1 0 0 1 11.1304 2.78259)" fill="#91734F"/>
<rect width="2.78261" height="2.78261" transform="matrix(-1 0 0 1 11.1304 0)" fill="#91734F"/>
<rect width="2.78261" height="2.78261" transform="matrix(-1 0 0 1 22.261 19.4781)" fill="#FCAF53"/>
<rect width="2.78261" height="2.78261" transform="matrix(-1 0 0 1 22.261 11.1304)" fill="#FCAF53"/>
<rect width="2.78261" height="2.78261" transform="matrix(-1 0 0 1 11.1304 5.56519)" fill="#91734F"/>
<rect width="2.78261" height="2.78261" transform="matrix(-1 0 0 1 22.261 22.2607)" fill="#FCAF53"/>
<rect width="2.78261" height="2.78261" transform="matrix(-1 0 0 1 22.261 13.913)" fill="#FCAF53"/>
<rect width="2.78261" height="2.78261" transform="matrix(-1 0 0 1 22.261 8.34778)" fill="#FCAF53"/>
<rect width="2.78261" height="2.78261" transform="matrix(-1 0 0 1 22.261 25.0433)" fill="#FCAF53"/>
<rect width="2.78261" height="2.78261" transform="matrix(-1 0 0 1 22.261 16.6956)" fill="#FCAF53"/>
<rect width="2.78261" height="2.78261" transform="matrix(-1 0 0 1 19.4784 2.78259)" fill="#91734F"/>
<rect width="2.78261" height="2.78261" transform="matrix(-1 0 0 1 19.4784 0)" fill="#91734F"/>
<rect width="2.78261" height="2.78261" transform="matrix(-1 0 0 1 11.1304 19.4781)" fill="#FCAF53"/>
<rect width="2.78261" height="2.78261" transform="matrix(-1 0 0 1 19.4784 5.56519)" fill="#91734F"/>
<rect width="2.78261" height="2.78261" transform="matrix(-1 0 0 1 11.1304 11.1304)" fill="#FCAF53"/>
<rect width="2.78261" height="2.78261" transform="matrix(-1 0 0 1 11.1304 27.8259)" fill="#FCAF53"/>
<rect width="2.78261" height="2.78261" transform="matrix(-1 0 0 1 11.1304 33.3915)" fill="#5B62FF"/>
<rect width="2.78261" height="2.78261" transform="matrix(-1 0 0 1 11.1304 36.1741)" fill="#5B62FF"/>
<rect width="2.78261" height="2.78261" transform="matrix(-1 0 0 1 11.1304 30.6085)" fill="#EC9833"/>
<rect width="2.78261" height="2.78261" transform="matrix(-1 0 0 1 11.1304 22.2607)" fill="#FCAF53"/>
<rect width="2.78261" height="2.78261" transform="matrix(-1 0 0 1 8.34778 2.78259)" fill="#91734F"/>
<rect width="2.78261" height="2.78261" transform="matrix(-1 0 0 1 8.34778 0)" fill="#91734F"/>
<rect width="2.78261" height="2.78261" transform="matrix(-1 0 0 1 11.1304 13.913)" fill="#FCAF53"/>
<rect width="2.78261" height="2.78261" transform="matrix(-1 0 0 1 11.1304 8.34778)" fill="#FCAF53"/>
<rect width="2.78261" height="2.78261" transform="matrix(-1 0 0 1 11.1304 25.0433)" fill="#FCAF53"/>
<rect width="2.78261" height="2.78261" transform="matrix(-1 0 0 1 8.34778 5.56519)" fill="#91734F"/>
<rect width="2.78261" height="2.78261" transform="matrix(-1 0 0 1 11.1304 16.6956)" fill="#FCAF53"/>
<rect width="2.78261" height="2.78261" transform="matrix(-1 0 0 1 19.4784 19.4781)" fill="#FCAF53"/>
<rect width="2.78261" height="2.78261" transform="matrix(-1 0 0 1 19.4784 11.1304)" fill="#FCAF53"/>
<rect width="2.78261" height="2.78261" transform="matrix(-1 0 0 1 16.6958 2.78259)" fill="#91734F"/>
<rect width="2.78261" height="2.78261" transform="matrix(-1 0 0 1 16.6958 0)" fill="#91734F"/>
<rect width="2.78261" height="2.78261" transform="matrix(-1 0 0 1 19.4784 27.8259)" fill="#EC9833"/>
<rect width="2.78261" height="2.78261" transform="matrix(-1 0 0 1 19.4784 33.3915)" fill="#5B62FF"/>
<rect width="2.78261" height="2.78261" transform="matrix(-1 0 0 1 19.4784 36.1741)" fill="#5B62FF"/>
<rect width="2.78261" height="2.78261" transform="matrix(-1 0 0 1 22.261 33.3915)" fill="#5B62FF"/>
<rect width="2.78261" height="2.78261" transform="matrix(-1 0 0 1 22.261 36.1741)" fill="#5B62FF"/>
<rect width="2.78261" height="2.78261" transform="matrix(-1 0 0 1 19.4784 22.2607)" fill="#FCAF53"/>
<rect width="2.78261" height="2.78261" transform="matrix(-1 0 0 1 19.4784 13.913)" fill="#FCAF53"/>
<rect width="2.78261" height="2.78261" transform="matrix(-1 0 0 1 16.6958 5.56519)" fill="#91734F"/>
<rect width="2.78261" height="2.78261" transform="matrix(-1 0 0 1 19.4784 8.34778)" fill="#FCAF53"/>
<rect width="2.78261" height="2.78261" transform="matrix(-1 0 0 1 19.4784 25.0433)" fill="#FCAF53"/>
<rect width="2.78261" height="2.78261" transform="matrix(-1 0 0 1 19.4784 16.6956)" fill="#FCAF53"/>
<rect width="2.78261" height="2.78261" transform="matrix(-1 0 0 1 5.56519 2.78259)" fill="#91734F"/>
<rect width="2.78261" height="2.78261" transform="matrix(-1 0 0 1 8.34778 19.4781)" fill="#FCAF53"/>
<rect width="2.78261" height="2.78261" transform="matrix(-1 0 0 1 8.34778 11.1304)" fill="#FCAF53"/>
<rect width="2.78261" height="2.78261" transform="matrix(-1 0 0 1 5.56519 5.56519)" fill="#91734F"/>
<rect width="2.78261" height="2.78261" transform="matrix(-1 0 0 1 8.34778 27.8259)" fill="#EC9833"/>
<rect width="2.78261" height="2.78261" transform="matrix(-1 0 0 1 8.34778 33.3915)" fill="#5B62FF"/>
<rect width="2.78261" height="2.78261" transform="matrix(-1 0 0 1 8.34778 36.1741)" fill="#5B62FF"/>
<rect width="2.78261" height="2.78261" transform="matrix(-1 0 0 1 5.56519 33.3915)" fill="#5B62FF"/>
<rect width="2.78261" height="2.78261" transform="matrix(-1 0 0 1 5.56519 36.1741)" fill="#5B62FF"/>
<rect width="2.78261" height="2.78261" transform="matrix(-1 0 0 1 2.78259 36.1741)" fill="#5B62FF"/>
<rect width="2.78261" height="2.78261" transform="matrix(-1 0 0 1 25.0436 36.1741)" fill="#5B62FF"/>
<rect width="2.78261" height="2.78261" transform="matrix(-1 0 0 1 8.34778 22.2607)" fill="#FCAF53"/>
<rect width="2.78261" height="2.78261" transform="matrix(-1 0 0 1 8.34778 13.913)" fill="#FCAF53"/>
<rect width="2.78261" height="2.78261" transform="matrix(-1 0 0 1 8.34778 8.34778)" fill="#FCAF53"/>
<rect width="2.78261" height="2.78261" transform="matrix(-1 0 0 1 8.34778 25.0433)" fill="#FCAF53"/>
<rect width="2.78261" height="2.78261" transform="matrix(-1 0 0 1 8.34778 16.6956)" fill="#FCAF53"/>
<rect width="2.78261" height="2.78261" transform="matrix(-1 0 0 1 16.6958 19.4781)" fill="#FCAF53"/>
<rect width="2.78261" height="2.78261" transform="matrix(-1 0 0 1 16.6958 11.1304)" fill="#FCAF53"/>
<rect width="2.78261" height="2.78261" transform="matrix(-1 0 0 1 16.6958 27.8259)" fill="#FCAF53"/>
<rect width="2.78261" height="2.78261" transform="matrix(-1 0 0 1 16.6958 33.3915)" fill="#5B62FF"/>
<rect width="2.78261" height="2.78261" transform="matrix(-1 0 0 1 16.6958 36.1741)" fill="#5B62FF"/>
<rect width="2.78261" height="2.78261" transform="matrix(-1 0 0 1 13.913 38.9567)" fill="#5B62FF"/>
<rect width="2.78261" height="2.78261" transform="matrix(-1 0 0 1 11.1304 38.9567)" fill="#5B62FF"/>
<rect width="2.78261" height="2.78261" transform="matrix(-1 0 0 1 19.4784 38.9567)" fill="#5B62FF"/>
<rect width="2.78261" height="2.78261" transform="matrix(-1 0 0 1 22.261 38.9567)" fill="#5B62FF"/>
<rect width="2.78261" height="2.78261" transform="matrix(-1 0 0 1 8.34778 38.9567)" fill="#5B62FF"/>
<rect width="2.78261" height="2.78261" transform="matrix(-1 0 0 1 5.56519 38.9567)" fill="#5B62FF"/>
<rect width="2.78261" height="2.78261" transform="matrix(-1 0 0 1 2.78259 38.9567)" fill="#5B62FF"/>
<rect width="2.78261" height="2.78261" transform="matrix(-1 0 0 1 25.0436 38.9567)" fill="#5B62FF"/>
<rect width="2.78261" height="2.78261" transform="matrix(-1 0 0 1 16.6958 38.9567)" fill="#5B62FF"/>
<rect width="2.78261" height="2.78261" transform="matrix(-1 0 0 1 13.913 41.7393)" fill="#5B62FF"/>
<rect width="2.78261" height="2.78261" transform="matrix(-1 0 0 1 11.1304 41.7393)" fill="#5B62FF"/>
<rect width="2.78261" height="2.78261" transform="matrix(-1 0 0 1 19.4784 41.7393)" fill="#5B62FF"/>
<rect width="2.78261" height="2.78261" transform="matrix(-1 0 0 1 22.261 41.7393)" fill="#5B62FF"/>
<rect width="2.78261" height="2.78261" transform="matrix(-1 0 0 1 8.34778 41.7393)" fill="#5B62FF"/>
<rect width="2.78261" height="2.78261" transform="matrix(-1 0 0 1 5.56519 41.7393)" fill="#5B62FF"/>
<rect width="2.78261" height="2.78261" transform="matrix(-1 0 0 1 2.78259 41.7393)" fill="#5B62FF"/>
<rect width="2.78261" height="2.78261" transform="matrix(-1 0 0 1 25.0436 41.7393)" fill="#5B62FF"/>
<rect width="2.78261" height="2.78261" transform="matrix(-1 0 0 1 16.6958 41.7393)" fill="#5B62FF"/>
<rect width="2.78261" height="2.78261" transform="matrix(-1 0 0 1 13.913 44.5219)" fill="#5B62FF"/>
<rect width="2.78261" height="2.78261" transform="matrix(-1 0 0 1 11.1304 44.5219)" fill="#5B62FF"/>
<rect width="2.78261" height="2.78261" transform="matrix(-1 0 0 1 19.4784 44.5219)" fill="#5B62FF"/>
<rect width="2.78261" height="2.78261" transform="matrix(-1 0 0 1 22.261 44.5219)" fill="#5B62FF"/>
<rect width="2.78261" height="2.78261" transform="matrix(-1 0 0 1 8.34778 44.5219)" fill="#5B62FF"/>
<rect width="2.78261" height="2.78261" transform="matrix(-1 0 0 1 5.56519 44.5219)" fill="#5B62FF"/>
<rect width="2.78261" height="2.78261" transform="matrix(-1 0 0 1 2.78259 44.5219)" fill="#5B62FF"/>
<rect width="2.78261" height="2.78261" transform="matrix(-1 0 0 1 25.0436 44.5219)" fill="#5B62FF"/>
<rect width="2.78261" height="2.78261" transform="matrix(-1 0 0 1 16.6958 44.5219)" fill="#5B62FF"/>
<rect width="2.78261" height="2.78261" transform="matrix(-1 0 0 1 13.913 47.3044)" fill="#5B62FF"/>
<rect width="2.78261" height="2.78261" transform="matrix(-1 0 0 1 11.1304 47.3044)" fill="#5B62FF"/>
<rect width="2.78261" height="2.78261" transform="matrix(-1 0 0 1 19.4784 47.3044)" fill="#5B62FF"/>
<rect width="2.78261" height="2.78261" transform="matrix(-1 0 0 1 22.261 47.3044)" fill="#5B62FF"/>
<rect width="2.78261" height="2.78261" transform="matrix(-1 0 0 1 8.34778 47.3044)" fill="#5B62FF"/>
<rect width="2.78261" height="2.78261" transform="matrix(-1 0 0 1 5.56519 47.3044)" fill="#FCAF53"/>
<rect width="2.78261" height="2.78261" transform="matrix(-1 0 0 1 2.78259 47.3044)" fill="#FCAF53"/>
<rect width="2.78261" height="2.78261" transform="matrix(-1 0 0 1 25.0436 47.3044)" fill="#5B62FF"/>
<rect width="2.78261" height="2.78261" transform="matrix(-1 0 0 1 16.6958 47.3044)" fill="#5B62FF"/>
<rect width="2.78261" height="2.78261" transform="matrix(-1 0 0 1 13.913 50.087)" fill="#5B62FF"/>
<rect width="2.78261" height="2.78261" transform="matrix(-1 0 0 1 11.1304 50.087)" fill="#5B62FF"/>
<rect width="2.78261" height="2.78261" transform="matrix(-1 0 0 1 19.4784 50.087)" fill="#5B62FF"/>
<rect width="2.78261" height="2.78261" transform="matrix(-1 0 0 1 22.261 50.087)" fill="#5B62FF"/>
<rect width="2.78261" height="2.78261" transform="matrix(-1 0 0 1 8.34778 50.087)" fill="#5B62FF"/>
<rect width="2.78261" height="2.78261" transform="matrix(-1 0 0 1 5.56519 50.087)" fill="#FCAF53"/>
<rect width="2.78261" height="2.78261" transform="matrix(-1 0 0 1 2.78259 50.087)" fill="#FCAF53"/>
<rect width="2.78261" height="2.78261" transform="matrix(-1 0 0 1 25.0436 50.087)" fill="#5B62FF"/>
<rect width="2.78261" height="2.78261" transform="matrix(-1 0 0 1 22.261 47.3044)" fill="#FCAF53"/>
<rect width="2.78261" height="2.78261" transform="matrix(-1 0 0 1 25.0436 47.3044)" fill="#FCAF53"/>
<rect width="2.78261" height="2.78261" transform="matrix(-1 0 0 1 5.56519 44.5219)" fill="#FCAF53"/>
<rect width="2.78261" height="2.78261" transform="matrix(-1 0 0 1 5.56519 41.7393)" fill="#FCAF53"/>
<rect width="2.78261" height="2.78261" transform="matrix(-1 0 0 1 2.78259 44.5219)" fill="#FCAF53"/>
<rect width="2.78261" height="2.78261" transform="matrix(-1 0 0 1 2.78259 41.7393)" fill="#FCAF53"/>
<rect width="2.78261" height="2.78261" transform="matrix(-1 0 0 1 22.261 44.5219)" fill="#FCAF53"/>
<rect width="2.78261" height="2.78261" transform="matrix(-1 0 0 1 22.261 41.7393)" fill="#FCAF53"/>
<rect width="2.78261" height="2.78261" transform="matrix(-1 0 0 1 25.0436 44.5219)" fill="#FCAF53"/>
<rect width="2.78261" height="2.78261" transform="matrix(-1 0 0 1 25.0436 41.7393)" fill="#FCAF53"/>
<rect width="2.78261" height="2.78261" transform="matrix(-1 0 0 1 22.261 50.087)" fill="#FCAF53"/>
<rect width="2.78261" height="2.78261" transform="matrix(-1 0 0 1 5.56519 50.087)" fill="#EC9833"/>
<rect width="2.78261" height="2.78261" transform="matrix(-1 0 0 1 22.261 50.087)" fill="#EC9833"/>
<rect width="2.78261" height="2.78261" transform="matrix(-1 0 0 1 25.0436 50.087)" fill="#FCAF53"/>
<rect width="2.78261" height="2.78261" transform="matrix(-1 0 0 1 16.6958 52.8696)" fill="#5585FF"/>
<rect width="2.78261" height="2.78261" transform="matrix(-1 0 0 1 16.6958 58.4348)" fill="#5585FF"/>
<rect width="2.78261" height="2.78261" transform="matrix(-1 0 0 1 8.34778 52.8696)" fill="#5585FF"/>
<rect width="2.78261" height="2.78261" transform="matrix(-1 0 0 1 8.34778 58.4348)" fill="#5585FF"/>
<rect width="2.78261" height="2.78261" transform="matrix(-1 0 0 1 19.4784 52.8696)" fill="#5585FF"/>
<rect width="2.78261" height="2.78261" transform="matrix(-1 0 0 1 19.4784 58.4348)" fill="#5585FF"/>
<rect width="2.78261" height="2.78261" transform="matrix(-1 0 0 1 11.1304 52.8696)" fill="#5585FF"/>
<rect width="2.78261" height="2.78261" transform="matrix(-1 0 0 1 11.1304 58.4348)" fill="#5585FF"/>
<rect width="2.78261" height="2.78261" transform="matrix(-1 0 0 1 16.6958 55.6522)" fill="#5585FF"/>
<rect width="2.78261" height="2.78261" transform="matrix(-1 0 0 1 16.6958 61.2174)" fill="black"/>
<rect width="2.78261" height="2.78261" transform="matrix(-1 0 0 1 8.34778 55.6522)" fill="#5585FF"/>
<rect width="2.78261" height="2.78261" transform="matrix(-1 0 0 1 8.34778 61.2174)" fill="black"/>
<rect width="2.78261" height="2.78261" transform="matrix(-1 0 0 1 19.4784 55.6522)" fill="#5585FF"/>
<rect width="2.78261" height="2.78261" transform="matrix(-1 0 0 1 19.4784 61.2174)" fill="black"/>
<rect width="2.78261" height="2.78261" transform="matrix(-1 0 0 1 11.1304 55.6522)" fill="#5585FF"/>
<rect width="2.78261" height="2.78261" transform="matrix(-1 0 0 1 11.1304 61.2174)" fill="black"/>
<rect width="2.78261" height="2.78261" transform="matrix(-1 0 0 1 16.6958 50.087)" fill="#5B62FF"/>
<rect width="2.78261" height="2.78261" transform="matrix(-1 0 0 1 16.6958 30.6085)" fill="#EC9833"/>
<rect width="2.78261" height="2.78261" transform="matrix(-1 0 0 1 16.6958 22.2607)" fill="#FCAF53"/>
<rect width="2.78261" height="2.78261" transform="matrix(-1 0 0 1 16.6958 13.913)" fill="#FCAF53"/>
<rect width="2.78261" height="2.78261" transform="matrix(-1 0 0 1 16.6958 8.34778)" fill="#FCAF53"/>
<rect width="2.78261" height="2.78261" transform="matrix(-1 0 0 1 16.6958 25.0433)" fill="#FCAF53"/>
<rect width="2.78261" height="2.78261" transform="matrix(-1 0 0 1 16.6958 16.6956)" fill="#FCAF53"/>
<rect width="2.78261" height="2.78261" transform="matrix(-1 0 0 1 5.56519 19.4781)" fill="#FCAF53"/>
<rect width="2.78261" height="2.78261" transform="matrix(-1 0 0 1 5.56519 11.1304)" fill="#FCAF53"/>
<rect width="2.78261" height="2.78261" transform="matrix(-1 0 0 1 5.56519 22.2607)" fill="#FCAF53"/>
<rect width="2.78261" height="2.78261" transform="matrix(-1 0 0 1 5.56519 13.913)" fill="#FCAF53"/>
<rect width="2.78261" height="2.78261" transform="matrix(-1 0 0 1 5.56519 8.34778)" fill="#FCAF53"/>
<rect width="2.78261" height="2.78261" transform="matrix(-1 0 0 1 5.56519 25.0433)" fill="#FCAF53"/>
<rect width="2.78261" height="2.78261" transform="matrix(-1 0 0 1 8.34778 25.0433)" fill="#FCAF53"/>
<rect width="2.78261" height="2.78261" transform="matrix(-1 0 0 1 5.56519 16.6956)" fill="#FCAF53"/>
<rect width="2.78261" height="2.78261" transform="matrix(-1 0 0 1 2.78259 22.2607)" fill="#FCAF53"/>
<rect width="2.78261" height="2.78261" transform="matrix(-1 0 0 1 2.78259 19.4781)" fill="#EC9833"/>
<rect width="2.78261" height="2.78261" transform="matrix(-1 0 0 1 13.913 8.34778)" fill="#91734F"/>
<rect width="2.78261" height="2.78261" transform="matrix(-1 0 0 1 22.261 8.34778)" fill="#91734F"/>
<rect width="2.78261" height="2.78261" transform="matrix(-1 0 0 1 22.261 11.1304)" fill="#91734F"/>
<rect width="2.78261" height="2.78261" transform="matrix(-1 0 0 1 9.73901 13.913)" fill="#341C00"/>
<rect width="2.78261" height="2.78261" transform="matrix(-1 0 0 1 9.73901 16.6956)" fill="#341C00"/>
<rect width="2.78261" height="2.78261" transform="matrix(-1 0 0 1 22.261 13.913)" fill="#91734F"/>
<rect width="2.78261" height="2.78261" transform="matrix(-1 0 0 1 22.261 16.6956)" fill="#91734F"/>
<rect width="2.78261" height="2.78261" transform="matrix(-1 0 0 1 11.1304 8.34778)" fill="#91734F"/>
<rect width="2.78261" height="2.78261" transform="matrix(-1 0 0 1 19.4784 8.34778)" fill="#91734F"/>
<rect width="2.78261" height="2.78261" transform="matrix(-1 0 0 1 8.34778 8.34778)" fill="#91734F"/>
<rect width="2.78261" height="2.78261" transform="matrix(-1 0 0 1 16.6958 8.34778)" fill="#91734F"/>
<rect width="2.78261" height="2.78261" transform="matrix(-1 0 0 1 5.56519 8.34778)" fill="#91734F"/>
</svg>
