<svg width="28" height="51" viewBox="0 0 28 51" fill="none" xmlns="http://www.w3.org/2000/svg">
<rect width="2.18261" height="2.18261" transform="matrix(-1 0 0 1 19.6434 2.18268)" fill="#473800"/>
<rect width="2.18261" height="2.18261" transform="matrix(-1 0 0 1 19.6434 15.2781)" fill="#FFCA8B"/>
<rect width="2.18261" height="2.18261" transform="matrix(-1 0 0 1 21.826 15.2781)" fill="#473800"/>
<rect width="2.18261" height="2.18261" transform="matrix(-1 0 0 1 19.6434 8.73041)" fill="#FFCA8B"/>
<rect width="2.18261" height="2.18261" transform="matrix(-1 0 0 1 21.826 8.73041)" fill="#473800"/>
<rect width="2.18261" height="2.18261" transform="matrix(-1 0 0 1 19.6434 4.36536)" fill="#473800"/>
<rect width="2.18261" height="2.18261" transform="matrix(-1 0 0 1 21.826 4.36536)" fill="#473800"/>
<rect width="2.18261" height="2.18261" transform="matrix(-1 0 0 1 21.826 6.54767)" fill="#473800"/>
<rect width="2.18261" height="2.18261" transform="matrix(-1 0 0 1 23.826 6.54785)" fill="#473800"/>
<rect width="2.18261" height="2.18261" transform="matrix(-1 0 0 1 23.826 8.54785)" fill="#473800"/>
<rect width="2.18261" height="2.18261" transform="matrix(-1 0 0 1 25.826 8.54785)" fill="#473800"/>
<rect width="2.18261" height="2.18261" transform="matrix(-1 0 0 1 25.826 10.5479)" fill="#473800"/>
<rect width="2.18261" height="2.18261" transform="matrix(-1 0 0 1 25.826 12.5479)" fill="#473800"/>
<rect width="2.18261" height="2.18261" transform="matrix(-1 0 0 1 25.826 14.5479)" fill="#473800"/>
<rect width="2.18261" height="2.18261" transform="matrix(-1 0 0 1 25.826 16.5479)" fill="#473800"/>
<rect width="2.18261" height="2.18261" transform="matrix(-1 0 0 1 27.826 8.54785)" fill="#473800"/>
<rect width="2.18261" height="2.18261" transform="matrix(-1 0 0 1 27.826 10.5479)" fill="#473800"/>
<rect width="2.18261" height="2.18261" transform="matrix(-1 0 0 1 27.826 12.5479)" fill="#473800"/>
<rect width="2.18261" height="2.18261" transform="matrix(-1 0 0 1 27.826 14.5479)" fill="#473800"/>
<rect width="2.18261" height="2.18261" transform="matrix(-1 0 0 1 19.6434 17.4608)" fill="#FFCA8B"/>
<rect width="2.18261" height="2.18261" transform="matrix(-1 0 0 1 21.826 17.4608)" fill="#473800"/>
<rect width="2.18261" height="2.18261" transform="matrix(-1 0 0 1 21.826 19.6402)" fill="#473800"/>
<rect width="2.18261" height="2.18261" transform="matrix(-1 0 0 1 19.6434 10.9131)" fill="#FFCA8B"/>
<rect width="2.18261" height="2.18261" transform="matrix(-1 0 0 1 21.826 10.9131)" fill="#473800"/>
<rect width="2.18261" height="2.18261" transform="matrix(-1 0 0 1 19.6434 6.54767)" fill="#FFCA8B"/>
<rect width="2.18261" height="2.18261" transform="matrix(-1 0 0 1 19.6434 19.6434)" fill="#FFCA8B"/>
<rect width="2.18261" height="2.18261" transform="matrix(-1 0 0 1 19.6434 19.6434)" fill="#473800"/>
<rect width="2.18261" height="2.18261" transform="matrix(-1 0 0 1 10.9131 2.18268)" fill="#473800"/>
<rect width="2.18261" height="2.18261" transform="matrix(-1 0 0 1 10.9131 0)" fill="#473800"/>
<rect width="2.18261" height="2.18261" transform="matrix(-1 0 0 1 19.6434 6.54767)" fill="#473800"/>
<rect width="2.18261" height="2.18261" transform="matrix(-1 0 0 1 19.6434 13.0958)" fill="#FFCA8B"/>
<rect width="2.18261" height="2.18261" transform="matrix(-1 0 0 1 21.826 13.0958)" fill="#473800"/>
<rect width="2.18261" height="2.18261" transform="matrix(-1 0 0 1 19.6434 15.2781)" fill="#473800"/>
<rect width="2.18261" height="2.18261" transform="matrix(-1 0 0 1 19.6434 8.73041)" fill="#473800"/>
<rect width="2.18261" height="2.18261" transform="matrix(-1 0 0 1 19.6434 17.4608)" fill="#473800"/>
<rect width="2.18261" height="2.18261" transform="matrix(-1 0 0 1 19.6434 10.9131)" fill="#473800"/>
<rect width="2.18261" height="2.18261" transform="matrix(-1 0 0 1 19.6434 13.0958)" fill="#473800"/>
<rect width="2.18261" height="2.18261" transform="matrix(-1 0 0 1 10.9131 4.36536)" fill="#473800"/>
<rect width="2.18261" height="2.18261" transform="matrix(-1 0 0 1 10.9131 15.2781)" fill="#FFCA8B"/>
<rect width="2.18261" height="2.18261" transform="matrix(-1 0 0 1 10.9131 8.73041)" fill="#FFCA8B"/>
<rect width="2.18261" height="2.18261" transform="matrix(-1 0 0 1 10.9131 21.8262)" fill="#FFCA8B"/>
<rect width="2.18261" height="2.18261" transform="matrix(-1 0 0 1 10.9131 26.1912)" fill="#FFA5EB"/>
<rect width="2.18261" height="2.18261" transform="matrix(-1 0 0 1 10.9131 28.3738)" fill="#FFA5EB"/>
<rect width="2.18261" height="2.18261" transform="matrix(-1 0 0 1 10.9131 24.0089)" fill="#FFCA8B"/>
<rect width="2.18261" height="2.18261" transform="matrix(-1 0 0 1 10.9131 26.1912)" fill="#FEB55D"/>
<rect width="2.18261" height="2.18261" transform="matrix(-1 0 0 1 17.4609 2.18268)" fill="#473800"/>
<rect width="2.18261" height="2.18261" transform="matrix(-1 0 0 1 17.4609 0)" fill="#473800"/>
<rect width="2.18261" height="2.18261" transform="matrix(-1 0 0 1 10.9131 17.4608)" fill="#FFCA8B"/>
<rect width="2.18261" height="2.18261" transform="matrix(-1 0 0 1 17.4609 4.36536)" fill="#473800"/>
<rect width="2.18261" height="2.18261" transform="matrix(-1 0 0 1 10.9131 10.9131)" fill="#FFCA8B"/>
<rect width="2.18261" height="2.18261" transform="matrix(-1 0 0 1 10.9131 6.54767)" fill="#FFCA8B"/>
<rect width="2.18261" height="2.18261" transform="matrix(-1 0 0 1 10.9131 19.6434)" fill="#FFCA8B"/>
<rect width="2.18261" height="2.18261" transform="matrix(-1 0 0 1 10.9131 13.0958)" fill="#FFCA8B"/>
<rect width="2.18261" height="2.18261" transform="matrix(-1 0 0 1 8.73047 2.18268)" fill="#473800"/>
<rect width="2.18261" height="2.18261" transform="matrix(-1 0 0 1 8.73047 0)" fill="#473800"/>
<rect width="2.18261" height="2.18261" transform="matrix(-1 0 0 1 17.4609 15.2781)" fill="#FFCA8B"/>
<rect width="2.18261" height="2.18261" transform="matrix(-1 0 0 1 17.4609 8.73041)" fill="#FFCA8B"/>
<rect width="2.18261" height="2.18261" transform="matrix(-1 0 0 1 8.73047 4.36536)" fill="#473800"/>
<rect width="2.18261" height="2.18261" transform="matrix(-1 0 0 1 17.4609 17.4608)" fill="#FFCA8B"/>
<rect width="2.18261" height="2.18261" transform="matrix(-1 0 0 1 17.4609 10.9131)" fill="#FFCA8B"/>
<rect width="2.18261" height="2.18261" transform="matrix(-1 0 0 1 17.4609 6.54767)" fill="#FFCA8B"/>
<rect width="2.18261" height="2.18261" transform="matrix(-1 0 0 1 17.4609 19.6434)" fill="#FFCA8B"/>
<rect width="2.18261" height="2.18261" transform="matrix(-1 0 0 1 17.4609 13.0958)" fill="#FFCA8B"/>
<rect width="2.18261" height="2.18261" transform="matrix(-1 0 0 1 15.2783 2.18268)" fill="#473800"/>
<rect width="2.18261" height="2.18261" transform="matrix(-1 0 0 1 15.2783 0)" fill="#473800"/>
<rect width="2.18261" height="2.18261" transform="matrix(-1 0 0 1 8.73047 15.2781)" fill="#FFCA8B"/>
<rect width="2.18261" height="2.18261" transform="matrix(-1 0 0 1 15.2783 4.36536)" fill="#473800"/>
<rect width="2.18261" height="2.18261" transform="matrix(-1 0 0 1 8.73047 8.73041)" fill="#FFCA8B"/>
<rect width="2.18261" height="2.18261" transform="matrix(-1 0 0 1 8.73047 21.8262)" fill="#FFCA8B"/>
<rect width="2.18261" height="2.18261" transform="matrix(-1 0 0 1 8.73047 26.1912)" fill="#FFA5EB"/>
<rect width="2.18261" height="2.18261" transform="matrix(-1 0 0 1 8.73047 28.3738)" fill="#FFA5EB"/>
<rect width="2.18261" height="2.18261" transform="matrix(-1 0 0 1 8.73047 24.0089)" fill="#FEB55D"/>
<rect width="2.18261" height="2.18261" transform="matrix(-1 0 0 1 8.73047 17.4608)" fill="#FFCA8B"/>
<rect width="2.18261" height="2.18261" transform="matrix(-1 0 0 1 6.54785 2.18268)" fill="#473800"/>
<rect width="2.18261" height="2.18261" transform="matrix(-1 0 0 1 6.54785 0)" fill="#473800"/>
<rect width="2.18261" height="2.18261" transform="matrix(-1 0 0 1 8.73047 10.9131)" fill="#FFCA8B"/>
<rect width="2.18261" height="2.18261" transform="matrix(-1 0 0 1 8.73047 6.54767)" fill="#FFCA8B"/>
<rect width="2.18261" height="2.18261" transform="matrix(-1 0 0 1 8.73047 19.6434)" fill="#FFCA8B"/>
<rect width="2.18261" height="2.18261" transform="matrix(-1 0 0 1 6.54785 4.36536)" fill="#473800"/>
<rect width="2.18261" height="2.18261" transform="matrix(-1 0 0 1 8.73047 13.0958)" fill="#FFCA8B"/>
<rect width="2.18261" height="2.18261" transform="matrix(-1 0 0 1 15.2783 15.2781)" fill="#FFCA8B"/>
<rect width="2.18261" height="2.18261" transform="matrix(-1 0 0 1 15.2783 8.73041)" fill="#FFCA8B"/>
<rect width="2.18261" height="2.18261" transform="matrix(-1 0 0 1 13.0957 2.18268)" fill="#473800"/>
<rect width="2.18261" height="2.18261" transform="matrix(-1 0 0 1 13.0957 0)" fill="#473800"/>
<rect width="2.18261" height="2.18261" transform="matrix(-1 0 0 1 15.2783 21.8262)" fill="#FEB55D"/>
<rect width="2.18261" height="2.18261" transform="matrix(-1 0 0 1 15.2783 26.1912)" fill="#FFA5EB"/>
<rect width="2.18261" height="2.18261" transform="matrix(-1 0 0 1 15.2783 28.3738)" fill="#FFA5EB"/>
<rect width="2.18261" height="2.18261" transform="matrix(-1 0 0 1 17.4609 26.1912)" fill="#FFA5EB"/>
<rect width="2.18261" height="2.18261" transform="matrix(-1 0 0 1 17.4609 28.3738)" fill="#FFA5EB"/>
<rect width="2.18261" height="2.18261" transform="matrix(-1 0 0 1 15.2783 17.4608)" fill="#FFCA8B"/>
<rect width="2.18261" height="2.18261" transform="matrix(-1 0 0 1 15.2783 10.9131)" fill="#FFCA8B"/>
<rect width="2.18261" height="2.18261" transform="matrix(-1 0 0 1 13.0957 4.36536)" fill="#473800"/>
<rect width="2.18261" height="2.18261" transform="matrix(-1 0 0 1 15.2783 6.54767)" fill="#FFCA8B"/>
<rect width="2.18261" height="2.18261" transform="matrix(-1 0 0 1 15.2783 19.6434)" fill="#FFCA8B"/>
<rect width="2.18261" height="2.18261" transform="matrix(-1 0 0 1 15.2783 13.0958)" fill="#FFCA8B"/>
<rect width="2.18261" height="2.18261" transform="matrix(-1 0 0 1 4.36523 2.18268)" fill="#473800"/>
<rect width="2.18261" height="2.18261" transform="matrix(-1 0 0 1 6.54785 15.2781)" fill="#FFCA8B"/>
<rect width="2.18261" height="2.18261" transform="matrix(-1 0 0 1 6.54785 8.73041)" fill="#FFCA8B"/>
<rect width="2.18261" height="2.18261" transform="matrix(-1 0 0 1 4.36523 4.36536)" fill="#473800"/>
<rect width="2.18261" height="2.18261" transform="matrix(-1 0 0 1 6.54785 21.8262)" fill="#FEB55D"/>
<rect width="2.18261" height="2.18261" transform="matrix(-1 0 0 1 6.54785 26.1912)" fill="#FFA5EB"/>
<rect width="2.18261" height="2.18261" transform="matrix(-1 0 0 1 6.54785 28.3738)" fill="#FFA5EB"/>
<rect width="2.18261" height="2.18261" transform="matrix(-1 0 0 1 4.36523 26.1912)" fill="#FFA5EB"/>
<rect width="2.18261" height="2.18261" transform="matrix(-1 0 0 1 4.36523 28.3738)" fill="#FFA5EB"/>
<rect width="2.18261" height="2.18261" transform="matrix(-1 0 0 1 2.18262 28.3738)" fill="#FFA5EB"/>
<rect width="2.18261" height="2.18261" transform="matrix(-1 0 0 1 19.6434 28.3738)" fill="#FFA5EB"/>
<rect width="2.18261" height="2.18261" transform="matrix(-1 0 0 1 6.54785 17.4608)" fill="#FFCA8B"/>
<rect width="2.18261" height="2.18261" transform="matrix(-1 0 0 1 6.54785 10.9131)" fill="#FFCA8B"/>
<rect width="2.18261" height="2.18261" transform="matrix(-1 0 0 1 6.54785 6.54767)" fill="#FFCA8B"/>
<rect width="2.18261" height="2.18261" transform="matrix(-1 0 0 1 6.54785 19.6434)" fill="#FFCA8B"/>
<rect width="2.18261" height="2.18261" transform="matrix(-1 0 0 1 6.54785 13.0958)" fill="#FFCA8B"/>
<rect width="2.18261" height="2.18261" transform="matrix(-1 0 0 1 13.0957 15.2781)" fill="#FFCA8B"/>
<rect width="2.18261" height="2.18261" transform="matrix(-1 0 0 1 13.0957 8.73041)" fill="#FFCA8B"/>
<rect width="2.18261" height="2.18261" transform="matrix(-1 0 0 1 13.0957 21.8262)" fill="#FFCA8B"/>
<rect width="2.18261" height="2.18261" transform="matrix(-1 0 0 1 13.0957 26.1912)" fill="#FFA5EB"/>
<rect width="2.18261" height="2.18261" transform="matrix(-1 0 0 1 13.0957 28.3738)" fill="#FFA5EB"/>
<rect width="2.18261" height="2.18261" transform="matrix(-1 0 0 1 10.9131 30.5565)" fill="#FFA5EB"/>
<rect width="2.18261" height="2.18261" transform="matrix(-1 0 0 1 8.73047 30.5565)" fill="#FFA5EB"/>
<rect width="2.18261" height="2.18261" transform="matrix(-1 0 0 1 15.2783 30.5565)" fill="#FFA5EB"/>
<rect width="2.18261" height="2.18261" transform="matrix(-1 0 0 1 17.4609 30.5565)" fill="#FFA5EB"/>
<rect width="2.18261" height="2.18261" transform="matrix(-1 0 0 1 6.54785 30.5565)" fill="#FFA5EB"/>
<rect width="2.18261" height="2.18261" transform="matrix(-1 0 0 1 4.36523 30.5565)" fill="#FFA5EB"/>
<rect width="2.18261" height="2.18261" transform="matrix(-1 0 0 1 2.18262 30.5565)" fill="#FFA5EB"/>
<rect width="2.18261" height="2.18261" transform="matrix(-1 0 0 1 19.6434 30.5565)" fill="#FFA5EB"/>
<rect width="2.18261" height="2.18261" transform="matrix(-1 0 0 1 13.0957 30.5565)" fill="#FFA5EB"/>
<rect width="2.18261" height="2.18261" transform="matrix(-1 0 0 1 10.9131 32.7393)" fill="#FFA5EB"/>
<rect width="2.18261" height="2.18261" transform="matrix(-1 0 0 1 8.73047 32.7393)" fill="#FFA5EB"/>
<rect width="2.18261" height="2.18261" transform="matrix(-1 0 0 1 15.2783 32.7393)" fill="#FFA5EB"/>
<rect width="2.18261" height="2.18261" transform="matrix(-1 0 0 1 17.4609 32.7393)" fill="#FFA5EB"/>
<rect width="2.18261" height="2.18261" transform="matrix(-1 0 0 1 6.54785 32.7393)" fill="#FFA5EB"/>
<rect width="2.18261" height="2.18261" transform="matrix(-1 0 0 1 4.36523 32.7393)" fill="#FFA5EB"/>
<rect width="2.18261" height="2.18261" transform="matrix(-1 0 0 1 2.18262 32.7393)" fill="#FFA5EB"/>
<rect width="2.18261" height="2.18261" transform="matrix(-1 0 0 1 19.6434 32.7393)" fill="#FFA5EB"/>
<rect width="2.18261" height="2.18261" transform="matrix(-1 0 0 1 13.0957 32.7393)" fill="#FFA5EB"/>
<rect width="2.18261" height="2.18261" transform="matrix(-1 0 0 1 10.9131 34.9219)" fill="#FFA5EB"/>
<rect width="2.18261" height="2.18261" transform="matrix(-1 0 0 1 8.73047 34.9219)" fill="#FFA5EB"/>
<rect width="2.18261" height="2.18261" transform="matrix(-1 0 0 1 15.2783 34.9219)" fill="#FFA5EB"/>
<rect width="2.18261" height="2.18261" transform="matrix(-1 0 0 1 17.4609 34.9219)" fill="#FFA5EB"/>
<rect width="2.18261" height="2.18261" transform="matrix(-1 0 0 1 6.54785 34.9219)" fill="#FFA5EB"/>
<rect width="2.18261" height="2.18261" transform="matrix(-1 0 0 1 4.36523 34.9219)" fill="#FFA5EB"/>
<rect width="2.18261" height="2.18261" transform="matrix(-1 0 0 1 2.18262 34.9219)" fill="#FFA5EB"/>
<rect width="2.18261" height="2.18261" transform="matrix(-1 0 0 1 19.6434 34.9219)" fill="#FFA5EB"/>
<rect width="2.18261" height="2.18261" transform="matrix(-1 0 0 1 13.0957 34.9219)" fill="#FFA5EB"/>
<rect width="2.18261" height="2.18261" transform="matrix(-1 0 0 1 10.9131 37.1042)" fill="#FFA5EB"/>
<rect width="2.18261" height="2.18261" transform="matrix(-1 0 0 1 8.73047 37.1042)" fill="#FFA5EB"/>
<rect width="2.18261" height="2.18261" transform="matrix(-1 0 0 1 15.2783 37.1042)" fill="#FFA5EB"/>
<rect width="2.18261" height="2.18261" transform="matrix(-1 0 0 1 17.4609 37.1042)" fill="#FFA5EB"/>
<rect width="2.18261" height="2.18261" transform="matrix(-1 0 0 1 6.54785 37.1042)" fill="#FFA5EB"/>
<rect width="2.18261" height="2.18261" transform="matrix(-1 0 0 1 4.36523 37.1042)" fill="#FFCA8B"/>
<rect width="2.18261" height="2.18261" transform="matrix(-1 0 0 1 2.18262 37.1042)" fill="#FFCA8B"/>
<rect width="2.18261" height="2.18261" transform="matrix(-1 0 0 1 19.6434 37.1042)" fill="#FFA5EB"/>
<rect width="2.18261" height="2.18261" transform="matrix(-1 0 0 1 13.0957 37.1042)" fill="#FFA5EB"/>
<rect width="2.18261" height="2.18261" transform="matrix(-1 0 0 1 10.9131 39.2869)" fill="#FFA5EB"/>
<rect width="2.18261" height="2.18261" transform="matrix(-1 0 0 1 8.73047 39.2869)" fill="#FFA5EB"/>
<rect width="2.18261" height="2.18261" transform="matrix(-1 0 0 1 15.2783 39.2869)" fill="#FFA5EB"/>
<rect width="2.18261" height="2.18261" transform="matrix(-1 0 0 1 17.4609 39.2869)" fill="#FFA5EB"/>
<rect width="2.18261" height="2.18261" transform="matrix(-1 0 0 1 6.54785 39.2869)" fill="#FFA5EB"/>
<rect width="2.18261" height="2.18261" transform="matrix(-1 0 0 1 4.36523 39.2869)" fill="#FFCA8B"/>
<rect width="2.18261" height="2.18261" transform="matrix(-1 0 0 1 2.18262 39.2869)" fill="#FFCA8B"/>
<rect width="2.18261" height="2.18261" transform="matrix(-1 0 0 1 19.6434 39.2869)" fill="#FFA5EB"/>
<rect width="2.18261" height="2.18261" transform="matrix(-1 0 0 1 17.4609 37.1042)" fill="#FFCA8B"/>
<rect width="2.18261" height="2.18261" transform="matrix(-1 0 0 1 19.6434 37.1042)" fill="#FFCA8B"/>
<rect width="2.18261" height="2.18261" transform="matrix(-1 0 0 1 4.36523 34.9219)" fill="#FFCA8B"/>
<rect width="2.18261" height="2.18261" transform="matrix(-1 0 0 1 4.36523 32.7393)" fill="#FFCA8B"/>
<rect width="2.18261" height="2.18261" transform="matrix(-1 0 0 1 2.18262 34.9219)" fill="#FFCA8B"/>
<rect width="2.18261" height="2.18261" transform="matrix(-1 0 0 1 2.18262 32.7393)" fill="#FFCA8B"/>
<rect width="2.18261" height="2.18261" transform="matrix(-1 0 0 1 17.4609 34.9219)" fill="#FFCA8B"/>
<rect width="2.18261" height="2.18261" transform="matrix(-1 0 0 1 17.4609 32.7393)" fill="#FFCA8B"/>
<rect width="2.18261" height="2.18261" transform="matrix(-1 0 0 1 19.6434 34.9219)" fill="#FFCA8B"/>
<rect width="2.18261" height="2.18261" transform="matrix(-1 0 0 1 19.6434 32.7393)" fill="#FFCA8B"/>
<rect width="2.18261" height="2.18261" transform="matrix(-1 0 0 1 17.4609 39.2869)" fill="#FFCA8B"/>
<rect width="2.18261" height="2.18261" transform="matrix(-1 0 0 1 4.36523 39.2869)" fill="#FEB55D"/>
<rect width="2.18261" height="2.18261" transform="matrix(-1 0 0 1 17.4609 39.2869)" fill="#FEB55D"/>
<rect width="2.18261" height="2.18261" transform="matrix(-1 0 0 1 19.6434 39.2869)" fill="#FFCA8B"/>
<rect width="2.18261" height="2.18261" transform="matrix(-1 0 0 1 13.0957 41.4696)" fill="#FFCA8B"/>
<rect width="2.18261" height="2.18261" transform="matrix(-1 0 0 1 13.0957 45.8346)" fill="#FFCA8B"/>
<rect width="2.18261" height="2.18261" transform="matrix(-1 0 0 1 6.54785 41.4696)" fill="#FFCA8B"/>
<rect width="2.18261" height="2.18261" transform="matrix(-1 0 0 1 6.54785 45.8346)" fill="#FFCA8B"/>
<rect width="2.18261" height="2.18261" transform="matrix(-1 0 0 1 15.2783 41.4696)" fill="#FFCA8B"/>
<rect width="2.18261" height="2.18261" transform="matrix(-1 0 0 1 15.2783 45.8346)" fill="#FFCA8B"/>
<rect width="2.18261" height="2.18261" transform="matrix(-1 0 0 1 8.73047 41.4696)" fill="#FFCA8B"/>
<rect width="2.18261" height="2.18261" transform="matrix(-1 0 0 1 8.73047 45.8346)" fill="#FFCA8B"/>
<rect width="2.18261" height="2.18261" transform="matrix(-1 0 0 1 13.0957 43.6523)" fill="#FFCA8B"/>
<rect width="2.18261" height="2.18261" transform="matrix(-1 0 0 1 13.0957 48.0173)" fill="#FF54CF"/>
<rect width="2.18261" height="2.18261" transform="matrix(-1 0 0 1 6.54785 43.6523)" fill="#FFCA8B"/>
<rect width="2.18261" height="2.18261" transform="matrix(-1 0 0 1 6.54785 48.0173)" fill="#FF54CF"/>
<rect width="2.18261" height="2.18261" transform="matrix(-1 0 0 1 15.2783 43.6523)" fill="#FFCA8B"/>
<rect width="2.18261" height="2.18261" transform="matrix(-1 0 0 1 15.2783 48.0173)" fill="#FF54CF"/>
<rect width="2.18261" height="2.18261" transform="matrix(-1 0 0 1 8.73047 43.6523)" fill="#FFCA8B"/>
<rect width="2.18261" height="2.18261" transform="matrix(-1 0 0 1 8.73047 48.0173)" fill="#FF54CF"/>
<rect width="2.18261" height="2.18261" transform="matrix(-1 0 0 1 13.0957 39.2869)" fill="#FFA5EB"/>
<rect width="2.18261" height="2.18261" transform="matrix(-1 0 0 1 10.9131 41.2871)" fill="#FFA5EB"/>
<rect width="2.18261" height="2.18261" transform="matrix(-1 0 0 1 8.73047 41.2871)" fill="#FFA5EB"/>
<rect width="2.18261" height="2.18261" transform="matrix(-1 0 0 1 15.2783 41.2871)" fill="#FFA5EB"/>
<rect width="2.18261" height="2.18261" transform="matrix(-1 0 0 1 6.54785 41.2871)" fill="#FFA5EB"/>
<rect width="2.18261" height="2.18261" transform="matrix(-1 0 0 1 13.0957 41.2871)" fill="#FFA5EB"/>
<rect width="2.18261" height="2.18261" transform="matrix(-1 0 0 1 13.0957 24.0089)" fill="#FEB55D"/>
<rect width="2.18261" height="2.18261" transform="matrix(-1 0 0 1 13.0957 17.4608)" fill="#FFCA8B"/>
<rect width="2.18261" height="2.18261" transform="matrix(-1 0 0 1 13.0957 10.9131)" fill="#FFCA8B"/>
<rect width="2.18261" height="2.18261" transform="matrix(-1 0 0 1 13.0957 6.54767)" fill="#FFCA8B"/>
<rect width="2.18261" height="2.18261" transform="matrix(-1 0 0 1 13.0957 19.6434)" fill="#FFCA8B"/>
<rect width="2.18261" height="2.18261" transform="matrix(-1 0 0 1 13.0957 13.0958)" fill="#FFCA8B"/>
<rect width="2.18261" height="2.18261" transform="matrix(-1 0 0 1 4.36523 15.2781)" fill="#FFCA8B"/>
<rect width="2.18261" height="2.18261" transform="matrix(-1 0 0 1 4.36523 8.73041)" fill="#FFCA8B"/>
<rect width="2.18261" height="2.18261" transform="matrix(-1 0 0 1 4.36523 17.4608)" fill="#FFCA8B"/>
<rect width="2.18261" height="2.18261" transform="matrix(-1 0 0 1 4.36523 10.9131)" fill="#FFCA8B"/>
<rect width="2.18261" height="2.18261" transform="matrix(-1 0 0 1 4.36523 6.54767)" fill="#FFCA8B"/>
<rect width="2.18261" height="2.18261" transform="matrix(-1 0 0 1 4.36523 19.6434)" fill="#FFCA8B"/>
<rect width="2.18261" height="2.18261" transform="matrix(-1 0 0 1 6.54785 19.6434)" fill="#FFCA8B"/>
<rect width="2.18261" height="2.18261" transform="matrix(-1 0 0 1 4.36523 13.0958)" fill="#FFCA8B"/>
<rect width="2.18261" height="2.18261" transform="matrix(-1 0 0 1 2.18262 17.4608)" fill="#FFCA8B"/>
<rect width="2.18261" height="2.18261" transform="matrix(-1 0 0 1 2.18262 15.2781)" fill="#FEB55D"/>
<rect width="2.18261" height="2.18261" transform="matrix(-1 0 0 1 10.9131 6.54767)" fill="#473800"/>
<rect width="2.18261" height="2.18261" transform="matrix(-1 0 0 1 17.4609 6.54767)" fill="#473800"/>
<rect width="2.18261" height="2.18261" transform="matrix(-1 0 0 1 17.4609 8.73041)" fill="#473800"/>
<rect width="2.18261" height="2.18261" transform="matrix(-1 0 0 1 7.63916 10.9131)" fill="#341C00"/>
<rect width="2.18261" height="2.18261" transform="matrix(-1 0 0 1 7.63916 13.0958)" fill="#341C00"/>
<rect width="2.18261" height="2.18261" transform="matrix(-1 0 0 1 17.4609 10.9131)" fill="#473800"/>
<rect width="2.18261" height="2.18261" transform="matrix(-1 0 0 1 17.4609 13.0958)" fill="#473800"/>
<rect width="2.18261" height="2.18261" transform="matrix(-1 0 0 1 8.73047 6.54767)" fill="#473800"/>
<rect width="2.18261" height="2.18261" transform="matrix(-1 0 0 1 15.2783 6.54767)" fill="#473800"/>
<rect width="2.18261" height="2.18261" transform="matrix(-1 0 0 1 6.54785 6.54767)" fill="#473800"/>
<rect width="2.18261" height="2.18261" transform="matrix(-1 0 0 1 13.0957 6.54767)" fill="#473800"/>
<rect width="2.18261" height="2.18261" transform="matrix(-1 0 0 1 4.36523 6.54767)" fill="#473800"/>
</svg>
