<svg width="28" height="64" viewBox="0 0 28 64" fill="none" xmlns="http://www.w3.org/2000/svg">
<rect width="2.78261" height="2.78261" transform="matrix(-1 0 0 1 25.0435 2.78259)" fill="#E2E2E2"/>
<rect width="2.78261" height="2.78261" transform="matrix(-1 0 0 1 25.0435 19.4783)" fill="#B66C14"/>
<rect width="2.78261" height="2.78261" transform="matrix(-1 0 0 1 27.826 19.4783)" fill="#E2E2E2"/>
<rect width="2.78261" height="2.78261" transform="matrix(-1 0 0 1 25.0435 11.1304)" fill="#B66C14"/>
<rect width="2.78261" height="2.78261" transform="matrix(-1 0 0 1 27.826 11.1304)" fill="#E2E2E2"/>
<rect width="2.78261" height="2.78261" transform="matrix(-1 0 0 1 25.0435 5.56525)" fill="#E2E2E2"/>
<rect width="2.78261" height="2.78261" transform="matrix(-1 0 0 1 27.826 5.56525)" fill="#E2E2E2"/>
<rect width="2.78261" height="2.78261" transform="matrix(-1 0 0 1 27.826 8.34784)" fill="#E2E2E2"/>
<rect width="2.78261" height="2.78261" transform="matrix(-1 0 0 1 25.0435 22.2609)" fill="#B66C14"/>
<rect width="2.78261" height="2.78261" transform="matrix(-1 0 0 1 27.826 22.2609)" fill="#E2E2E2"/>
<rect width="2.78261" height="2.78261" transform="matrix(-1 0 0 1 25.0435 13.913)" fill="#B66C14"/>
<rect width="2.78261" height="2.78261" transform="matrix(-1 0 0 1 27.826 13.913)" fill="#E2E2E2"/>
<rect width="2.78261" height="2.78261" transform="matrix(-1 0 0 1 25.0435 8.34784)" fill="#B66C14"/>
<rect width="2.78261" height="2.78261" transform="matrix(-1 0 0 1 25.0435 25.0435)" fill="#B66C14"/>
<rect width="2.78261" height="2.78261" transform="matrix(-1 0 0 1 25.0435 25.0435)" fill="#E2E2E2"/>
<rect width="2.78261" height="2.78261" transform="matrix(-1 0 0 1 13.9131 2.78259)" fill="#E2E2E2"/>
<rect width="2.78261" height="2.78261" transform="matrix(-1 0 0 1 13.9131 0)" fill="#E2E2E2"/>
<rect width="2.78261" height="2.78261" transform="matrix(-1 0 0 1 25.0435 8.34784)" fill="#E2E2E2"/>
<rect width="2.78261" height="2.78261" transform="matrix(-1 0 0 1 25.0435 16.6957)" fill="#B66C14"/>
<rect width="2.78261" height="2.78261" transform="matrix(-1 0 0 1 27.826 16.6957)" fill="#E2E2E2"/>
<rect width="2.78261" height="2.78261" transform="matrix(-1 0 0 1 25.0435 19.4783)" fill="#E2E2E2"/>
<rect width="2.78261" height="2.78261" transform="matrix(-1 0 0 1 25.0435 11.1304)" fill="#E2E2E2"/>
<rect width="2.78261" height="2.78261" transform="matrix(-1 0 0 1 25.0435 22.2609)" fill="#E2E2E2"/>
<rect width="2.78261" height="2.78261" transform="matrix(-1 0 0 1 25.0435 13.913)" fill="#E2E2E2"/>
<rect width="2.78261" height="2.78261" transform="matrix(-1 0 0 1 25.0435 16.6957)" fill="#E2E2E2"/>
<rect width="2.78261" height="2.78261" transform="matrix(-1 0 0 1 13.9131 5.56525)" fill="#E2E2E2"/>
<rect width="2.78261" height="2.78261" transform="matrix(-1 0 0 1 13.9131 19.4783)" fill="#B66C14"/>
<rect width="2.78261" height="2.78261" transform="matrix(-1 0 0 1 13.9131 11.1304)" fill="#B66C14"/>
<rect width="2.78261" height="2.78261" transform="matrix(-1 0 0 1 13.9131 27.8261)" fill="#B66C14"/>
<rect width="2.78261" height="2.78261" transform="matrix(-1 0 0 1 13.9131 33.3913)" fill="#C93636"/>
<rect width="2.78261" height="2.78261" transform="matrix(-1 0 0 1 13.9131 36.1739)" fill="#C93636"/>
<rect width="2.78261" height="2.78261" transform="matrix(-1 0 0 1 13.9131 30.6087)" fill="#B66C14"/>
<rect width="2.78261" height="2.78261" transform="matrix(-1 0 0 1 13.9131 33.3913)" fill="#965B15"/>
<rect width="2.78261" height="2.78261" transform="matrix(-1 0 0 1 22.2609 2.78259)" fill="#E2E2E2"/>
<rect width="2.78261" height="2.78261" transform="matrix(-1 0 0 1 22.2609 0)" fill="#E2E2E2"/>
<rect width="2.78261" height="2.78261" transform="matrix(-1 0 0 1 13.9131 22.2609)" fill="#B66C14"/>
<rect width="2.78261" height="2.78261" transform="matrix(-1 0 0 1 22.2609 5.56525)" fill="#E2E2E2"/>
<rect width="2.78261" height="2.78261" transform="matrix(-1 0 0 1 13.9131 13.913)" fill="#B66C14"/>
<rect width="2.78261" height="2.78261" transform="matrix(-1 0 0 1 13.9131 8.34784)" fill="#B66C14"/>
<rect width="2.78261" height="2.78261" transform="matrix(-1 0 0 1 13.9131 25.0435)" fill="#B66C14"/>
<rect width="2.78261" height="2.78261" transform="matrix(-1 0 0 1 13.9131 16.6957)" fill="#B66C14"/>
<rect width="2.78261" height="2.78261" transform="matrix(-1 0 0 1 11.1305 2.78259)" fill="#E2E2E2"/>
<rect width="2.78261" height="2.78261" transform="matrix(-1 0 0 1 11.1305 0)" fill="#E2E2E2"/>
<rect width="2.78261" height="2.78261" transform="matrix(-1 0 0 1 22.2609 19.4783)" fill="#B66C14"/>
<rect width="2.78261" height="2.78261" transform="matrix(-1 0 0 1 22.2609 11.1304)" fill="#B66C14"/>
<rect width="2.78261" height="2.78261" transform="matrix(-1 0 0 1 11.1305 5.56525)" fill="#E2E2E2"/>
<rect width="2.78261" height="2.78261" transform="matrix(-1 0 0 1 22.2609 22.2609)" fill="#B66C14"/>
<rect width="2.78261" height="2.78261" transform="matrix(-1 0 0 1 22.2609 13.913)" fill="#B66C14"/>
<rect width="2.78261" height="2.78261" transform="matrix(-1 0 0 1 22.2609 8.34784)" fill="#B66C14"/>
<rect width="2.78261" height="2.78261" transform="matrix(-1 0 0 1 22.2609 25.0435)" fill="#B66C14"/>
<rect width="2.78261" height="2.78261" transform="matrix(-1 0 0 1 22.2609 16.6957)" fill="#B66C14"/>
<rect width="2.78261" height="2.78261" transform="matrix(-1 0 0 1 19.4783 2.78259)" fill="#E2E2E2"/>
<rect width="2.78261" height="2.78261" transform="matrix(-1 0 0 1 19.4783 0)" fill="#E2E2E2"/>
<rect width="2.78261" height="2.78261" transform="matrix(-1 0 0 1 11.1305 19.4783)" fill="#B66C14"/>
<rect width="2.78261" height="2.78261" transform="matrix(-1 0 0 1 19.4783 5.56525)" fill="#E2E2E2"/>
<rect width="2.78261" height="2.78261" transform="matrix(-1 0 0 1 11.1305 11.1304)" fill="#B66C14"/>
<rect width="2.78261" height="2.78261" transform="matrix(-1 0 0 1 11.1305 27.8261)" fill="#B66C14"/>
<rect width="2.78261" height="2.78261" transform="matrix(-1 0 0 1 11.1305 33.3913)" fill="#C93636"/>
<rect width="2.78261" height="2.78261" transform="matrix(-1 0 0 1 11.1305 36.1739)" fill="#C93636"/>
<rect width="2.78261" height="2.78261" transform="matrix(-1 0 0 1 11.1305 30.6087)" fill="#965B15"/>
<rect width="2.78261" height="2.78261" transform="matrix(-1 0 0 1 11.1305 22.2609)" fill="#B66C14"/>
<rect width="2.78261" height="2.78261" transform="matrix(-1 0 0 1 8.34778 2.78259)" fill="#E2E2E2"/>
<rect width="2.78261" height="2.78261" transform="matrix(-1 0 0 1 8.34778 0)" fill="#E2E2E2"/>
<rect width="2.78261" height="2.78261" transform="matrix(-1 0 0 1 11.1305 13.913)" fill="#B66C14"/>
<rect width="2.78261" height="2.78261" transform="matrix(-1 0 0 1 11.1305 8.34784)" fill="#B66C14"/>
<rect width="2.78261" height="2.78261" transform="matrix(-1 0 0 1 11.1305 25.0435)" fill="#B66C14"/>
<rect width="2.78261" height="2.78261" transform="matrix(-1 0 0 1 8.34778 5.56525)" fill="#E2E2E2"/>
<rect width="2.78261" height="2.78261" transform="matrix(-1 0 0 1 11.1305 16.6957)" fill="#B66C14"/>
<rect width="2.78261" height="2.78261" transform="matrix(-1 0 0 1 19.4783 19.4783)" fill="#B66C14"/>
<rect width="2.78261" height="2.78261" transform="matrix(-1 0 0 1 19.4783 11.1304)" fill="#B66C14"/>
<rect width="2.78261" height="2.78261" transform="matrix(-1 0 0 1 16.6957 2.78259)" fill="#E2E2E2"/>
<rect width="2.78261" height="2.78261" transform="matrix(-1 0 0 1 16.6957 0)" fill="#E2E2E2"/>
<rect width="2.78261" height="2.78261" transform="matrix(-1 0 0 1 19.4783 27.8261)" fill="#965B15"/>
<rect width="2.78261" height="2.78261" transform="matrix(-1 0 0 1 19.4783 33.3913)" fill="#C93636"/>
<rect width="2.78261" height="2.78261" transform="matrix(-1 0 0 1 19.4783 36.1739)" fill="#C93636"/>
<rect width="2.78261" height="2.78261" transform="matrix(-1 0 0 1 22.2609 33.3913)" fill="#C93636"/>
<rect width="2.78261" height="2.78261" transform="matrix(-1 0 0 1 22.2609 36.1739)" fill="#C93636"/>
<rect width="2.78261" height="2.78261" transform="matrix(-1 0 0 1 19.4783 22.2609)" fill="#B66C14"/>
<rect width="2.78261" height="2.78261" transform="matrix(-1 0 0 1 19.4783 13.913)" fill="#B66C14"/>
<rect width="2.78261" height="2.78261" transform="matrix(-1 0 0 1 16.6957 5.56525)" fill="#E2E2E2"/>
<rect width="2.78261" height="2.78261" transform="matrix(-1 0 0 1 19.4783 8.34784)" fill="#B66C14"/>
<rect width="2.78261" height="2.78261" transform="matrix(-1 0 0 1 19.4783 25.0435)" fill="#B66C14"/>
<rect width="2.78261" height="2.78261" transform="matrix(-1 0 0 1 19.4783 16.6957)" fill="#B66C14"/>
<rect width="2.78261" height="2.78261" transform="matrix(-1 0 0 1 5.56519 2.78259)" fill="#E2E2E2"/>
<rect width="2.78261" height="2.78261" transform="matrix(-1 0 0 1 8.34778 19.4783)" fill="#B66C14"/>
<rect width="2.78261" height="2.78261" transform="matrix(-1 0 0 1 8.34778 11.1304)" fill="#B66C14"/>
<rect width="2.78261" height="2.78261" transform="matrix(-1 0 0 1 5.56519 5.56525)" fill="#E2E2E2"/>
<rect width="2.78261" height="2.78261" transform="matrix(-1 0 0 1 8.34778 27.8261)" fill="#965B15"/>
<rect width="2.78261" height="2.78261" transform="matrix(-1 0 0 1 8.34778 33.3913)" fill="#C93636"/>
<rect width="2.78261" height="2.78261" transform="matrix(-1 0 0 1 8.34778 36.1739)" fill="#C93636"/>
<rect width="2.78261" height="2.78261" transform="matrix(-1 0 0 1 5.56519 33.3913)" fill="#C93636"/>
<rect width="2.78261" height="2.78261" transform="matrix(-1 0 0 1 5.56519 36.1739)" fill="#C93636"/>
<rect width="2.78261" height="2.78261" transform="matrix(-1 0 0 1 2.78259 36.1739)" fill="#C93636"/>
<rect width="2.78261" height="2.78261" transform="matrix(-1 0 0 1 25.0435 36.1739)" fill="#C93636"/>
<rect width="2.78261" height="2.78261" transform="matrix(-1 0 0 1 8.34778 22.2609)" fill="#B66C14"/>
<rect width="2.78261" height="2.78261" transform="matrix(-1 0 0 1 8.34778 13.913)" fill="#B66C14"/>
<rect width="2.78261" height="2.78261" transform="matrix(-1 0 0 1 8.34778 8.34784)" fill="#B66C14"/>
<rect width="2.78261" height="2.78261" transform="matrix(-1 0 0 1 8.34778 25.0435)" fill="#B66C14"/>
<rect width="2.78261" height="2.78261" transform="matrix(-1 0 0 1 8.34778 16.6957)" fill="#B66C14"/>
<rect width="2.78261" height="2.78261" transform="matrix(-1 0 0 1 16.6957 19.4783)" fill="#B66C14"/>
<rect width="2.78261" height="2.78261" transform="matrix(-1 0 0 1 16.6957 11.1304)" fill="#B66C14"/>
<rect width="2.78261" height="2.78261" transform="matrix(-1 0 0 1 16.6957 27.8261)" fill="#B66C14"/>
<rect width="2.78261" height="2.78261" transform="matrix(-1 0 0 1 16.6957 33.3913)" fill="#C93636"/>
<rect width="2.78261" height="2.78261" transform="matrix(-1 0 0 1 16.6957 36.1739)" fill="#C93636"/>
<rect width="2.78261" height="2.78261" transform="matrix(-1 0 0 1 13.9131 38.9565)" fill="#C93636"/>
<rect width="2.78261" height="2.78261" transform="matrix(-1 0 0 1 11.1305 38.9565)" fill="#C93636"/>
<rect width="2.78261" height="2.78261" transform="matrix(-1 0 0 1 19.4783 38.9565)" fill="#C93636"/>
<rect width="2.78261" height="2.78261" transform="matrix(-1 0 0 1 22.2609 38.9565)" fill="#C93636"/>
<rect width="2.78261" height="2.78261" transform="matrix(-1 0 0 1 8.34778 38.9565)" fill="#C93636"/>
<rect width="2.78261" height="2.78261" transform="matrix(-1 0 0 1 5.56519 38.9565)" fill="#C93636"/>
<rect width="2.78261" height="2.78261" transform="matrix(-1 0 0 1 2.78259 38.9565)" fill="#C93636"/>
<rect width="2.78261" height="2.78261" transform="matrix(-1 0 0 1 25.0435 38.9565)" fill="#C93636"/>
<rect width="2.78261" height="2.78261" transform="matrix(-1 0 0 1 16.6957 38.9565)" fill="#C93636"/>
<rect width="2.78261" height="2.78261" transform="matrix(-1 0 0 1 13.9131 41.7391)" fill="#C93636"/>
<rect width="2.78261" height="2.78261" transform="matrix(-1 0 0 1 11.1305 41.7391)" fill="#C93636"/>
<rect width="2.78261" height="2.78261" transform="matrix(-1 0 0 1 19.4783 41.7391)" fill="#C93636"/>
<rect width="2.78261" height="2.78261" transform="matrix(-1 0 0 1 22.2609 41.7391)" fill="#C93636"/>
<rect width="2.78261" height="2.78261" transform="matrix(-1 0 0 1 8.34778 41.7391)" fill="#C93636"/>
<rect width="2.78261" height="2.78261" transform="matrix(-1 0 0 1 5.56519 41.7391)" fill="#C93636"/>
<rect width="2.78261" height="2.78261" transform="matrix(-1 0 0 1 2.78259 41.7391)" fill="#C93636"/>
<rect width="2.78261" height="2.78261" transform="matrix(-1 0 0 1 25.0435 41.7391)" fill="#C93636"/>
<rect width="2.78261" height="2.78261" transform="matrix(-1 0 0 1 16.6957 41.7391)" fill="#C93636"/>
<rect width="2.78261" height="2.78261" transform="matrix(-1 0 0 1 13.9131 44.5217)" fill="#C93636"/>
<rect width="2.78261" height="2.78261" transform="matrix(-1 0 0 1 11.1305 44.5217)" fill="#C93636"/>
<rect width="2.78261" height="2.78261" transform="matrix(-1 0 0 1 19.4783 44.5217)" fill="#C93636"/>
<rect width="2.78261" height="2.78261" transform="matrix(-1 0 0 1 22.2609 44.5217)" fill="#C93636"/>
<rect width="2.78261" height="2.78261" transform="matrix(-1 0 0 1 8.34778 44.5217)" fill="#C93636"/>
<rect width="2.78261" height="2.78261" transform="matrix(-1 0 0 1 5.56519 44.5217)" fill="#C93636"/>
<rect width="2.78261" height="2.78261" transform="matrix(-1 0 0 1 2.78259 44.5217)" fill="#C93636"/>
<rect width="2.78261" height="2.78261" transform="matrix(-1 0 0 1 25.0435 44.5217)" fill="#C93636"/>
<rect width="2.78261" height="2.78261" transform="matrix(-1 0 0 1 16.6957 44.5217)" fill="#C93636"/>
<rect width="2.78261" height="2.78261" transform="matrix(-1 0 0 1 13.9131 47.3043)" fill="#C93636"/>
<rect width="2.78261" height="2.78261" transform="matrix(-1 0 0 1 11.1305 47.3043)" fill="#C93636"/>
<rect width="2.78261" height="2.78261" transform="matrix(-1 0 0 1 19.4783 47.3043)" fill="#C93636"/>
<rect width="2.78261" height="2.78261" transform="matrix(-1 0 0 1 22.2609 47.3043)" fill="#C93636"/>
<rect width="2.78261" height="2.78261" transform="matrix(-1 0 0 1 8.34778 47.3043)" fill="#C93636"/>
<rect width="2.78261" height="2.78261" transform="matrix(-1 0 0 1 5.56519 47.3043)" fill="#B66C14"/>
<rect width="2.78261" height="2.78261" transform="matrix(-1 0 0 1 2.78259 47.3043)" fill="#B66C14"/>
<rect width="2.78261" height="2.78261" transform="matrix(-1 0 0 1 25.0435 47.3043)" fill="#C93636"/>
<rect width="2.78261" height="2.78261" transform="matrix(-1 0 0 1 16.6957 47.3043)" fill="#C93636"/>
<rect width="2.78261" height="2.78261" transform="matrix(-1 0 0 1 13.9131 50.087)" fill="#C93636"/>
<rect width="2.78261" height="2.78261" transform="matrix(-1 0 0 1 11.1305 50.087)" fill="#C93636"/>
<rect width="2.78261" height="2.78261" transform="matrix(-1 0 0 1 19.4783 50.087)" fill="#C93636"/>
<rect width="2.78261" height="2.78261" transform="matrix(-1 0 0 1 22.2609 50.087)" fill="#C93636"/>
<rect width="2.78261" height="2.78261" transform="matrix(-1 0 0 1 8.34778 50.087)" fill="#C93636"/>
<rect width="2.78261" height="2.78261" transform="matrix(-1 0 0 1 5.56519 50.087)" fill="#B66C14"/>
<rect width="2.78261" height="2.78261" transform="matrix(-1 0 0 1 2.78259 50.087)" fill="#B66C14"/>
<rect width="2.78261" height="2.78261" transform="matrix(-1 0 0 1 25.0435 50.087)" fill="#C93636"/>
<rect width="2.78261" height="2.78261" transform="matrix(-1 0 0 1 22.2609 47.3043)" fill="#B66C14"/>
<rect width="2.78261" height="2.78261" transform="matrix(-1 0 0 1 25.0435 47.3043)" fill="#B66C14"/>
<rect width="2.78261" height="2.78261" transform="matrix(-1 0 0 1 5.56519 44.5217)" fill="#B66C14"/>
<rect width="2.78261" height="2.78261" transform="matrix(-1 0 0 1 5.56519 41.7391)" fill="#B66C14"/>
<rect width="2.78261" height="2.78261" transform="matrix(-1 0 0 1 2.78259 44.5217)" fill="#B66C14"/>
<rect width="2.78261" height="2.78261" transform="matrix(-1 0 0 1 2.78259 41.7391)" fill="#B66C14"/>
<rect width="2.78261" height="2.78261" transform="matrix(-1 0 0 1 22.2609 44.5217)" fill="#B66C14"/>
<rect width="2.78261" height="2.78261" transform="matrix(-1 0 0 1 22.2609 41.7391)" fill="#B66C14"/>
<rect width="2.78261" height="2.78261" transform="matrix(-1 0 0 1 25.0435 44.5217)" fill="#B66C14"/>
<rect width="2.78261" height="2.78261" transform="matrix(-1 0 0 1 25.0435 41.7391)" fill="#B66C14"/>
<rect width="2.78261" height="2.78261" transform="matrix(-1 0 0 1 22.2609 50.087)" fill="#B66C14"/>
<rect width="2.78261" height="2.78261" transform="matrix(-1 0 0 1 5.56519 50.087)" fill="#965B15"/>
<rect width="2.78261" height="2.78261" transform="matrix(-1 0 0 1 22.2609 50.087)" fill="#965B15"/>
<rect width="2.78261" height="2.78261" transform="matrix(-1 0 0 1 25.0435 50.087)" fill="#B66C14"/>
<rect width="2.78261" height="2.78261" transform="matrix(-1 0 0 1 16.6957 52.8696)" fill="#7C869D"/>
<rect width="2.78261" height="2.78261" transform="matrix(-1 0 0 1 16.6957 58.4348)" fill="#7C869D"/>
<rect width="2.78261" height="2.78261" transform="matrix(-1 0 0 1 8.34778 52.8696)" fill="#7C869D"/>
<rect width="2.78261" height="2.78261" transform="matrix(-1 0 0 1 8.34778 58.4348)" fill="#7C869D"/>
<rect width="2.78261" height="2.78261" transform="matrix(-1 0 0 1 19.4783 52.8696)" fill="#7C869D"/>
<rect width="2.78261" height="2.78261" transform="matrix(-1 0 0 1 19.4783 58.4348)" fill="#7C869D"/>
<rect width="2.78261" height="2.78261" transform="matrix(-1 0 0 1 11.1305 52.8696)" fill="#7C869D"/>
<rect width="2.78261" height="2.78261" transform="matrix(-1 0 0 1 11.1305 58.4348)" fill="#7C869D"/>
<rect width="2.78261" height="2.78261" transform="matrix(-1 0 0 1 16.6957 55.6522)" fill="#7C869D"/>
<rect width="2.78261" height="2.78261" transform="matrix(-1 0 0 1 16.6957 61.2174)" fill="black"/>
<rect width="2.78261" height="2.78261" transform="matrix(-1 0 0 1 8.34778 55.6522)" fill="#7C869D"/>
<rect width="2.78261" height="2.78261" transform="matrix(-1 0 0 1 8.34778 61.2174)" fill="black"/>
<rect width="2.78261" height="2.78261" transform="matrix(-1 0 0 1 19.4783 55.6522)" fill="#7C869D"/>
<rect width="2.78261" height="2.78261" transform="matrix(-1 0 0 1 19.4783 61.2174)" fill="black"/>
<rect width="2.78261" height="2.78261" transform="matrix(-1 0 0 1 11.1305 55.6522)" fill="#7C869D"/>
<rect width="2.78261" height="2.78261" transform="matrix(-1 0 0 1 11.1305 61.2174)" fill="black"/>
<rect width="2.78261" height="2.78261" transform="matrix(-1 0 0 1 16.6957 50.087)" fill="#C93636"/>
<rect width="2.78261" height="2.78261" transform="matrix(-1 0 0 1 16.6957 30.6087)" fill="#965B15"/>
<rect width="2.78261" height="2.78261" transform="matrix(-1 0 0 1 16.6957 22.2609)" fill="#B66C14"/>
<rect width="2.78261" height="2.78261" transform="matrix(-1 0 0 1 16.6957 13.913)" fill="#B66C14"/>
<rect width="2.78261" height="2.78261" transform="matrix(-1 0 0 1 16.6957 8.34784)" fill="#B66C14"/>
<rect width="2.78261" height="2.78261" transform="matrix(-1 0 0 1 16.6957 25.0435)" fill="#B66C14"/>
<rect width="2.78261" height="2.78261" transform="matrix(-1 0 0 1 16.6957 16.6957)" fill="#B66C14"/>
<rect width="2.78261" height="2.78261" transform="matrix(-1 0 0 1 5.56519 19.4783)" fill="#B66C14"/>
<rect width="2.78261" height="2.78261" transform="matrix(-1 0 0 1 5.56519 11.1304)" fill="#B66C14"/>
<rect width="2.78261" height="2.78261" transform="matrix(-1 0 0 1 5.56519 22.2609)" fill="#B66C14"/>
<rect width="2.78261" height="2.78261" transform="matrix(-1 0 0 1 5.56519 13.913)" fill="#B66C14"/>
<rect width="2.78261" height="2.78261" transform="matrix(-1 0 0 1 5.56519 8.34784)" fill="#B66C14"/>
<rect width="2.78261" height="2.78261" transform="matrix(-1 0 0 1 5.56519 25.0435)" fill="#B66C14"/>
<rect width="2.78261" height="2.78261" transform="matrix(-1 0 0 1 8.34778 25.0435)" fill="#B66C14"/>
<rect width="2.78261" height="2.78261" transform="matrix(-1 0 0 1 5.56519 16.6957)" fill="#B66C14"/>
<rect width="2.78261" height="2.78261" transform="matrix(-1 0 0 1 2.78259 22.2609)" fill="#B66C14"/>
<rect width="2.78261" height="2.78261" transform="matrix(-1 0 0 1 2.78259 19.4783)" fill="#965B15"/>
<rect width="2.78261" height="2.78261" transform="matrix(-1 0 0 1 13.9131 8.34784)" fill="#E2E2E2"/>
<rect width="2.78261" height="2.78261" transform="matrix(-1 0 0 1 22.2609 8.34784)" fill="#E2E2E2"/>
<rect width="2.78261" height="2.78261" transform="matrix(-1 0 0 1 22.2609 11.1304)" fill="#E2E2E2"/>
<rect width="2.78261" height="2.78261" transform="matrix(-1 0 0 1 9.73914 13.913)" fill="#341C00"/>
<rect width="2.78261" height="2.78261" transform="matrix(-1 0 0 1 9.73914 16.6957)" fill="#341C00"/>
<rect width="2.78261" height="2.78261" transform="matrix(-1 0 0 1 22.2609 13.913)" fill="#E2E2E2"/>
<rect width="2.78261" height="2.78261" transform="matrix(-1 0 0 1 22.2609 16.6957)" fill="#E2E2E2"/>
<rect width="2.78261" height="2.78261" transform="matrix(-1 0 0 1 11.1305 8.34784)" fill="#E2E2E2"/>
<rect width="2.78261" height="2.78261" transform="matrix(-1 0 0 1 19.4783 8.34784)" fill="#E2E2E2"/>
<rect width="2.78261" height="2.78261" transform="matrix(-1 0 0 1 8.34778 8.34784)" fill="#E2E2E2"/>
<rect width="2.78261" height="2.78261" transform="matrix(-1 0 0 1 16.6957 8.34784)" fill="#E2E2E2"/>
<rect width="2.78261" height="2.78261" transform="matrix(-1 0 0 1 5.56519 8.34784)" fill="#E2E2E2"/>
</svg>
