<svg width="342" height="50" viewBox="0 0 342 50" fill="none" xmlns="http://www.w3.org/2000/svg">
<path d="M8.98795 10V6H332.012V10H336V40H332.012V44H8.98795V40H5V10H8.98795Z" fill="white" stroke="#D9D9D9" stroke-width="4"/>
<rect width="342" height="50" fill="white"/>
<path d="M9.9759 10V6H332.024V10H336V40H332.024V44H9.9759V40H6V10H9.9759Z" stroke="#D9D9D9" stroke-width="4"/>
<path d="M23.625 30V28.375H26.875V20.25H23.625V18.625H30.125V28.375H33.375V30H23.625ZM35 30V26.75H36.625V25.125H38.25V23.5H41.5V21.875H43.125V20.25H38.25V21.875H35V20.25H36.625V18.625H44.75V20.25H46.375V21.875H44.75V23.5H43.125V25.125H39.875V26.75H38.25V28.375H46.375V30H35ZM49.625 28.375H48V26.75H51.25V28.375H56.125V25.125H51.25V23.5H56.125V20.25H51.25V21.875H48V20.25H49.625V18.625H57.75V20.25H59.375V23.5H57.75V25.125H59.375V28.375H57.75V30H49.625V28.375ZM69.125 25.125V20.25H67.5V21.875H65.875V23.5H64.25V25.125H69.125ZM61 26.75V23.5H62.625V21.875H64.25V20.25H65.875V18.625H72.375V30H69.125V26.75H61ZM75.625 28.375H74V20.25H75.625V18.625H83.75V20.25H85.375V25.125H83.75V26.75H78.875V21.875H80.5V25.125H82.125V20.25H77.25V28.375H83.75V30H75.625V28.375ZM95.125 25.125V23.5H90.25V25.125H95.125ZM88.625 28.375H87V23.5H88.625V21.875H96.75V23.5H98.375V26.75H90.25V28.375H96.75V30H88.625V28.375ZM109.75 23.5H111.375V30H108.125V23.5H106.5V30H104.875V23.5H103.25V30H100V21.875H109.75V23.5ZM114.625 28.375H113V26.75H114.625V25.125H121.125V23.5H114.625V21.875H122.75V23.5H124.375V30H114.625V28.375ZM116.25 28.375H121.125V26.75H116.25V28.375ZM126 30V28.375H130.875V23.5H127.625V21.875H134.125V28.375H137.375V30H126ZM130.875 20.25V18.625H134.125V20.25H130.875ZM140.625 26.75H139V18.625H142.25V26.75H145.5V28.375H150.375V30H143.875V28.375H140.625V26.75ZM155.25 30V26.75H158.5V30H155.25ZM166.625 28.375H165V23.5H166.625V21.875H174.75V23.5H176.375V25.125H173.125V23.5H168.25V28.375H173.125V26.75H176.375V28.375H174.75V30H166.625V28.375ZM179.625 28.375H178V23.5H179.625V21.875H187.75V23.5H189.375V28.375H187.75V30H179.625V28.375ZM186.125 23.5H181.25V28.375H186.125V23.5ZM200.75 23.5H202.375V30H199.125V23.5H197.5V30H195.875V23.5H194.25V30H191V21.875H200.75V23.5Z" fill="#6C6C6C"/>
</svg>
