<svg width="330" height="495" viewBox="0 0 330 495" fill="none" xmlns="http://www.w3.org/2000/svg">
<path d="M0 33.0002H330V495H0V33.0002Z" fill="#C2ABA1"/>
<rect x="18" y="40.0002" width="294" height="434" fill="white"/>
<rect x="117.854" y="18.6585" width="95.7805" height="9.95122" fill="#9D9D9D"/>
<rect x="107.902" y="28.6098" width="115.683" height="22.3902" fill="#9D9D9D"/>
<rect x="155.171" width="22.3902" height="9.95122" fill="#9D9D9D"/>
<rect x="145.22" y="9.95122" width="42.2927" height="8.70732" fill="#9D9D9D"/>
<rect width="128.122" height="6.21951" transform="matrix(1 0 0 -1 100.439 38.561)" fill="#9D9D9D"/>
<rect x="128" y="87" width="77" height="77" fill="#ED1A28"/>
<rect x="157" y="128" width="6" height="6" fill="white"/>
<rect x="151" y="134" width="6" height="6" fill="white"/>
<rect x="157" y="116" width="6" height="6" fill="white"/>
<rect x="169" y="128" width="6" height="6" fill="white"/>
<rect x="151" y="110" width="6" height="6" fill="white"/>
<rect x="175" y="134" width="6" height="6" fill="white"/>
<rect x="163" y="122" width="6" height="6" fill="white"/>
<rect x="169" y="116" width="6" height="6" fill="white"/>
<rect x="175" y="110" width="6" height="6" fill="white"/>
<path d="M78.6168 198V188.912H75.0328V186.8H84.7928V188.912H81.2088V198H78.6168ZM91.2434 189.264C91.926 189.264 92.534 189.403 93.0674 189.68C93.6114 189.947 94.038 190.363 94.3474 190.928C94.6567 191.483 94.8114 192.197 94.8114 193.072V198H92.3154V193.456C92.3154 192.763 92.1607 192.251 91.8514 191.92C91.5527 191.589 91.126 191.424 90.5714 191.424C90.1767 191.424 89.8194 191.509 89.4994 191.68C89.19 191.84 88.9447 192.091 88.7634 192.432C88.5927 192.773 88.5074 193.211 88.5074 193.744V198H86.0114V186.128H88.5074V191.776L87.9474 191.056C88.2567 190.48 88.6994 190.037 89.2754 189.728C89.8514 189.419 90.5074 189.264 91.2434 189.264ZM101.408 198.128C100.427 198.128 99.563 197.936 98.8164 197.552C98.0804 197.168 97.5097 196.645 97.1044 195.984C96.699 195.312 96.4964 194.549 96.4964 193.696C96.4964 192.832 96.6937 192.069 97.0884 191.408C97.4937 190.736 98.043 190.213 98.7364 189.84C99.4297 189.456 100.214 189.264 101.088 189.264C101.931 189.264 102.688 189.445 103.36 189.808C104.043 190.16 104.582 190.672 104.976 191.344C105.371 192.005 105.568 192.8 105.568 193.728C105.568 193.824 105.563 193.936 105.552 194.064C105.542 194.181 105.531 194.293 105.52 194.4H98.5284V192.944H104.208L103.248 193.376C103.248 192.928 103.158 192.539 102.976 192.208C102.795 191.877 102.544 191.621 102.224 191.44C101.904 191.248 101.531 191.152 101.104 191.152C100.678 191.152 100.299 191.248 99.9684 191.44C99.6484 191.621 99.3977 191.883 99.2164 192.224C99.035 192.555 98.9444 192.949 98.9444 193.408V193.792C98.9444 194.261 99.0457 194.677 99.2484 195.04C99.4617 195.392 99.755 195.664 100.128 195.856C100.512 196.037 100.96 196.128 101.472 196.128C101.931 196.128 102.331 196.059 102.672 195.92C103.024 195.781 103.344 195.573 103.632 195.296L104.96 196.736C104.566 197.184 104.07 197.531 103.472 197.776C102.875 198.011 102.187 198.128 101.408 198.128ZM115.921 198.128C114.993 198.128 114.167 197.941 113.441 197.568C112.716 197.184 112.145 196.656 111.729 195.984C111.324 195.312 111.121 194.549 111.121 193.696C111.121 192.832 111.324 192.069 111.729 191.408C112.145 190.736 112.716 190.213 113.441 189.84C114.167 189.456 114.993 189.264 115.921 189.264C116.828 189.264 117.617 189.456 118.289 189.84C118.961 190.213 119.457 190.752 119.777 191.456L117.841 192.496C117.617 192.091 117.335 191.792 116.993 191.6C116.663 191.408 116.3 191.312 115.905 191.312C115.479 191.312 115.095 191.408 114.753 191.6C114.412 191.792 114.14 192.064 113.937 192.416C113.745 192.768 113.649 193.195 113.649 193.696C113.649 194.197 113.745 194.624 113.937 194.976C114.14 195.328 114.412 195.6 114.753 195.792C115.095 195.984 115.479 196.08 115.905 196.08C116.3 196.08 116.663 195.989 116.993 195.808C117.335 195.616 117.617 195.312 117.841 194.896L119.777 195.952C119.457 196.645 118.961 197.184 118.289 197.568C117.617 197.941 116.828 198.128 115.921 198.128ZM125.201 198.128C124.284 198.128 123.468 197.936 122.753 197.552C122.049 197.168 121.489 196.645 121.073 195.984C120.668 195.312 120.465 194.549 120.465 193.696C120.465 192.832 120.668 192.069 121.073 191.408C121.489 190.736 122.049 190.213 122.753 189.84C123.468 189.456 124.284 189.264 125.201 189.264C126.108 189.264 126.918 189.456 127.633 189.84C128.348 190.213 128.908 190.731 129.313 191.392C129.718 192.053 129.921 192.821 129.921 193.696C129.921 194.549 129.718 195.312 129.313 195.984C128.908 196.645 128.348 197.168 127.633 197.552C126.918 197.936 126.108 198.128 125.201 198.128ZM125.201 196.08C125.617 196.08 125.99 195.984 126.321 195.792C126.652 195.6 126.913 195.328 127.105 194.976C127.297 194.613 127.393 194.187 127.393 193.696C127.393 193.195 127.297 192.768 127.105 192.416C126.913 192.064 126.652 191.792 126.321 191.6C125.99 191.408 125.617 191.312 125.201 191.312C124.785 191.312 124.412 191.408 124.081 191.6C123.75 191.792 123.484 192.064 123.281 192.416C123.089 192.768 122.993 193.195 122.993 193.696C122.993 194.187 123.089 194.613 123.281 194.976C123.484 195.328 123.75 195.6 124.081 195.792C124.412 195.984 124.785 196.08 125.201 196.08ZM131.59 198V189.392H133.974V191.824L133.638 191.12C133.894 190.512 134.304 190.053 134.87 189.744C135.435 189.424 136.123 189.264 136.934 189.264V191.568C136.827 191.557 136.731 191.552 136.646 191.552C136.56 191.541 136.47 191.536 136.374 191.536C135.691 191.536 135.136 191.733 134.71 192.128C134.294 192.512 134.086 193.115 134.086 193.936V198H131.59ZM138.418 198V189.392H140.802V191.824L140.466 191.12C140.722 190.512 141.132 190.053 141.698 189.744C142.263 189.424 142.951 189.264 143.762 189.264V191.568C143.655 191.557 143.559 191.552 143.474 191.552C143.388 191.541 143.298 191.536 143.202 191.536C142.519 191.536 141.964 191.733 141.538 192.128C141.122 192.512 140.914 193.115 140.914 193.936V198H138.418ZM149.44 198.128C148.458 198.128 147.594 197.936 146.848 197.552C146.112 197.168 145.541 196.645 145.136 195.984C144.73 195.312 144.528 194.549 144.528 193.696C144.528 192.832 144.725 192.069 145.12 191.408C145.525 190.736 146.074 190.213 146.768 189.84C147.461 189.456 148.245 189.264 149.12 189.264C149.962 189.264 150.72 189.445 151.392 189.808C152.074 190.16 152.613 190.672 153.008 191.344C153.402 192.005 153.6 192.8 153.6 193.728C153.6 193.824 153.594 193.936 153.584 194.064C153.573 194.181 153.562 194.293 153.552 194.4H146.56V192.944H152.24L151.28 193.376C151.28 192.928 151.189 192.539 151.008 192.208C150.826 191.877 150.576 191.621 150.256 191.44C149.936 191.248 149.562 191.152 149.136 191.152C148.709 191.152 148.33 191.248 148 191.44C147.68 191.621 147.429 191.883 147.248 192.224C147.066 192.555 146.976 192.949 146.976 193.408V193.792C146.976 194.261 147.077 194.677 147.28 195.04C147.493 195.392 147.786 195.664 148.16 195.856C148.544 196.037 148.992 196.128 149.504 196.128C149.962 196.128 150.362 196.059 150.704 195.92C151.056 195.781 151.376 195.573 151.664 195.296L152.992 196.736C152.597 197.184 152.101 197.531 151.504 197.776C150.906 198.011 150.218 198.128 149.44 198.128ZM159.421 198.128C158.493 198.128 157.667 197.941 156.941 197.568C156.216 197.184 155.645 196.656 155.229 195.984C154.824 195.312 154.621 194.549 154.621 193.696C154.621 192.832 154.824 192.069 155.229 191.408C155.645 190.736 156.216 190.213 156.941 189.84C157.667 189.456 158.493 189.264 159.421 189.264C160.328 189.264 161.117 189.456 161.789 189.84C162.461 190.213 162.957 190.752 163.277 191.456L161.341 192.496C161.117 192.091 160.835 191.792 160.493 191.6C160.163 191.408 159.8 191.312 159.405 191.312C158.979 191.312 158.595 191.408 158.253 191.6C157.912 191.792 157.64 192.064 157.437 192.416C157.245 192.768 157.149 193.195 157.149 193.696C157.149 194.197 157.245 194.624 157.437 194.976C157.64 195.328 157.912 195.6 158.253 195.792C158.595 195.984 158.979 196.08 159.405 196.08C159.8 196.08 160.163 195.989 160.493 195.808C160.835 195.616 161.117 195.312 161.341 194.896L163.277 195.952C162.957 196.645 162.461 197.184 161.789 197.568C161.117 197.941 160.328 198.128 159.421 198.128ZM168.36 198.128C167.346 198.128 166.557 197.872 165.992 197.36C165.426 196.837 165.144 196.064 165.144 195.04V187.488H167.64V195.008C167.64 195.371 167.736 195.653 167.928 195.856C168.12 196.048 168.381 196.144 168.712 196.144C169.106 196.144 169.442 196.037 169.72 195.824L170.392 197.584C170.136 197.765 169.826 197.904 169.464 198C169.112 198.085 168.744 198.128 168.36 198.128ZM163.816 191.504V189.584H169.784V191.504H163.816ZM181.604 198V196.32L181.444 195.952V192.944C181.444 192.411 181.279 191.995 180.948 191.696C180.628 191.397 180.132 191.248 179.46 191.248C179.001 191.248 178.548 191.323 178.1 191.472C177.663 191.611 177.289 191.803 176.98 192.048L176.084 190.304C176.553 189.973 177.119 189.717 177.78 189.536C178.441 189.355 179.113 189.264 179.796 189.264C181.108 189.264 182.127 189.573 182.852 190.192C183.577 190.811 183.94 191.776 183.94 193.088V198H181.604ZM178.98 198.128C178.308 198.128 177.732 198.016 177.252 197.792C176.772 197.557 176.404 197.243 176.148 196.848C175.892 196.453 175.764 196.011 175.764 195.52C175.764 195.008 175.887 194.56 176.132 194.176C176.388 193.792 176.788 193.493 177.332 193.28C177.876 193.056 178.585 192.944 179.46 192.944H181.748V194.4H179.732C179.145 194.4 178.74 194.496 178.516 194.688C178.303 194.88 178.196 195.12 178.196 195.408C178.196 195.728 178.319 195.984 178.564 196.176C178.82 196.357 179.167 196.448 179.604 196.448C180.02 196.448 180.393 196.352 180.724 196.16C181.055 195.957 181.295 195.664 181.444 195.28L181.828 196.432C181.647 196.987 181.316 197.408 180.836 197.696C180.356 197.984 179.737 198.128 178.98 198.128ZM191.431 189.264C192.114 189.264 192.722 189.403 193.255 189.68C193.799 189.947 194.226 190.363 194.535 190.928C194.844 191.483 194.999 192.197 194.999 193.072V198H192.503V193.456C192.503 192.763 192.348 192.251 192.039 191.92C191.74 191.589 191.314 191.424 190.759 191.424C190.364 191.424 190.007 191.509 189.687 191.68C189.378 191.84 189.132 192.091 188.951 192.432C188.78 192.773 188.695 193.211 188.695 193.744V198H186.199V189.392H188.583V191.776L188.135 191.056C188.444 190.48 188.887 190.037 189.463 189.728C190.039 189.419 190.695 189.264 191.431 189.264ZM200.157 198.128C199.421 198.128 198.712 198.043 198.029 197.872C197.357 197.691 196.824 197.467 196.429 197.2L197.261 195.408C197.656 195.653 198.12 195.856 198.653 196.016C199.197 196.165 199.731 196.24 200.253 196.24C200.829 196.24 201.235 196.171 201.469 196.032C201.715 195.893 201.837 195.701 201.837 195.456C201.837 195.253 201.741 195.104 201.549 195.008C201.368 194.901 201.123 194.821 200.813 194.768C200.504 194.715 200.163 194.661 199.789 194.608C199.427 194.555 199.059 194.485 198.685 194.4C198.312 194.304 197.971 194.165 197.661 193.984C197.352 193.803 197.101 193.557 196.909 193.248C196.728 192.939 196.637 192.539 196.637 192.048C196.637 191.504 196.792 191.024 197.101 190.608C197.421 190.192 197.88 189.867 198.477 189.632C199.075 189.387 199.789 189.264 200.621 189.264C201.208 189.264 201.805 189.328 202.413 189.456C203.021 189.584 203.528 189.771 203.933 190.016L203.101 191.792C202.685 191.547 202.264 191.381 201.837 191.296C201.421 191.2 201.016 191.152 200.621 191.152C200.067 191.152 199.661 191.227 199.405 191.376C199.149 191.525 199.021 191.717 199.021 191.952C199.021 192.165 199.112 192.325 199.293 192.432C199.485 192.539 199.736 192.624 200.045 192.688C200.355 192.752 200.691 192.811 201.053 192.864C201.427 192.907 201.8 192.976 202.173 193.072C202.547 193.168 202.883 193.307 203.181 193.488C203.491 193.659 203.741 193.899 203.933 194.208C204.125 194.507 204.221 194.901 204.221 195.392C204.221 195.925 204.061 196.4 203.741 196.816C203.421 197.221 202.957 197.541 202.349 197.776C201.752 198.011 201.021 198.128 200.157 198.128ZM207.573 198L204.469 189.392H206.821L209.397 196.8H208.277L210.965 189.392H213.077L215.685 196.8H214.565L217.221 189.392H219.429L216.309 198H213.893L211.605 191.648H212.341L209.973 198H207.573ZM224.627 198.128C223.646 198.128 222.782 197.936 222.035 197.552C221.299 197.168 220.728 196.645 220.323 195.984C219.918 195.312 219.715 194.549 219.715 193.696C219.715 192.832 219.912 192.069 220.307 191.408C220.712 190.736 221.262 190.213 221.955 189.84C222.648 189.456 223.432 189.264 224.307 189.264C225.15 189.264 225.907 189.445 226.579 189.808C227.262 190.16 227.8 190.672 228.195 191.344C228.59 192.005 228.787 192.8 228.787 193.728C228.787 193.824 228.782 193.936 228.771 194.064C228.76 194.181 228.75 194.293 228.739 194.4H221.747V192.944H227.427L226.467 193.376C226.467 192.928 226.376 192.539 226.195 192.208C226.014 191.877 225.763 191.621 225.443 191.44C225.123 191.248 224.75 191.152 224.323 191.152C223.896 191.152 223.518 191.248 223.187 191.44C222.867 191.621 222.616 191.883 222.435 192.224C222.254 192.555 222.163 192.949 222.163 193.408V193.792C222.163 194.261 222.264 194.677 222.467 195.04C222.68 195.392 222.974 195.664 223.347 195.856C223.731 196.037 224.179 196.128 224.691 196.128C225.15 196.128 225.55 196.059 225.891 195.92C226.243 195.781 226.563 195.573 226.851 195.296L228.179 196.736C227.784 197.184 227.288 197.531 226.691 197.776C226.094 198.011 225.406 198.128 224.627 198.128ZM230.449 198V189.392H232.833V191.824L232.497 191.12C232.753 190.512 233.164 190.053 233.729 189.744C234.294 189.424 234.982 189.264 235.793 189.264V191.568C235.686 191.557 235.59 191.552 235.505 191.552C235.42 191.541 235.329 191.536 235.233 191.536C234.55 191.536 233.996 191.733 233.569 192.128C233.153 192.512 232.945 193.115 232.945 193.936V198H230.449ZM241.871 198V189.392H244.367V198H241.871ZM243.119 188.192C242.66 188.192 242.287 188.059 241.999 187.792C241.711 187.525 241.567 187.195 241.567 186.8C241.567 186.405 241.711 186.075 241.999 185.808C242.287 185.541 242.66 185.408 243.119 185.408C243.577 185.408 243.951 185.536 244.239 185.792C244.527 186.037 244.671 186.357 244.671 186.752C244.671 187.168 244.527 187.515 244.239 187.792C243.961 188.059 243.588 188.192 243.119 188.192ZM249.579 198.128C248.843 198.128 248.134 198.043 247.451 197.872C246.779 197.691 246.246 197.467 245.851 197.2L246.683 195.408C247.078 195.653 247.542 195.856 248.075 196.016C248.619 196.165 249.153 196.24 249.675 196.24C250.251 196.24 250.657 196.171 250.891 196.032C251.137 195.893 251.259 195.701 251.259 195.456C251.259 195.253 251.163 195.104 250.971 195.008C250.79 194.901 250.545 194.821 250.235 194.768C249.926 194.715 249.585 194.661 249.211 194.608C248.849 194.555 248.481 194.485 248.107 194.4C247.734 194.304 247.393 194.165 247.083 193.984C246.774 193.803 246.523 193.557 246.331 193.248C246.15 192.939 246.059 192.539 246.059 192.048C246.059 191.504 246.214 191.024 246.523 190.608C246.843 190.192 247.302 189.867 247.899 189.632C248.497 189.387 249.211 189.264 250.043 189.264C250.63 189.264 251.227 189.328 251.835 189.456C252.443 189.584 252.95 189.771 253.355 190.016L252.523 191.792C252.107 191.547 251.686 191.381 251.259 191.296C250.843 191.2 250.438 191.152 250.043 191.152C249.489 191.152 249.083 191.227 248.827 191.376C248.571 191.525 248.443 191.717 248.443 191.952C248.443 192.165 248.534 192.325 248.715 192.432C248.907 192.539 249.158 192.624 249.467 192.688C249.777 192.752 250.113 192.811 250.475 192.864C250.849 192.907 251.222 192.976 251.595 193.072C251.969 193.168 252.305 193.307 252.603 193.488C252.913 193.659 253.163 193.899 253.355 194.208C253.547 194.507 253.643 194.901 253.643 195.392C253.643 195.925 253.483 196.4 253.163 196.816C252.843 197.221 252.379 197.541 251.771 197.776C251.174 198.011 250.443 198.128 249.579 198.128ZM128.297 221.104V206.128H132.633V208.08H130.793V219.152H132.633V221.104H128.297ZM132.715 218L137.707 206.8H140.267L145.275 218H142.555L138.459 208.112H139.483L135.371 218H132.715ZM135.211 215.6L135.899 213.632H141.659L142.363 215.6H135.211ZM151.493 209.264C152.176 209.264 152.784 209.403 153.317 209.68C153.861 209.947 154.288 210.363 154.597 210.928C154.907 211.483 155.061 212.197 155.061 213.072V218H152.565V213.456C152.565 212.763 152.411 212.251 152.101 211.92C151.803 211.589 151.376 211.424 150.821 211.424C150.427 211.424 150.069 211.509 149.749 211.68C149.44 211.84 149.195 212.091 149.013 212.432C148.843 212.773 148.757 213.211 148.757 213.744V218H146.261V209.392H148.645V211.776L148.197 211.056C148.507 210.48 148.949 210.037 149.525 209.728C150.101 209.419 150.757 209.264 151.493 209.264ZM160.22 218.128C159.484 218.128 158.775 218.043 158.092 217.872C157.42 217.691 156.887 217.467 156.492 217.2L157.324 215.408C157.719 215.653 158.183 215.856 158.716 216.016C159.26 216.165 159.793 216.24 160.316 216.24C160.892 216.24 161.297 216.171 161.532 216.032C161.777 215.893 161.9 215.701 161.9 215.456C161.9 215.253 161.804 215.104 161.612 215.008C161.431 214.901 161.185 214.821 160.876 214.768C160.567 214.715 160.225 214.661 159.852 214.608C159.489 214.555 159.121 214.485 158.748 214.4C158.375 214.304 158.033 214.165 157.724 213.984C157.415 213.803 157.164 213.557 156.972 213.248C156.791 212.939 156.7 212.539 156.7 212.048C156.7 211.504 156.855 211.024 157.164 210.608C157.484 210.192 157.943 209.867 158.54 209.632C159.137 209.387 159.852 209.264 160.684 209.264C161.271 209.264 161.868 209.328 162.476 209.456C163.084 209.584 163.591 209.771 163.996 210.016L163.164 211.792C162.748 211.547 162.327 211.381 161.9 211.296C161.484 211.2 161.079 211.152 160.684 211.152C160.129 211.152 159.724 211.227 159.468 211.376C159.212 211.525 159.084 211.717 159.084 211.952C159.084 212.165 159.175 212.325 159.356 212.432C159.548 212.539 159.799 212.624 160.108 212.688C160.417 212.752 160.753 212.811 161.116 212.864C161.489 212.907 161.863 212.976 162.236 213.072C162.609 213.168 162.945 213.307 163.244 213.488C163.553 213.659 163.804 213.899 163.996 214.208C164.188 214.507 164.284 214.901 164.284 215.392C164.284 215.925 164.124 216.4 163.804 216.816C163.484 217.221 163.02 217.541 162.412 217.776C161.815 218.011 161.084 218.128 160.22 218.128ZM167.636 218L164.532 209.392H166.884L169.46 216.8H168.34L171.028 209.392H173.14L175.748 216.8H174.628L177.284 209.392H179.492L176.372 218H173.956L171.668 211.648H172.404L170.036 218H167.636ZM184.69 218.128C183.708 218.128 182.844 217.936 182.098 217.552C181.362 217.168 180.791 216.645 180.386 215.984C179.98 215.312 179.778 214.549 179.778 213.696C179.778 212.832 179.975 212.069 180.37 211.408C180.775 210.736 181.324 210.213 182.018 209.84C182.711 209.456 183.495 209.264 184.37 209.264C185.212 209.264 185.97 209.445 186.642 209.808C187.324 210.16 187.863 210.672 188.258 211.344C188.652 212.005 188.85 212.8 188.85 213.728C188.85 213.824 188.844 213.936 188.834 214.064C188.823 214.181 188.812 214.293 188.802 214.4H181.81V212.944H187.49L186.53 213.376C186.53 212.928 186.439 212.539 186.258 212.208C186.076 211.877 185.826 211.621 185.506 211.44C185.186 211.248 184.812 211.152 184.386 211.152C183.959 211.152 183.58 211.248 183.25 211.44C182.93 211.621 182.679 211.883 182.498 212.224C182.316 212.555 182.226 212.949 182.226 213.408V213.792C182.226 214.261 182.327 214.677 182.53 215.04C182.743 215.392 183.036 215.664 183.41 215.856C183.794 216.037 184.242 216.128 184.754 216.128C185.212 216.128 185.612 216.059 185.954 215.92C186.306 215.781 186.626 215.573 186.914 215.296L188.242 216.736C187.847 217.184 187.351 217.531 186.754 217.776C186.156 218.011 185.468 218.128 184.69 218.128ZM190.511 218V209.392H192.895V211.824L192.559 211.12C192.815 210.512 193.226 210.053 193.791 209.744C194.357 209.424 195.045 209.264 195.855 209.264V211.568C195.749 211.557 195.653 211.552 195.567 211.552C195.482 211.541 195.391 211.536 195.295 211.536C194.613 211.536 194.058 211.733 193.631 212.128C193.215 212.512 193.007 213.115 193.007 213.936V218H190.511ZM200.701 221.104H196.381V219.152H198.205V208.08H196.381V206.128H200.701V221.104Z" fill="black"/>
<path d="M51.744 252.428H56.784V253.618H51.744V252.428ZM51.87 256.782H57.582V258H50.47V248.2H57.386V249.418H51.87V256.782ZM58.4108 258L61.6028 253.856L61.5888 254.542L58.5508 250.58H60.0488L62.3728 253.632H61.7988L64.1228 250.58H65.5928L62.5128 254.57L62.5268 253.856L65.7468 258H64.2208L61.7708 254.752L62.3168 254.836L59.9088 258H58.4108ZM71.1475 258.084C70.5315 258.084 69.9668 257.944 69.4535 257.664C68.9495 257.375 68.5435 256.95 68.2355 256.39C67.9368 255.83 67.7875 255.13 67.7875 254.29C67.7875 253.45 67.9321 252.75 68.2215 252.19C68.5201 251.63 68.9215 251.21 69.4255 250.93C69.9388 250.65 70.5128 250.51 71.1475 250.51C71.8755 250.51 72.5195 250.669 73.0795 250.986C73.6395 251.303 74.0828 251.747 74.4095 252.316C74.7361 252.876 74.8995 253.534 74.8995 254.29C74.8995 255.046 74.7361 255.709 74.4095 256.278C74.0828 256.847 73.6395 257.291 73.0795 257.608C72.5195 257.925 71.8755 258.084 71.1475 258.084ZM67.2135 260.716V250.58H68.5015V252.582L68.4175 254.304L68.5575 256.026V260.716H67.2135ZM71.0355 256.908C71.5115 256.908 71.9361 256.801 72.3095 256.586C72.6921 256.371 72.9908 256.068 73.2055 255.676C73.4295 255.275 73.5415 254.813 73.5415 254.29C73.5415 253.758 73.4295 253.301 73.2055 252.918C72.9908 252.526 72.6921 252.223 72.3095 252.008C71.9361 251.793 71.5115 251.686 71.0355 251.686C70.5688 251.686 70.1441 251.793 69.7615 252.008C69.3881 252.223 69.0895 252.526 68.8655 252.918C68.6508 253.301 68.5435 253.758 68.5435 254.29C68.5435 254.813 68.6508 255.275 68.8655 255.676C69.0895 256.068 69.3881 256.371 69.7615 256.586C70.1441 256.801 70.5688 256.908 71.0355 256.908ZM76.7564 258V247.612H78.1004V258H76.7564ZM85.2726 258V256.432L85.2026 256.138V253.464C85.2026 252.895 85.0346 252.456 84.6986 252.148C84.3719 251.831 83.8772 251.672 83.2146 251.672C82.7759 251.672 82.3466 251.747 81.9266 251.896C81.5066 252.036 81.1519 252.227 80.8626 252.47L80.3026 251.462C80.6852 251.154 81.1426 250.921 81.6746 250.762C82.2159 250.594 82.7806 250.51 83.3686 250.51C84.3859 250.51 85.1699 250.757 85.7206 251.252C86.2712 251.747 86.5466 252.503 86.5466 253.52V258H85.2726ZM82.8366 258.084C82.2859 258.084 81.8006 257.991 81.3806 257.804C80.9699 257.617 80.6526 257.361 80.4286 257.034C80.2046 256.698 80.0926 256.32 80.0926 255.9C80.0926 255.499 80.1859 255.135 80.3726 254.808C80.5686 254.481 80.8812 254.22 81.3106 254.024C81.7492 253.828 82.3372 253.73 83.0746 253.73H85.4266V254.696H83.1306C82.4586 254.696 82.0059 254.808 81.7726 255.032C81.5392 255.256 81.4226 255.527 81.4226 255.844C81.4226 256.208 81.5672 256.502 81.8566 256.726C82.1459 256.941 82.5472 257.048 83.0606 257.048C83.5646 257.048 84.0032 256.936 84.3766 256.712C84.7592 256.488 85.0346 256.161 85.2026 255.732L85.4686 256.656C85.2912 257.095 84.9786 257.445 84.5306 257.706C84.0826 257.958 83.5179 258.084 82.8366 258.084ZM92.9958 250.51C93.6024 250.51 94.1344 250.627 94.5918 250.86C95.0584 251.093 95.4224 251.448 95.6838 251.924C95.9451 252.4 96.0758 253.002 96.0758 253.73V258H94.7318V253.884C94.7318 253.165 94.5544 252.624 94.1998 252.26C93.8544 251.896 93.3644 251.714 92.7298 251.714C92.2538 251.714 91.8384 251.807 91.4838 251.994C91.1291 252.181 90.8538 252.456 90.6578 252.82C90.4711 253.184 90.3778 253.637 90.3778 254.178V258H89.0338V250.58H90.3218V252.582L90.1118 252.05C90.3544 251.565 90.7278 251.187 91.2318 250.916C91.7358 250.645 92.3238 250.51 92.9958 250.51ZM103.169 258V256.432L103.099 256.138V253.464C103.099 252.895 102.931 252.456 102.595 252.148C102.268 251.831 101.774 251.672 101.111 251.672C100.672 251.672 100.243 251.747 99.8231 251.896C99.4031 252.036 99.0484 252.227 98.7591 252.47L98.1991 251.462C98.5817 251.154 99.0391 250.921 99.5711 250.762C100.112 250.594 100.677 250.51 101.265 250.51C102.282 250.51 103.066 250.757 103.617 251.252C104.168 251.747 104.443 252.503 104.443 253.52V258H103.169ZM100.733 258.084C100.182 258.084 99.6971 257.991 99.2771 257.804C98.8664 257.617 98.5491 257.361 98.3251 257.034C98.1011 256.698 97.9891 256.32 97.9891 255.9C97.9891 255.499 98.0824 255.135 98.2691 254.808C98.4651 254.481 98.7777 254.22 99.2071 254.024C99.6457 253.828 100.234 253.73 100.971 253.73H103.323V254.696H101.027C100.355 254.696 99.9024 254.808 99.6691 255.032C99.4357 255.256 99.3191 255.527 99.3191 255.844C99.3191 256.208 99.4637 256.502 99.7531 256.726C100.042 256.941 100.444 257.048 100.957 257.048C101.461 257.048 101.9 256.936 102.273 256.712C102.656 256.488 102.931 256.161 103.099 255.732L103.365 256.656C103.188 257.095 102.875 257.445 102.427 257.706C101.979 257.958 101.414 258.084 100.733 258.084ZM109.478 258.084C108.732 258.084 108.153 257.883 107.742 257.482C107.332 257.081 107.126 256.507 107.126 255.76V248.956H108.47V255.704C108.47 256.105 108.568 256.413 108.764 256.628C108.97 256.843 109.259 256.95 109.632 256.95C110.052 256.95 110.402 256.833 110.682 256.6L111.102 257.566C110.897 257.743 110.65 257.874 110.36 257.958C110.08 258.042 109.786 258.084 109.478 258.084ZM105.866 251.686V250.58H110.598V251.686H105.866ZM112.727 258V250.58H114.071V258H112.727ZM113.399 249.152C113.138 249.152 112.918 249.068 112.741 248.9C112.573 248.732 112.489 248.527 112.489 248.284C112.489 248.032 112.573 247.822 112.741 247.654C112.918 247.486 113.138 247.402 113.399 247.402C113.66 247.402 113.875 247.486 114.043 247.654C114.22 247.813 114.309 248.013 114.309 248.256C114.309 248.508 114.225 248.723 114.057 248.9C113.889 249.068 113.67 249.152 113.399 249.152ZM119.815 258.084C119.069 258.084 118.406 257.921 117.827 257.594C117.249 257.267 116.791 256.819 116.455 256.25C116.119 255.671 115.951 255.018 115.951 254.29C115.951 253.553 116.119 252.899 116.455 252.33C116.791 251.761 117.249 251.317 117.827 251C118.406 250.673 119.069 250.51 119.815 250.51C120.553 250.51 121.211 250.673 121.789 251C122.377 251.317 122.835 251.761 123.161 252.33C123.497 252.89 123.665 253.543 123.665 254.29C123.665 255.027 123.497 255.681 123.161 256.25C122.835 256.819 122.377 257.267 121.789 257.594C121.211 257.921 120.553 258.084 119.815 258.084ZM119.815 256.908C120.291 256.908 120.716 256.801 121.089 256.586C121.472 256.371 121.771 256.068 121.985 255.676C122.2 255.275 122.307 254.813 122.307 254.29C122.307 253.758 122.2 253.301 121.985 252.918C121.771 252.526 121.472 252.223 121.089 252.008C120.716 251.793 120.291 251.686 119.815 251.686C119.339 251.686 118.915 251.793 118.541 252.008C118.168 252.223 117.869 252.526 117.645 252.918C117.421 253.301 117.309 253.758 117.309 254.29C117.309 254.813 117.421 255.275 117.645 255.676C117.869 256.068 118.168 256.371 118.541 256.586C118.915 256.801 119.339 256.908 119.815 256.908ZM129.486 250.51C130.093 250.51 130.625 250.627 131.082 250.86C131.549 251.093 131.913 251.448 132.174 251.924C132.435 252.4 132.566 253.002 132.566 253.73V258H131.222V253.884C131.222 253.165 131.045 252.624 130.69 252.26C130.345 251.896 129.855 251.714 129.22 251.714C128.744 251.714 128.329 251.807 127.974 251.994C127.619 252.181 127.344 252.456 127.148 252.82C126.961 253.184 126.868 253.637 126.868 254.178V258H125.524V250.58H126.812V252.582L126.602 252.05C126.845 251.565 127.218 251.187 127.722 250.916C128.226 250.645 128.814 250.51 129.486 250.51Z" fill="black"/>
</svg>
