<svg width="342" height="50" viewBox="0 0 342 50" fill="none" xmlns="http://www.w3.org/2000/svg">
<path d="M8.98795 10V6H332.012V10H336V40H332.012V44H8.98795V40H5V10H8.98795Z" fill="white" stroke="#D9D9D9" stroke-width="4"/>
<rect width="342" height="50" fill="white"/>
<path d="M9.9759 10V6H332.024V10H336V40H332.024V44H9.9759V40H6V10H9.9759Z" stroke="#D9D9D9" stroke-width="4"/>
<path d="M22 30V18.625H33.375V20.25H25.25V23.5H30.125V25.125H25.25V28.375H33.375V30H22ZM44.75 23.5H46.375V30H43.125V23.5H41.5V30H39.875V23.5H38.25V30H35V21.875H44.75V23.5ZM49.625 28.375H48V26.75H49.625V25.125H56.125V23.5H49.625V21.875H57.75V23.5H59.375V30H49.625V28.375ZM51.25 28.375H56.125V26.75H51.25V28.375ZM61 30V28.375H65.875V23.5H62.625V21.875H69.125V28.375H72.375V30H61ZM65.875 20.25V18.625H69.125V20.25H65.875ZM75.625 26.75H74V18.625H77.25V26.75H80.5V28.375H85.375V30H78.875V28.375H75.625V26.75Z" fill="#4BB5CF"/>
</svg>
