<svg width="330" height="495" viewBox="0 0 330 495" fill="none" xmlns="http://www.w3.org/2000/svg">
<path d="M0 33.0002H330V495H0V33.0002Z" fill="#C2ABA1"/>
<rect x="18" y="40.0002" width="294" height="434" fill="white"/>
<rect x="117.854" y="18.6585" width="95.7805" height="9.95122" fill="#9D9D9D"/>
<rect x="107.902" y="28.6097" width="115.683" height="22.3902" fill="#9D9D9D"/>
<rect x="155.171" width="22.3902" height="9.95122" fill="#9D9D9D"/>
<rect x="145.22" y="9.95123" width="42.2927" height="8.70732" fill="#9D9D9D"/>
<rect width="128.122" height="6.21951" transform="matrix(1 0 0 -1 100.439 38.561)" fill="#9D9D9D"/>
<rect x="127" y="86" width="77" height="77" fill="#20A786"/>
<rect x="164" y="130" width="6" height="6" fill="white"/>
<rect x="158" y="136" width="6" height="6" fill="white"/>
<rect x="152" y="130" width="6" height="6" fill="white"/>
<rect x="146" y="124" width="6" height="6" fill="white"/>
<rect x="170" y="124" width="6" height="6" fill="white"/>
<rect x="176" y="118" width="6" height="6" fill="white"/>
<rect x="182" y="112" width="6" height="6" fill="white"/>
<path d="M137.813 198.192C136.949 198.192 136.144 198.053 135.397 197.776C134.661 197.488 134.021 197.083 133.477 196.56C132.933 196.037 132.506 195.424 132.197 194.72C131.898 194.016 131.749 193.243 131.749 192.4C131.749 191.557 131.898 190.784 132.197 190.08C132.506 189.376 132.933 188.763 133.477 188.24C134.032 187.717 134.677 187.317 135.413 187.04C136.149 186.752 136.954 186.608 137.829 186.608C138.8 186.608 139.674 186.779 140.453 187.12C141.242 187.451 141.904 187.941 142.437 188.592L140.773 190.128C140.389 189.691 139.962 189.365 139.493 189.152C139.024 188.928 138.512 188.816 137.957 188.816C137.434 188.816 136.954 188.901 136.517 189.072C136.08 189.243 135.701 189.488 135.381 189.808C135.061 190.128 134.81 190.507 134.629 190.944C134.458 191.381 134.373 191.867 134.373 192.4C134.373 192.933 134.458 193.419 134.629 193.856C134.81 194.293 135.061 194.672 135.381 194.992C135.701 195.312 136.08 195.557 136.517 195.728C136.954 195.899 137.434 195.984 137.957 195.984C138.512 195.984 139.024 195.877 139.493 195.664C139.962 195.44 140.389 195.104 140.773 194.656L142.437 196.192C141.904 196.843 141.242 197.339 140.453 197.68C139.674 198.021 138.794 198.192 137.813 198.192ZM147.811 198.128C146.893 198.128 146.077 197.936 145.363 197.552C144.659 197.168 144.099 196.645 143.683 195.984C143.277 195.312 143.075 194.549 143.075 193.696C143.075 192.832 143.277 192.069 143.683 191.408C144.099 190.736 144.659 190.213 145.363 189.84C146.077 189.456 146.893 189.264 147.811 189.264C148.717 189.264 149.528 189.456 150.243 189.84C150.957 190.213 151.517 190.731 151.923 191.392C152.328 192.053 152.531 192.821 152.531 193.696C152.531 194.549 152.328 195.312 151.923 195.984C151.517 196.645 150.957 197.168 150.243 197.552C149.528 197.936 148.717 198.128 147.811 198.128ZM147.811 196.08C148.227 196.08 148.6 195.984 148.931 195.792C149.261 195.6 149.523 195.328 149.715 194.976C149.907 194.613 150.003 194.187 150.003 193.696C150.003 193.195 149.907 192.768 149.715 192.416C149.523 192.064 149.261 191.792 148.931 191.6C148.6 191.408 148.227 191.312 147.811 191.312C147.395 191.312 147.021 191.408 146.691 191.6C146.36 191.792 146.093 192.064 145.891 192.416C145.699 192.768 145.603 193.195 145.603 193.696C145.603 194.187 145.699 194.613 145.891 194.976C146.093 195.328 146.36 195.6 146.691 195.792C147.021 195.984 147.395 196.08 147.811 196.08ZM154.199 198V189.392H156.583V191.824L156.247 191.12C156.503 190.512 156.914 190.053 157.479 189.744C158.044 189.424 158.732 189.264 159.543 189.264V191.568C159.436 191.557 159.34 191.552 159.255 191.552C159.17 191.541 159.079 191.536 158.983 191.536C158.3 191.536 157.746 191.733 157.319 192.128C156.903 192.512 156.695 193.115 156.695 193.936V198H154.199ZM161.027 198V189.392H163.411V191.824L163.075 191.12C163.331 190.512 163.742 190.053 164.307 189.744C164.872 189.424 165.56 189.264 166.371 189.264V191.568C166.264 191.557 166.168 191.552 166.083 191.552C165.998 191.541 165.907 191.536 165.811 191.536C165.128 191.536 164.574 191.733 164.147 192.128C163.731 192.512 163.523 193.115 163.523 193.936V198H161.027ZM172.049 198.128C171.068 198.128 170.204 197.936 169.457 197.552C168.721 197.168 168.15 196.645 167.745 195.984C167.34 195.312 167.137 194.549 167.137 193.696C167.137 192.832 167.334 192.069 167.729 191.408C168.134 190.736 168.684 190.213 169.377 189.84C170.07 189.456 170.854 189.264 171.729 189.264C172.572 189.264 173.329 189.445 174.001 189.808C174.684 190.16 175.222 190.672 175.617 191.344C176.012 192.005 176.209 192.8 176.209 193.728C176.209 193.824 176.204 193.936 176.193 194.064C176.182 194.181 176.172 194.293 176.161 194.4H169.169V192.944H174.849L173.889 193.376C173.889 192.928 173.798 192.539 173.617 192.208C173.436 191.877 173.185 191.621 172.865 191.44C172.545 191.248 172.172 191.152 171.745 191.152C171.318 191.152 170.94 191.248 170.609 191.44C170.289 191.621 170.038 191.883 169.857 192.224C169.676 192.555 169.585 192.949 169.585 193.408V193.792C169.585 194.261 169.686 194.677 169.889 195.04C170.102 195.392 170.396 195.664 170.769 195.856C171.153 196.037 171.601 196.128 172.113 196.128C172.572 196.128 172.972 196.059 173.313 195.92C173.665 195.781 173.985 195.573 174.273 195.296L175.601 196.736C175.206 197.184 174.71 197.531 174.113 197.776C173.516 198.011 172.828 198.128 172.049 198.128ZM182.031 198.128C181.103 198.128 180.276 197.941 179.551 197.568C178.825 197.184 178.255 196.656 177.839 195.984C177.433 195.312 177.231 194.549 177.231 193.696C177.231 192.832 177.433 192.069 177.839 191.408C178.255 190.736 178.825 190.213 179.551 189.84C180.276 189.456 181.103 189.264 182.031 189.264C182.937 189.264 183.727 189.456 184.399 189.84C185.071 190.213 185.567 190.752 185.887 191.456L183.951 192.496C183.727 192.091 183.444 191.792 183.103 191.6C182.772 191.408 182.409 191.312 182.015 191.312C181.588 191.312 181.204 191.408 180.863 191.6C180.521 191.792 180.249 192.064 180.047 192.416C179.855 192.768 179.759 193.195 179.759 193.696C179.759 194.197 179.855 194.624 180.047 194.976C180.249 195.328 180.521 195.6 180.863 195.792C181.204 195.984 181.588 196.08 182.015 196.08C182.409 196.08 182.772 195.989 183.103 195.808C183.444 195.616 183.727 195.312 183.951 194.896L185.887 195.952C185.567 196.645 185.071 197.184 184.399 197.568C183.727 197.941 182.937 198.128 182.031 198.128ZM190.969 198.128C189.956 198.128 189.166 197.872 188.601 197.36C188.036 196.837 187.753 196.064 187.753 195.04V187.488H190.249V195.008C190.249 195.371 190.345 195.653 190.537 195.856C190.729 196.048 190.99 196.144 191.321 196.144C191.716 196.144 192.052 196.037 192.329 195.824L193.001 197.584C192.745 197.765 192.436 197.904 192.073 198C191.721 198.085 191.353 198.128 190.969 198.128ZM186.425 191.504V189.584H192.393V191.504H186.425ZM194.578 194.112L194.082 186.8H197.058L196.562 194.112H194.578ZM195.57 198.128C195.122 198.128 194.754 197.984 194.466 197.696C194.178 197.408 194.034 197.067 194.034 196.672C194.034 196.267 194.178 195.931 194.466 195.664C194.754 195.387 195.122 195.248 195.57 195.248C196.029 195.248 196.397 195.387 196.674 195.664C196.962 195.931 197.106 196.267 197.106 196.672C197.106 197.067 196.962 197.408 196.674 197.696C196.397 197.984 196.029 198.128 195.57 198.128ZM128.297 221.104V206.128H132.633V208.08H130.793V219.152H132.633V221.104H128.297ZM132.715 218L137.707 206.8H140.267L145.275 218H142.555L138.459 208.112H139.483L135.371 218H132.715ZM135.211 215.6L135.899 213.632H141.659L142.363 215.6H135.211ZM151.493 209.264C152.176 209.264 152.784 209.403 153.317 209.68C153.861 209.947 154.288 210.363 154.597 210.928C154.907 211.483 155.061 212.197 155.061 213.072V218H152.565V213.456C152.565 212.763 152.411 212.251 152.101 211.92C151.803 211.589 151.376 211.424 150.821 211.424C150.427 211.424 150.069 211.509 149.749 211.68C149.44 211.84 149.195 212.091 149.013 212.432C148.843 212.773 148.757 213.211 148.757 213.744V218H146.261V209.392H148.645V211.776L148.197 211.056C148.507 210.48 148.949 210.037 149.525 209.728C150.101 209.419 150.757 209.264 151.493 209.264ZM160.22 218.128C159.484 218.128 158.775 218.043 158.092 217.872C157.42 217.691 156.887 217.467 156.492 217.2L157.324 215.408C157.719 215.653 158.183 215.856 158.716 216.016C159.26 216.165 159.793 216.24 160.316 216.24C160.892 216.24 161.297 216.171 161.532 216.032C161.777 215.893 161.9 215.701 161.9 215.456C161.9 215.253 161.804 215.104 161.612 215.008C161.431 214.901 161.185 214.821 160.876 214.768C160.567 214.715 160.225 214.661 159.852 214.608C159.489 214.555 159.121 214.485 158.748 214.4C158.375 214.304 158.033 214.165 157.724 213.984C157.415 213.803 157.164 213.557 156.972 213.248C156.791 212.939 156.7 212.539 156.7 212.048C156.7 211.504 156.855 211.024 157.164 210.608C157.484 210.192 157.943 209.867 158.54 209.632C159.137 209.387 159.852 209.264 160.684 209.264C161.271 209.264 161.868 209.328 162.476 209.456C163.084 209.584 163.591 209.771 163.996 210.016L163.164 211.792C162.748 211.547 162.327 211.381 161.9 211.296C161.484 211.2 161.079 211.152 160.684 211.152C160.129 211.152 159.724 211.227 159.468 211.376C159.212 211.525 159.084 211.717 159.084 211.952C159.084 212.165 159.175 212.325 159.356 212.432C159.548 212.539 159.799 212.624 160.108 212.688C160.417 212.752 160.753 212.811 161.116 212.864C161.489 212.907 161.863 212.976 162.236 213.072C162.609 213.168 162.945 213.307 163.244 213.488C163.553 213.659 163.804 213.899 163.996 214.208C164.188 214.507 164.284 214.901 164.284 215.392C164.284 215.925 164.124 216.4 163.804 216.816C163.484 217.221 163.02 217.541 162.412 217.776C161.815 218.011 161.084 218.128 160.22 218.128ZM167.636 218L164.532 209.392H166.884L169.46 216.8H168.34L171.028 209.392H173.14L175.748 216.8H174.628L177.284 209.392H179.492L176.372 218H173.956L171.668 211.648H172.404L170.036 218H167.636ZM184.69 218.128C183.708 218.128 182.844 217.936 182.098 217.552C181.362 217.168 180.791 216.645 180.386 215.984C179.98 215.312 179.778 214.549 179.778 213.696C179.778 212.832 179.975 212.069 180.37 211.408C180.775 210.736 181.324 210.213 182.018 209.84C182.711 209.456 183.495 209.264 184.37 209.264C185.212 209.264 185.97 209.445 186.642 209.808C187.324 210.16 187.863 210.672 188.258 211.344C188.652 212.005 188.85 212.8 188.85 213.728C188.85 213.824 188.844 213.936 188.834 214.064C188.823 214.181 188.812 214.293 188.802 214.4H181.81V212.944H187.49L186.53 213.376C186.53 212.928 186.439 212.539 186.258 212.208C186.076 211.877 185.826 211.621 185.506 211.44C185.186 211.248 184.812 211.152 184.386 211.152C183.959 211.152 183.58 211.248 183.25 211.44C182.93 211.621 182.679 211.883 182.498 212.224C182.316 212.555 182.226 212.949 182.226 213.408V213.792C182.226 214.261 182.327 214.677 182.53 215.04C182.743 215.392 183.036 215.664 183.41 215.856C183.794 216.037 184.242 216.128 184.754 216.128C185.212 216.128 185.612 216.059 185.954 215.92C186.306 215.781 186.626 215.573 186.914 215.296L188.242 216.736C187.847 217.184 187.351 217.531 186.754 217.776C186.156 218.011 185.468 218.128 184.69 218.128ZM190.511 218V209.392H192.895V211.824L192.559 211.12C192.815 210.512 193.226 210.053 193.791 209.744C194.357 209.424 195.045 209.264 195.855 209.264V211.568C195.749 211.557 195.653 211.552 195.567 211.552C195.482 211.541 195.391 211.536 195.295 211.536C194.613 211.536 194.058 211.733 193.631 212.128C193.215 212.512 193.007 213.115 193.007 213.936V218H190.511ZM200.701 221.104H196.381V219.152H198.205V208.08H196.381V206.128H200.701V221.104Z" fill="black"/>
<path d="M51.744 252.428H56.784V253.618H51.744V252.428ZM51.87 256.782H57.582V258H50.47V248.2H57.386V249.418H51.87V256.782ZM58.4108 258L61.6028 253.856L61.5888 254.542L58.5508 250.58H60.0488L62.3728 253.632H61.7988L64.1228 250.58H65.5928L62.5128 254.57L62.5268 253.856L65.7468 258H64.2208L61.7708 254.752L62.3168 254.836L59.9088 258H58.4108ZM71.1475 258.084C70.5315 258.084 69.9668 257.944 69.4535 257.664C68.9495 257.375 68.5435 256.95 68.2355 256.39C67.9368 255.83 67.7875 255.13 67.7875 254.29C67.7875 253.45 67.9321 252.75 68.2215 252.19C68.5201 251.63 68.9215 251.21 69.4255 250.93C69.9388 250.65 70.5128 250.51 71.1475 250.51C71.8755 250.51 72.5195 250.669 73.0795 250.986C73.6395 251.303 74.0828 251.747 74.4095 252.316C74.7361 252.876 74.8995 253.534 74.8995 254.29C74.8995 255.046 74.7361 255.709 74.4095 256.278C74.0828 256.847 73.6395 257.291 73.0795 257.608C72.5195 257.925 71.8755 258.084 71.1475 258.084ZM67.2135 260.716V250.58H68.5015V252.582L68.4175 254.304L68.5575 256.026V260.716H67.2135ZM71.0355 256.908C71.5115 256.908 71.9361 256.801 72.3095 256.586C72.6921 256.371 72.9908 256.068 73.2055 255.676C73.4295 255.275 73.5415 254.813 73.5415 254.29C73.5415 253.758 73.4295 253.301 73.2055 252.918C72.9908 252.526 72.6921 252.223 72.3095 252.008C71.9361 251.793 71.5115 251.686 71.0355 251.686C70.5688 251.686 70.1441 251.793 69.7615 252.008C69.3881 252.223 69.0895 252.526 68.8655 252.918C68.6508 253.301 68.5435 253.758 68.5435 254.29C68.5435 254.813 68.6508 255.275 68.8655 255.676C69.0895 256.068 69.3881 256.371 69.7615 256.586C70.1441 256.801 70.5688 256.908 71.0355 256.908ZM76.7564 258V247.612H78.1004V258H76.7564ZM85.2726 258V256.432L85.2026 256.138V253.464C85.2026 252.895 85.0346 252.456 84.6986 252.148C84.3719 251.831 83.8772 251.672 83.2146 251.672C82.7759 251.672 82.3466 251.747 81.9266 251.896C81.5066 252.036 81.1519 252.227 80.8626 252.47L80.3026 251.462C80.6852 251.154 81.1426 250.921 81.6746 250.762C82.2159 250.594 82.7806 250.51 83.3686 250.51C84.3859 250.51 85.1699 250.757 85.7206 251.252C86.2712 251.747 86.5466 252.503 86.5466 253.52V258H85.2726ZM82.8366 258.084C82.2859 258.084 81.8006 257.991 81.3806 257.804C80.9699 257.617 80.6526 257.361 80.4286 257.034C80.2046 256.698 80.0926 256.32 80.0926 255.9C80.0926 255.499 80.1859 255.135 80.3726 254.808C80.5686 254.481 80.8812 254.22 81.3106 254.024C81.7492 253.828 82.3372 253.73 83.0746 253.73H85.4266V254.696H83.1306C82.4586 254.696 82.0059 254.808 81.7726 255.032C81.5392 255.256 81.4226 255.527 81.4226 255.844C81.4226 256.208 81.5672 256.502 81.8566 256.726C82.1459 256.941 82.5472 257.048 83.0606 257.048C83.5646 257.048 84.0032 256.936 84.3766 256.712C84.7592 256.488 85.0346 256.161 85.2026 255.732L85.4686 256.656C85.2912 257.095 84.9786 257.445 84.5306 257.706C84.0826 257.958 83.5179 258.084 82.8366 258.084ZM92.9958 250.51C93.6024 250.51 94.1344 250.627 94.5918 250.86C95.0584 251.093 95.4224 251.448 95.6838 251.924C95.9451 252.4 96.0758 253.002 96.0758 253.73V258H94.7318V253.884C94.7318 253.165 94.5544 252.624 94.1998 252.26C93.8544 251.896 93.3644 251.714 92.7298 251.714C92.2538 251.714 91.8384 251.807 91.4838 251.994C91.1291 252.181 90.8538 252.456 90.6578 252.82C90.4711 253.184 90.3778 253.637 90.3778 254.178V258H89.0338V250.58H90.3218V252.582L90.1118 252.05C90.3544 251.565 90.7278 251.187 91.2318 250.916C91.7358 250.645 92.3238 250.51 92.9958 250.51ZM103.169 258V256.432L103.099 256.138V253.464C103.099 252.895 102.931 252.456 102.595 252.148C102.268 251.831 101.774 251.672 101.111 251.672C100.672 251.672 100.243 251.747 99.8231 251.896C99.4031 252.036 99.0484 252.227 98.7591 252.47L98.1991 251.462C98.5817 251.154 99.0391 250.921 99.5711 250.762C100.112 250.594 100.677 250.51 101.265 250.51C102.282 250.51 103.066 250.757 103.617 251.252C104.168 251.747 104.443 252.503 104.443 253.52V258H103.169ZM100.733 258.084C100.182 258.084 99.6971 257.991 99.2771 257.804C98.8664 257.617 98.5491 257.361 98.3251 257.034C98.1011 256.698 97.9891 256.32 97.9891 255.9C97.9891 255.499 98.0824 255.135 98.2691 254.808C98.4651 254.481 98.7777 254.22 99.2071 254.024C99.6457 253.828 100.234 253.73 100.971 253.73H103.323V254.696H101.027C100.355 254.696 99.9024 254.808 99.6691 255.032C99.4357 255.256 99.3191 255.527 99.3191 255.844C99.3191 256.208 99.4637 256.502 99.7531 256.726C100.042 256.941 100.444 257.048 100.957 257.048C101.461 257.048 101.9 256.936 102.273 256.712C102.656 256.488 102.931 256.161 103.099 255.732L103.365 256.656C103.188 257.095 102.875 257.445 102.427 257.706C101.979 257.958 101.414 258.084 100.733 258.084ZM109.478 258.084C108.732 258.084 108.153 257.883 107.742 257.482C107.332 257.081 107.126 256.507 107.126 255.76V248.956H108.47V255.704C108.47 256.105 108.568 256.413 108.764 256.628C108.97 256.843 109.259 256.95 109.632 256.95C110.052 256.95 110.402 256.833 110.682 256.6L111.102 257.566C110.897 257.743 110.65 257.874 110.36 257.958C110.08 258.042 109.786 258.084 109.478 258.084ZM105.866 251.686V250.58H110.598V251.686H105.866ZM112.727 258V250.58H114.071V258H112.727ZM113.399 249.152C113.138 249.152 112.918 249.068 112.741 248.9C112.573 248.732 112.489 248.527 112.489 248.284C112.489 248.032 112.573 247.822 112.741 247.654C112.918 247.486 113.138 247.402 113.399 247.402C113.66 247.402 113.875 247.486 114.043 247.654C114.22 247.813 114.309 248.013 114.309 248.256C114.309 248.508 114.225 248.723 114.057 248.9C113.889 249.068 113.67 249.152 113.399 249.152ZM119.815 258.084C119.069 258.084 118.406 257.921 117.827 257.594C117.249 257.267 116.791 256.819 116.455 256.25C116.119 255.671 115.951 255.018 115.951 254.29C115.951 253.553 116.119 252.899 116.455 252.33C116.791 251.761 117.249 251.317 117.827 251C118.406 250.673 119.069 250.51 119.815 250.51C120.553 250.51 121.211 250.673 121.789 251C122.377 251.317 122.835 251.761 123.161 252.33C123.497 252.89 123.665 253.543 123.665 254.29C123.665 255.027 123.497 255.681 123.161 256.25C122.835 256.819 122.377 257.267 121.789 257.594C121.211 257.921 120.553 258.084 119.815 258.084ZM119.815 256.908C120.291 256.908 120.716 256.801 121.089 256.586C121.472 256.371 121.771 256.068 121.985 255.676C122.2 255.275 122.307 254.813 122.307 254.29C122.307 253.758 122.2 253.301 121.985 252.918C121.771 252.526 121.472 252.223 121.089 252.008C120.716 251.793 120.291 251.686 119.815 251.686C119.339 251.686 118.915 251.793 118.541 252.008C118.168 252.223 117.869 252.526 117.645 252.918C117.421 253.301 117.309 253.758 117.309 254.29C117.309 254.813 117.421 255.275 117.645 255.676C117.869 256.068 118.168 256.371 118.541 256.586C118.915 256.801 119.339 256.908 119.815 256.908ZM129.486 250.51C130.093 250.51 130.625 250.627 131.082 250.86C131.549 251.093 131.913 251.448 132.174 251.924C132.435 252.4 132.566 253.002 132.566 253.73V258H131.222V253.884C131.222 253.165 131.045 252.624 130.69 252.26C130.345 251.896 129.855 251.714 129.22 251.714C128.744 251.714 128.329 251.807 127.974 251.994C127.619 252.181 127.344 252.456 127.148 252.82C126.961 253.184 126.868 253.637 126.868 254.178V258H125.524V250.58H126.812V252.582L126.602 252.05C126.845 251.565 127.218 251.187 127.722 250.916C128.226 250.645 128.814 250.51 129.486 250.51Z" fill="black"/>
</svg>
