<svg width="70" height="70" viewBox="0 0 70 70" fill="none" xmlns="http://www.w3.org/2000/svg">
<path d="M33.0979 5.8541C33.6966 4.01147 36.3034 4.01148 36.9021 5.8541L42.409 22.8024C42.6767 23.6265 43.4446 24.1844 44.3111 24.1844L62.1316 24.1844C64.0691 24.1844 64.8746 26.6636 63.3072 27.8024L48.8901 38.2771C48.1891 38.7864 47.8958 39.6891 48.1635 40.5132L53.6704 57.4615C54.2691 59.3041 52.1601 60.8364 50.5927 59.6976L36.1756 49.2229C35.4746 48.7136 34.5254 48.7136 33.8244 49.2229L19.4073 59.6976C17.8399 60.8364 15.7309 59.3041 16.3296 57.4615L21.8365 40.5132C22.1042 39.6891 21.8109 38.7864 21.1099 38.2771L6.69281 27.8024C5.12538 26.6636 5.93094 24.1844 7.86839 24.1844L25.6889 24.1844C26.5554 24.1844 27.3233 23.6265 27.591 22.8024L33.0979 5.8541Z" fill="#FFD809"/>
<rect x="32.5" y="2.5" width="5" height="5" fill="#FFD808"/>
<rect x="25" y="17.5" width="5" height="5" fill="#FFD808"/>
<rect x="25" y="21.25" width="5" height="5" fill="#FFD808"/>
<rect x="7.5" y="23.75" width="5" height="5" fill="#FFD808"/>
<rect x="20.625" y="20.625" width="5" height="5" fill="#FFD808"/>
<rect x="15.625" y="21.875" width="5" height="5" fill="#FFD808"/>
<rect x="10.625" y="22.5" width="5" height="5" fill="#FFD808"/>
<rect x="5.625" y="23.125" width="5" height="5" fill="#FFD808"/>
<rect x="10.625" y="23.75" width="5" height="5" fill="#FFD808"/>
<rect x="3.75" y="23.75" width="5" height="5" fill="#FFD808"/>
<rect x="5.625" y="25.625" width="5" height="5" fill="#FFD808"/>
<rect x="9.375" y="28.125" width="5" height="5" fill="#FFD808"/>
<rect x="7.5" y="23.75" width="5" height="5" fill="#FFD808"/>
<rect x="13.125" y="30.625" width="5" height="5" fill="#FFD808"/>
<rect x="17.5" y="33.75" width="5" height="5" fill="#FFD808"/>
<rect width="5" height="5" transform="matrix(-1 0 0 1 48.75 20.625)" fill="#FFD808"/>
<rect width="5" height="5" transform="matrix(-1 0 0 1 53.75 21.875)" fill="#FFD808"/>
<rect width="5" height="5" transform="matrix(-1 0 0 1 58.75 22.5)" fill="#FFD808"/>
<rect width="5" height="5" transform="matrix(-1 0 0 1 63.75 23.125)" fill="#FFD808"/>
<rect width="5" height="5" transform="matrix(-1 0 0 1 58.75 23.75)" fill="#FFD808"/>
<rect width="5" height="5" transform="matrix(-1 0 0 1 65.625 23.75)" fill="#FFD808"/>
<rect width="5" height="5" transform="matrix(-1 0 0 1 63.75 25.625)" fill="#FFD808"/>
<rect width="5" height="5" transform="matrix(-1 0 0 1 60 28.125)" fill="#FFD808"/>
<rect width="5" height="5" transform="matrix(-1 0 0 1 61.875 23.75)" fill="#FFD808"/>
<rect width="5" height="5" transform="matrix(-1 0 0 1 56.25 30.625)" fill="#FFD808"/>
<rect width="5" height="5" transform="matrix(-1 0 0 1 51.875 33.75)" fill="#FFD808"/>
<rect width="5" height="5" transform="matrix(-0.431119 -0.902295 -0.902295 0.431119 50.8181 42.2432)" fill="#FFD808"/>
<rect width="5" height="5" transform="matrix(-0.431119 -0.902295 -0.902295 0.431119 51.8459 47.2935)" fill="#FFD808"/>
<rect width="5" height="5" transform="matrix(-0.431119 -0.902295 -0.902295 0.431119 53.4375 52.0742)" fill="#FFD808"/>
<rect width="5" height="5" transform="matrix(-0.431119 -0.902295 -0.902295 0.431119 55.0291 56.8552)" fill="#FFD808"/>
<rect width="5" height="5" transform="matrix(-0.431119 -0.902295 -0.902295 0.431119 52.3096 52.6133)" fill="#FFD808"/>
<rect width="5" height="5" transform="matrix(-0.431119 -0.902295 -0.902295 0.431119 55.2737 58.8164)" fill="#FFD808"/>
<rect width="5" height="5" transform="matrix(-0.431119 -0.902295 -0.902295 0.431119 52.7734 57.9331)" fill="#FFD808"/>
<rect width="5" height="5" transform="matrix(-0.431119 -0.902295 -0.902295 0.431119 48.9011 55.6272)" fill="#FFD808"/>
<rect width="5" height="5" transform="matrix(-0.431119 -0.902295 -0.902295 0.431119 53.657 55.4329)" fill="#FFD808"/>
<rect width="5" height="5" transform="matrix(-0.431119 -0.902295 -0.902295 0.431119 45.0286 53.3213)" fill="#FFD808"/>
<rect width="5" height="5" transform="matrix(-0.431119 -0.902295 -0.902295 0.431119 40.3228 50.7212)" fill="#FFD808"/>
<rect width="5" height="5" transform="matrix(0.707107 -0.707107 -0.707107 -0.707107 32.8738 51.3518)" fill="#FFD808"/>
<rect width="5" height="5" transform="matrix(0.707107 -0.707107 -0.707107 -0.707107 28.4543 54.0037)" fill="#FFD808"/>
<rect width="5" height="5" transform="matrix(0.707107 -0.707107 -0.707107 -0.707107 24.4768 57.0972)" fill="#FFD808"/>
<rect width="5" height="5" transform="matrix(0.707107 -0.707107 -0.707107 -0.707107 20.4995 60.1907)" fill="#FFD808"/>
<rect width="5" height="5" transform="matrix(0.707107 -0.707107 -0.707107 -0.707107 23.593 56.2134)" fill="#FFD808"/>
<rect width="5" height="5" transform="matrix(0.707107 -0.707107 -0.707107 -0.707107 18.7314 61.0745)" fill="#FFD808"/>
<rect width="5" height="5" transform="matrix(0.707107 -0.707107 -0.707107 -0.707107 18.7314 58.4229)" fill="#FFD808"/>
<rect width="5" height="5" transform="matrix(0.707107 -0.707107 -0.707107 -0.707107 19.6155 54.0037)" fill="#FFD808"/>
<rect width="5" height="5" transform="matrix(0.707107 -0.707107 -0.707107 -0.707107 21.3833 58.4229)" fill="#FFD808"/>
<rect width="5" height="5" transform="matrix(0.707107 -0.707107 -0.707107 -0.707107 20.4995 49.584)" fill="#FFD808"/>
<rect width="5" height="5" transform="matrix(0.707107 -0.707107 -0.707107 -0.707107 21.3833 44.2808)" fill="#FFD808"/>
<rect x="30.625" y="5" width="5" height="5" fill="#FFD808"/>
<rect x="28.75" y="9.375" width="5" height="5" fill="#FFD808"/>
<rect x="26.875" y="14.375" width="5" height="5" fill="#FFD808"/>
<rect width="5" height="5" transform="matrix(-1 0 0 1 45 19.375)" fill="#FFD808"/>
<rect width="5" height="5" transform="matrix(-1 0 0 1 39.375 5)" fill="#FFD808"/>
<rect width="5" height="5" transform="matrix(-1 0 0 1 41.25 9.375)" fill="#FFD808"/>
<rect width="5" height="5" transform="matrix(-1 0 0 1 43.125 14.375)" fill="#FFD808"/>
<path d="M27.5 40.5H25V38H30V40.5H37.5V33H25V25.5H42.5V28H30V30.5H40V33H42.5V40.5H40V43H27.5V40.5Z" fill="black"/>
</svg>
