<svg width="36" height="35" viewBox="0 0 36 35" fill="none" xmlns="http://www.w3.org/2000/svg">
<path d="M23.4678 10.9742L21.3287 4.39057C20.281 1.16599 15.719 1.16599 14.6713 4.39057L12.5322 10.9742C12.4652 11.1802 12.2732 11.3197 12.0566 11.3197H5.13424C1.74371 11.3197 0.333988 15.6583 3.07699 17.6512L8.67733 21.7201C8.85257 21.8474 8.9259 22.0731 8.85896 22.2791L6.71982 28.8627C5.67209 32.0873 9.36277 34.7687 12.1058 32.7758L17.7061 28.7069C17.8814 28.5796 18.1186 28.5796 18.2939 28.7069L23.8942 32.7758C26.6372 34.7687 30.3279 32.0873 29.2802 28.8627L27.141 22.2791C27.0741 22.0731 27.1474 21.8474 27.3227 21.7201L32.923 17.6512C35.666 15.6583 34.2563 11.3197 30.8658 11.3197H23.9434C23.7268 11.3197 23.5348 11.1802 23.4678 10.9742Z" fill="#4BB5CF" stroke="#C8D5DF" stroke-width="3"/>
</svg>
