<svg width="228" height="42" viewBox="0 0 228 42" fill="none" xmlns="http://www.w3.org/2000/svg">
<rect x="16" width="196" height="42" fill="#ED1A28"/>
<path d="M49.5 25.5H48V24H51V25.5H55.5V22.5H49.5V21H48V18H49.5V16.5H57V18H58.5V19.5H55.5V18H51V21H57V22.5H58.5V25.5H57V27H49.5V25.5ZM60 21V19.5H63V16.5H66V19.5H70.5V21H66V25.5H70.5V27H63V21H60ZM73.5 25.5H72V24H73.5V22.5H79.5V21H73.5V19.5H81V21H82.5V27H73.5V25.5ZM75 25.5H79.5V24H75V25.5ZM84 27V19.5H87V21H88.5V22.5H87V27H84ZM93 21H94.5V22.5H91.5V21H88.5V19.5H93V21ZM96 21V19.5H99V16.5H102V19.5H106.5V21H102V25.5H106.5V27H99V21H96ZM121.5 24H120V16.5H123V24H126V25.5H130.5V27H124.5V25.5H121.5V24ZM139.5 22.5V21H135V22.5H139.5ZM133.5 25.5H132V21H133.5V19.5H141V21H142.5V24H135V25.5H141V27H133.5V25.5ZM145.5 22.5H144V19.5H147V22.5H148.5V24H150V22.5H151.5V19.5H154.5V22.5H153V24H151.5V25.5H150V27H148.5V25.5H147V24H145.5V22.5ZM163.5 22.5V21H159V22.5H163.5ZM157.5 25.5H156V21H157.5V19.5H165V21H166.5V24H159V25.5H165V27H157.5V25.5ZM169.5 24H168V16.5H171V24H174V25.5H178.5V27H172.5V25.5H169.5V24Z" fill="white"/>
<rect x="212" y="9" width="8" height="8" fill="#971F27"/>
<rect x="212" y="17" width="8" height="8" fill="#ED1A28"/>
<rect x="212" y="25" width="8" height="8" fill="#971F27"/>
<rect x="220" y="17" width="8" height="8" fill="#971F27"/>
<rect width="8" height="8" transform="matrix(-1 0 0 1 16 9)" fill="#971F27"/>
<rect width="8" height="8" transform="matrix(-1 0 0 1 16 17)" fill="#ED1A28"/>
<rect width="8" height="8" transform="matrix(-1 0 0 1 16 25)" fill="#971F27"/>
<rect width="8" height="8" transform="matrix(-1 0 0 1 8 17)" fill="#971F27"/>
</svg>
