<svg width="342" height="249" viewBox="0 0 342 249" fill="none" xmlns="http://www.w3.org/2000/svg">
<rect width="342" height="249" fill="white"/>
<path d="M10 10V6H332V10H336V239H332V243H10V239H6V10H10Z" fill="white" stroke="#D9D9D9" stroke-width="4"/>
<path d="M23.625 20.25V18.625H33.375V20.25H30.125V30H26.875V20.25H23.625ZM35 30V28.375H38.25V26.75H36.625V25.125H35V21.875H38.25V25.125H39.875V26.75H41.5V25.125H43.125V21.875H46.375V25.125H44.75V26.75H43.125V28.375H41.5V30H35ZM56.125 25.125V23.5H51.25V25.125H56.125ZM48 30V21.875H57.75V23.5H59.375V25.125H57.75V26.75H51.25V30H48ZM69.125 25.125V23.5H64.25V25.125H69.125ZM62.625 28.375H61V23.5H62.625V21.875H70.75V23.5H72.375V26.75H64.25V28.375H70.75V30H62.625V28.375ZM87 30V18.625H90.25V21.875H96.75V23.5H98.375V30H95.125V23.5H90.25V30H87ZM108.125 25.125V23.5H103.25V25.125H108.125ZM101.625 28.375H100V23.5H101.625V21.875H109.75V23.5H111.375V26.75H103.25V28.375H109.75V30H101.625V28.375ZM113 30V21.875H116.25V23.5H117.875V25.125H116.25V30H113ZM122.75 23.5H124.375V25.125H121.125V23.5H117.875V21.875H122.75V23.5ZM134.125 25.125V23.5H129.25V25.125H134.125ZM127.625 28.375H126V23.5H127.625V21.875H135.75V23.5H137.375V26.75H129.25V28.375H135.75V30H127.625V28.375ZM142.25 30V26.75H145.5V30H142.25ZM155.25 30V26.75H158.5V30H155.25ZM168.25 30V26.75H171.5V30H168.25Z" fill="#4BB5CF"/>
</svg>
